<svg xmlns="http://www.w3.org/2000/svg" width="1200" height="1200" viewBox="0 0 1200 1200"><rect width="1200" height="1200" fill="white"/><circle cx="950" cy="600" r="2.2" fill="#172b38"/><text x="962.0" y="600.0" text-anchor="middle" dominant-baseline="central" font-family="Arial,sans-serif" font-size="11" fill="#394553">1</text><circle cx="920" cy="600" r="2.2" fill="#172b38"/><text x="932.0" y="600.0" text-anchor="middle" dominant-baseline="central" font-family="Arial,sans-serif" font-size="11" fill="#394553">2</text><circle cx="690" cy="480" r="2.2" fill="#172b38"/><text x="702.0" y="480.0" text-anchor="middle" dominant-baseline="central" font-family="Arial,sans-serif" font-size="11" fill="#394553">3</text><circle cx="690" cy="390" r="2.2" fill="#172b38"/><text x="678.0" y="390.0" text-anchor="middle" dominant-baseline="central" font-family="Arial,sans-serif" font-size="11" fill="#394553">4</text><circle cx="610" cy="900" r="2.2" fill="#172b38"/><text x="622.0" y="900.0" text-anchor="middle" dominant-baseline="central" font-family="Arial,sans-serif" font-size="11" fill="#394553">5</text><circle cx="590" cy="930" r="2.2" fill="#172b38"/><text x="602.0" y="930.0" text-anchor="middle" dominant-baseline="central" font-family="Arial,sans-serif" font-size="11" fill="#394553">6</text><circle cx="810" cy="930" r="2.2" fill="#172b38"/><text x="822.0" y="930.0" text-anchor="middle" dominant-baseline="central" font-family="Arial,sans-serif" font-size="11" fill="#394553">7</text><circle cx="790" cy="900" r="2.2" fill="#172b38"/><text x="802.0" y="900.0" text-anchor="middle" dominant-baseline="central" font-family="Arial,sans-serif" font-size="11" fill="#394553">8</text><circle cx="210" cy="740" r="2.2" fill="#172b38"/><text x="222.0" y="740.0" text-anchor="middle" dominant-baseline="central" font-family="Arial,sans-serif" font-size="11" fill="#394553">9</text><circle cx="100" cy="740" r="2.2" fill="#172b38"/><text x="112.0" y="740.0" text-anchor="middle" dominant-baseline="central" font-family="Arial,sans-serif" font-size="11" fill="#394553">10</text><circle cx="1100" cy="820" r="2.2" fill="#172b38"/><text x="1112.0" y="820.0" text-anchor="middle" dominant-baseline="central" font-family="Arial,sans-serif" font-size="11" fill="#394553">11</text><circle cx="1090" cy="820" r="2.2" fill="#172b38"/><text x="1094.592" y="831.087" text-anchor="middle" dominant-baseline="central" font-family="Arial,sans-serif" font-size="11" fill="#394553">12</text><circle cx="470" cy="210" r="2.2" fill="#172b38"/><text x="482.0" y="210.0" text-anchor="middle" dominant-baseline="central" font-family="Arial,sans-serif" font-size="11" fill="#394553">13</text><circle cx="470" cy="100" r="2.2" fill="#172b38"/><text x="457.272" y="87.272" text-anchor="middle" dominant-baseline="central" font-family="Arial,sans-serif" font-size="11" fill="#394553">14</text><circle cx="1000" cy="200" r="2.2" fill="#172b38"/><text x="1012.0" y="200.0" text-anchor="middle" dominant-baseline="central" font-family="Arial,sans-serif" font-size="11" fill="#394553">15</text><circle cx="1000" cy="100" r="2.2" fill="#172b38"/><text x="1012.0" y="100.0" text-anchor="middle" dominant-baseline="central" font-family="Arial,sans-serif" font-size="11" fill="#394553">16</text><circle cx="790" cy="660" r="2.2" fill="#172b38"/><text x="802.0" y="660.0" text-anchor="middle" dominant-baseline="central" font-family="Arial,sans-serif" font-size="11" fill="#394553">17</text><circle cx="760" cy="660" r="2.2" fill="#172b38"/><text x="772.0" y="660.0" text-anchor="middle" dominant-baseline="central" font-family="Arial,sans-serif" font-size="11" fill="#394553">18</text><circle cx="210" cy="530" r="2.2" fill="#172b38"/><text x="222.0" y="530.0" text-anchor="middle" dominant-baseline="central" font-family="Arial,sans-serif" font-size="11" fill="#394553">19</text><circle cx="100" cy="530" r="2.2" fill="#172b38"/><text x="112.0" y="530.0" text-anchor="middle" dominant-baseline="central" font-family="Arial,sans-serif" font-size="11" fill="#394553">20</text><circle cx="580" cy="400" r="2.2" fill="#172b38"/><text x="591.087" y="404.592" text-anchor="middle" dominant-baseline="central" font-family="Arial,sans-serif" font-size="11" fill="#394553">21</text><circle cx="560" cy="430" r="2.2" fill="#172b38"/><text x="572.0" y="430.0" text-anchor="middle" dominant-baseline="central" font-family="Arial,sans-serif" font-size="11" fill="#394553">22</text><circle cx="580" cy="450" r="2.2" fill="#172b38"/><text x="584.592" y="461.087" text-anchor="middle" dominant-baseline="central" font-family="Arial,sans-serif" font-size="11" fill="#394553">23</text><circle cx="610" cy="430" r="2.2" fill="#172b38"/><text x="614.592" y="441.087" text-anchor="middle" dominant-baseline="central" font-family="Arial,sans-serif" font-size="11" fill="#394553">24</text><circle cx="470" cy="600" r="2.2" fill="#172b38"/><text x="482.0" y="600.0" text-anchor="middle" dominant-baseline="central" font-family="Arial,sans-serif" font-size="11" fill="#394553">25</text><circle cx="470" cy="750" r="2.2" fill="#172b38"/><text x="458.0" y="750.0" text-anchor="middle" dominant-baseline="central" font-family="Arial,sans-serif" font-size="11" fill="#394553">26</text><circle cx="590" cy="750" r="2.2" fill="#172b38"/><text x="590.0" y="762.0" text-anchor="middle" dominant-baseline="central" font-family="Arial,sans-serif" font-size="11" fill="#394553">27</text><circle cx="590" cy="600" r="2.2" fill="#172b38"/><text x="585.408" y="611.087" text-anchor="middle" dominant-baseline="central" font-family="Arial,sans-serif" font-size="11" fill="#394553">28</text><circle cx="410" cy="150" r="2.2" fill="#172b38"/><text x="422.0" y="150.0" text-anchor="middle" dominant-baseline="central" font-family="Arial,sans-serif" font-size="11" fill="#394553">29</text><circle cx="530" cy="150" r="2.2" fill="#172b38"/><text x="541.087" y="154.592" text-anchor="middle" dominant-baseline="central" font-family="Arial,sans-serif" font-size="11" fill="#394553">30</text><circle cx="530" cy="100" r="2.2" fill="#172b38"/><text x="542.0" y="100.0" text-anchor="middle" dominant-baseline="central" font-family="Arial,sans-serif" font-size="11" fill="#394553">31</text><circle cx="310" cy="800" r="2.2" fill="#172b38"/><text x="322.0" y="800.0" text-anchor="middle" dominant-baseline="central" font-family="Arial,sans-serif" font-size="11" fill="#394553">32</text><circle cx="100" cy="800" r="2.2" fill="#172b38"/><text x="112.0" y="800.0" text-anchor="middle" dominant-baseline="central" font-family="Arial,sans-serif" font-size="11" fill="#394553">33</text><circle cx="740" cy="350" r="2.2" fill="#172b38"/><text x="744.592" y="361.087" text-anchor="middle" dominant-baseline="central" font-family="Arial,sans-serif" font-size="11" fill="#394553">34</text><circle cx="720" cy="380" r="2.2" fill="#172b38"/><text x="732.0" y="380.0" text-anchor="middle" dominant-baseline="central" font-family="Arial,sans-serif" font-size="11" fill="#394553">35</text><circle cx="740" cy="400" r="2.2" fill="#172b38"/><text x="728.913" y="404.592" text-anchor="middle" dominant-baseline="central" font-family="Arial,sans-serif" font-size="11" fill="#394553">36</text><circle cx="770" cy="380" r="2.2" fill="#172b38"/><text x="782.0" y="380.0" text-anchor="middle" dominant-baseline="central" font-family="Arial,sans-serif" font-size="11" fill="#394553">37</text><circle cx="100" cy="510" r="2.2" fill="#172b38"/><text x="88.913" y="514.592" text-anchor="middle" dominant-baseline="central" font-family="Arial,sans-serif" font-size="11" fill="#394553">38</text><circle cx="200" cy="510" r="2.2" fill="#172b38"/><text x="212.0" y="510.0" text-anchor="middle" dominant-baseline="central" font-family="Arial,sans-serif" font-size="11" fill="#394553">39</text><circle cx="200" cy="380" r="2.2" fill="#172b38"/><text x="212.0" y="380.0" text-anchor="middle" dominant-baseline="central" font-family="Arial,sans-serif" font-size="11" fill="#394553">40</text><circle cx="100" cy="380" r="2.2" fill="#172b38"/><text x="104.592" y="391.087" text-anchor="middle" dominant-baseline="central" font-family="Arial,sans-serif" font-size="11" fill="#394553">41</text><circle cx="740" cy="110" r="2.2" fill="#172b38"/><text x="752.0" y="110.0" text-anchor="middle" dominant-baseline="central" font-family="Arial,sans-serif" font-size="11" fill="#394553">42</text><circle cx="750" cy="100" r="2.2" fill="#172b38"/><text x="738.0" y="100.0" text-anchor="middle" dominant-baseline="central" font-family="Arial,sans-serif" font-size="11" fill="#394553">43</text><circle cx="750" cy="120" r="2.2" fill="#172b38"/><text x="761.087" y="124.592" text-anchor="middle" dominant-baseline="central" font-family="Arial,sans-serif" font-size="11" fill="#394553">44</text><circle cx="740" cy="490" r="2.2" fill="#172b38"/><text x="751.087" y="494.592" text-anchor="middle" dominant-baseline="central" font-family="Arial,sans-serif" font-size="11" fill="#394553">45</text><circle cx="640" cy="490" r="2.2" fill="#172b38"/><text x="644.592" y="501.087" text-anchor="middle" dominant-baseline="central" font-family="Arial,sans-serif" font-size="11" fill="#394553">46</text><circle cx="650" cy="670" r="2.2" fill="#172b38"/><text x="662.0" y="670.0" text-anchor="middle" dominant-baseline="central" font-family="Arial,sans-serif" font-size="11" fill="#394553">47</text><circle cx="650" cy="900" r="2.2" fill="#172b38"/><text x="662.0" y="900.0" text-anchor="middle" dominant-baseline="central" font-family="Arial,sans-serif" font-size="11" fill="#394553">48</text><circle cx="750" cy="900" r="2.2" fill="#172b38"/><text x="762.0" y="900.0" text-anchor="middle" dominant-baseline="central" font-family="Arial,sans-serif" font-size="11" fill="#394553">49</text><circle cx="750" cy="670" r="2.2" fill="#172b38"/><text x="761.087" y="674.592" text-anchor="middle" dominant-baseline="central" font-family="Arial,sans-serif" font-size="11" fill="#394553">50</text><circle cx="460" cy="660" r="2.2" fill="#172b38"/><text x="460.0" y="672.0" text-anchor="middle" dominant-baseline="central" font-family="Arial,sans-serif" font-size="11" fill="#394553">51</text><circle cx="430" cy="660" r="2.2" fill="#172b38"/><text x="442.0" y="660.0" text-anchor="middle" dominant-baseline="central" font-family="Arial,sans-serif" font-size="11" fill="#394553">52</text><circle cx="460" cy="720" r="2.2" fill="#172b38"/><text x="472.0" y="720.0" text-anchor="middle" dominant-baseline="central" font-family="Arial,sans-serif" font-size="11" fill="#394553">53</text><circle cx="430" cy="720" r="2.2" fill="#172b38"/><text x="442.0" y="720.0" text-anchor="middle" dominant-baseline="central" font-family="Arial,sans-serif" font-size="11" fill="#394553">54</text><circle cx="970" cy="520" r="2.2" fill="#172b38"/><text x="982.0" y="520.0" text-anchor="middle" dominant-baseline="central" font-family="Arial,sans-serif" font-size="11" fill="#394553">55</text><circle cx="970" cy="900" r="2.2" fill="#172b38"/><text x="982.0" y="900.0" text-anchor="middle" dominant-baseline="central" font-family="Arial,sans-serif" font-size="11" fill="#394553">56</text><circle cx="420" cy="900" r="2.2" fill="#172b38"/><text x="432.0" y="900.0" text-anchor="middle" dominant-baseline="central" font-family="Arial,sans-serif" font-size="11" fill="#394553">57</text><circle cx="420" cy="520" r="2.2" fill="#172b38"/><text x="432.0" y="520.0" text-anchor="middle" dominant-baseline="central" font-family="Arial,sans-serif" font-size="11" fill="#394553">58</text><circle cx="800" cy="600" r="2.2" fill="#172b38"/><text x="812.0" y="600.0" text-anchor="middle" dominant-baseline="central" font-family="Arial,sans-serif" font-size="11" fill="#394553">59</text><circle cx="800" cy="750" r="2.2" fill="#172b38"/><text x="812.0" y="750.0" text-anchor="middle" dominant-baseline="central" font-family="Arial,sans-serif" font-size="11" fill="#394553">60</text><circle cx="910" cy="750" r="2.2" fill="#172b38"/><text x="922.0" y="750.0" text-anchor="middle" dominant-baseline="central" font-family="Arial,sans-serif" font-size="11" fill="#394553">61</text><circle cx="910" cy="600" r="2.2" fill="#172b38"/><text x="914.592" y="611.087" text-anchor="middle" dominant-baseline="central" font-family="Arial,sans-serif" font-size="11" fill="#394553">62</text><circle cx="1100" cy="980" r="2.2" fill="#172b38"/><text x="1112.0" y="980.0" text-anchor="middle" dominant-baseline="central" font-family="Arial,sans-serif" font-size="11" fill="#394553">63</text><circle cx="900" cy="960" r="2.2" fill="#172b38"/><text x="912.0" y="960.0" text-anchor="middle" dominant-baseline="central" font-family="Arial,sans-serif" font-size="11" fill="#394553">64</text><circle cx="220" cy="1010" r="2.2" fill="#172b38"/><text x="232.0" y="1010.0" text-anchor="middle" dominant-baseline="central" font-family="Arial,sans-serif" font-size="11" fill="#394553">65</text><circle cx="100" cy="1010" r="2.2" fill="#172b38"/><text x="112.0" y="1010.0" text-anchor="middle" dominant-baseline="central" font-family="Arial,sans-serif" font-size="11" fill="#394553">66</text><circle cx="630" cy="720" r="2.2" fill="#172b38"/><text x="642.0" y="720.0" text-anchor="middle" dominant-baseline="central" font-family="Arial,sans-serif" font-size="11" fill="#394553">67</text><circle cx="600" cy="720" r="2.2" fill="#172b38"/><text x="612.0" y="720.0" text-anchor="middle" dominant-baseline="central" font-family="Arial,sans-serif" font-size="11" fill="#394553">68</text><circle cx="200" cy="660" r="2.2" fill="#172b38"/><text x="212.0" y="660.0" text-anchor="middle" dominant-baseline="central" font-family="Arial,sans-serif" font-size="11" fill="#394553">69</text><circle cx="100" cy="660" r="2.2" fill="#172b38"/><text x="112.0" y="660.0" text-anchor="middle" dominant-baseline="central" font-family="Arial,sans-serif" font-size="11" fill="#394553">70</text><circle cx="650" cy="390" r="2.2" fill="#172b38"/><text x="662.0" y="390.0" text-anchor="middle" dominant-baseline="central" font-family="Arial,sans-serif" font-size="11" fill="#394553">71</text><circle cx="650" cy="480" r="2.2" fill="#172b38"/><text x="662.0" y="480.0" text-anchor="middle" dominant-baseline="central" font-family="Arial,sans-serif" font-size="11" fill="#394553">72</text><circle cx="730" cy="480" r="2.2" fill="#172b38"/><text x="742.0" y="480.0" text-anchor="middle" dominant-baseline="central" font-family="Arial,sans-serif" font-size="11" fill="#394553">73</text><circle cx="730" cy="390" r="2.2" fill="#172b38"/><text x="748.0" y="390.0" text-anchor="middle" dominant-baseline="central" font-family="Arial,sans-serif" font-size="11" fill="#394553">74</text><circle cx="1100" cy="910" r="2.2" fill="#172b38"/><text x="1112.0" y="910.0" text-anchor="middle" dominant-baseline="central" font-family="Arial,sans-serif" font-size="11" fill="#394553">75</text><circle cx="1080" cy="910" r="2.2" fill="#172b38"/><text x="1084.592" y="921.087" text-anchor="middle" dominant-baseline="central" font-family="Arial,sans-serif" font-size="11" fill="#394553">76</text><circle cx="180" cy="180" r="2.2" fill="#172b38"/><text x="192.0" y="180.0" text-anchor="middle" dominant-baseline="central" font-family="Arial,sans-serif" font-size="11" fill="#394553">77</text><circle cx="120" cy="150" r="2.2" fill="#172b38"/><text x="132.0" y="150.0" text-anchor="middle" dominant-baseline="central" font-family="Arial,sans-serif" font-size="11" fill="#394553">78</text><circle cx="120" cy="100" r="2.2" fill="#172b38"/><text x="132.0" y="100.0" text-anchor="middle" dominant-baseline="central" font-family="Arial,sans-serif" font-size="11" fill="#394553">79</text><circle cx="600" cy="760" r="2.2" fill="#172b38"/><text x="612.0" y="760.0" text-anchor="middle" dominant-baseline="central" font-family="Arial,sans-serif" font-size="11" fill="#394553">80</text><circle cx="460" cy="760" r="2.2" fill="#172b38"/><text x="472.0" y="760.0" text-anchor="middle" dominant-baseline="central" font-family="Arial,sans-serif" font-size="11" fill="#394553">81</text><circle cx="590" cy="670" r="2.2" fill="#172b38"/><text x="585.408" y="681.087" text-anchor="middle" dominant-baseline="central" font-family="Arial,sans-serif" font-size="11" fill="#394553">82</text><circle cx="470" cy="670" r="2.2" fill="#172b38"/><text x="482.0" y="670.0" text-anchor="middle" dominant-baseline="central" font-family="Arial,sans-serif" font-size="11" fill="#394553">83</text><circle cx="120" cy="510" r="2.2" fill="#172b38"/><text x="132.0" y="510.0" text-anchor="middle" dominant-baseline="central" font-family="Arial,sans-serif" font-size="11" fill="#394553">84</text><circle cx="120" cy="380" r="2.2" fill="#172b38"/><text x="132.0" y="380.0" text-anchor="middle" dominant-baseline="central" font-family="Arial,sans-serif" font-size="11" fill="#394553">85</text><circle cx="540" cy="140" r="2.2" fill="#172b38"/><text x="552.0" y="140.0" text-anchor="middle" dominant-baseline="central" font-family="Arial,sans-serif" font-size="11" fill="#394553">86</text><circle cx="530" cy="130" r="2.2" fill="#172b38"/><text x="518.0" y="130.0" text-anchor="middle" dominant-baseline="central" font-family="Arial,sans-serif" font-size="11" fill="#394553">87</text><circle cx="510" cy="140" r="2.2" fill="#172b38"/><text x="514.592" y="151.087" text-anchor="middle" dominant-baseline="central" font-family="Arial,sans-serif" font-size="11" fill="#394553">88</text><circle cx="730" cy="430" r="2.2" fill="#172b38"/><text x="734.592" y="441.087" text-anchor="middle" dominant-baseline="central" font-family="Arial,sans-serif" font-size="11" fill="#394553">89</text><circle cx="700" cy="450" r="2.2" fill="#172b38"/><text x="704.592" y="461.087" text-anchor="middle" dominant-baseline="central" font-family="Arial,sans-serif" font-size="11" fill="#394553">90</text><circle cx="680" cy="430" r="2.2" fill="#172b38"/><text x="692.0" y="430.0" text-anchor="middle" dominant-baseline="central" font-family="Arial,sans-serif" font-size="11" fill="#394553">91</text><circle cx="700" cy="400" r="2.2" fill="#172b38"/><text x="711.087" y="404.592" text-anchor="middle" dominant-baseline="central" font-family="Arial,sans-serif" font-size="11" fill="#394553">92</text><circle cx="650" cy="430" r="2.2" fill="#172b38"/><text x="650.0" y="442.0" text-anchor="middle" dominant-baseline="central" font-family="Arial,sans-serif" font-size="11" fill="#394553">93</text><circle cx="820" cy="1100" r="2.2" fill="#172b38"/><text x="832.0" y="1100.0" text-anchor="middle" dominant-baseline="central" font-family="Arial,sans-serif" font-size="11" fill="#394553">94</text><circle cx="860" cy="960" r="2.2" fill="#172b38"/><text x="872.0" y="960.0" text-anchor="middle" dominant-baseline="central" font-family="Arial,sans-serif" font-size="11" fill="#394553">95</text><circle cx="1010" cy="520" r="2.2" fill="#172b38"/><text x="1022.0" y="520.0" text-anchor="middle" dominant-baseline="central" font-family="Arial,sans-serif" font-size="11" fill="#394553">96</text><circle cx="940" cy="490" r="2.2" fill="#172b38"/><text x="952.0" y="490.0" text-anchor="middle" dominant-baseline="central" font-family="Arial,sans-serif" font-size="11" fill="#394553">97</text><circle cx="690" cy="270" r="2.2" fill="#172b38"/><text x="702.0" y="270.0" text-anchor="middle" dominant-baseline="central" font-family="Arial,sans-serif" font-size="11" fill="#394553">98</text><circle cx="450" cy="490" r="2.2" fill="#172b38"/><text x="462.0" y="490.0" text-anchor="middle" dominant-baseline="central" font-family="Arial,sans-serif" font-size="11" fill="#394553">99</text><circle cx="380" cy="520" r="2.2" fill="#172b38"/><text x="384.592" y="531.087" text-anchor="middle" dominant-baseline="central" font-family="Arial,sans-serif" font-size="11" fill="#394553">100</text><circle cx="690" cy="300" r="2.2" fill="#172b38"/><text x="694.592" y="311.087" text-anchor="middle" dominant-baseline="central" font-family="Arial,sans-serif" font-size="11" fill="#394553">101</text><circle cx="200" cy="450" r="2.2" fill="#172b38"/><text x="204.592" y="461.087" text-anchor="middle" dominant-baseline="central" font-family="Arial,sans-serif" font-size="11" fill="#394553">102</text><circle cx="100" cy="450" r="2.2" fill="#172b38"/><text x="104.592" y="461.087" text-anchor="middle" dominant-baseline="central" font-family="Arial,sans-serif" font-size="11" fill="#394553">103</text><circle cx="210" cy="100" r="2.2" fill="#172b38"/><text x="214.592" y="111.087" text-anchor="middle" dominant-baseline="central" font-family="Arial,sans-serif" font-size="11" fill="#394553">104</text><circle cx="220" cy="150" r="2.2" fill="#172b38"/><text x="224.592" y="161.087" text-anchor="middle" dominant-baseline="central" font-family="Arial,sans-serif" font-size="11" fill="#394553">105</text><circle cx="210" cy="200" r="2.2" fill="#172b38"/><text x="214.592" y="211.087" text-anchor="middle" dominant-baseline="central" font-family="Arial,sans-serif" font-size="11" fill="#394553">106</text><circle cx="170" cy="240" r="2.2" fill="#172b38"/><text x="174.592" y="251.087" text-anchor="middle" dominant-baseline="central" font-family="Arial,sans-serif" font-size="11" fill="#394553">107</text><circle cx="120" cy="260" r="2.2" fill="#172b38"/><text x="124.592" y="271.087" text-anchor="middle" dominant-baseline="central" font-family="Arial,sans-serif" font-size="11" fill="#394553">108</text><circle cx="100" cy="250" r="2.2" fill="#172b38"/><text x="104.592" y="261.087" text-anchor="middle" dominant-baseline="central" font-family="Arial,sans-serif" font-size="11" fill="#394553">109</text><circle cx="540" cy="450" r="2.2" fill="#172b38"/><text x="544.592" y="461.087" text-anchor="middle" dominant-baseline="central" font-family="Arial,sans-serif" font-size="11" fill="#394553">110</text><circle cx="510" cy="470" r="2.2" fill="#172b38"/><text x="514.592" y="481.087" text-anchor="middle" dominant-baseline="central" font-family="Arial,sans-serif" font-size="11" fill="#394553">111</text><circle cx="540" cy="500" r="2.2" fill="#172b38"/><text x="544.592" y="511.087" text-anchor="middle" dominant-baseline="central" font-family="Arial,sans-serif" font-size="11" fill="#394553">112</text><circle cx="570" cy="470" r="2.2" fill="#172b38"/><text x="574.592" y="481.087" text-anchor="middle" dominant-baseline="central" font-family="Arial,sans-serif" font-size="11" fill="#394553">113</text><circle cx="600" cy="500" r="2.2" fill="#172b38"/><text x="604.592" y="511.087" text-anchor="middle" dominant-baseline="central" font-family="Arial,sans-serif" font-size="11" fill="#394553">114</text><circle cx="630" cy="470" r="2.2" fill="#172b38"/><text x="625.408" y="481.087" text-anchor="middle" dominant-baseline="central" font-family="Arial,sans-serif" font-size="11" fill="#394553">115</text><circle cx="660" cy="500" r="2.2" fill="#172b38"/><text x="664.592" y="511.087" text-anchor="middle" dominant-baseline="central" font-family="Arial,sans-serif" font-size="11" fill="#394553">116</text><circle cx="690" cy="470" r="2.2" fill="#172b38"/><text x="685.408" y="458.913" text-anchor="middle" dominant-baseline="central" font-family="Arial,sans-serif" font-size="11" fill="#394553">117</text><circle cx="720" cy="500" r="2.2" fill="#172b38"/><text x="724.592" y="511.087" text-anchor="middle" dominant-baseline="central" font-family="Arial,sans-serif" font-size="11" fill="#394553">118</text><circle cx="750" cy="470" r="2.2" fill="#172b38"/><text x="766.63" y="476.888" text-anchor="middle" dominant-baseline="central" font-family="Arial,sans-serif" font-size="11" fill="#394553">119</text><circle cx="780" cy="500" r="2.2" fill="#172b38"/><text x="784.592" y="511.087" text-anchor="middle" dominant-baseline="central" font-family="Arial,sans-serif" font-size="11" fill="#394553">120</text><circle cx="810" cy="470" r="2.2" fill="#172b38"/><text x="814.592" y="481.087" text-anchor="middle" dominant-baseline="central" font-family="Arial,sans-serif" font-size="11" fill="#394553">121</text><circle cx="840" cy="500" r="2.2" fill="#172b38"/><text x="844.592" y="511.087" text-anchor="middle" dominant-baseline="central" font-family="Arial,sans-serif" font-size="11" fill="#394553">122</text><circle cx="870" cy="470" r="2.2" fill="#172b38"/><text x="874.592" y="481.087" text-anchor="middle" dominant-baseline="central" font-family="Arial,sans-serif" font-size="11" fill="#394553">123</text><circle cx="840" cy="450" r="2.2" fill="#172b38"/><text x="844.592" y="461.087" text-anchor="middle" dominant-baseline="central" font-family="Arial,sans-serif" font-size="11" fill="#394553">124</text><circle cx="780" cy="450" r="2.2" fill="#172b38"/><text x="784.592" y="461.087" text-anchor="middle" dominant-baseline="central" font-family="Arial,sans-serif" font-size="11" fill="#394553">125</text><circle cx="720" cy="450" r="2.2" fill="#172b38"/><text x="724.592" y="461.087" text-anchor="middle" dominant-baseline="central" font-family="Arial,sans-serif" font-size="11" fill="#394553">126</text><circle cx="660" cy="450" r="2.2" fill="#172b38"/><text x="664.592" y="461.087" text-anchor="middle" dominant-baseline="central" font-family="Arial,sans-serif" font-size="11" fill="#394553">127</text><circle cx="600" cy="450" r="2.2" fill="#172b38"/><text x="604.592" y="461.087" text-anchor="middle" dominant-baseline="central" font-family="Arial,sans-serif" font-size="11" fill="#394553">128</text><circle cx="770" cy="110" r="2.2" fill="#172b38"/><text x="770.0" y="98.0" text-anchor="middle" dominant-baseline="central" font-family="Arial,sans-serif" font-size="11" fill="#394553">129</text><circle cx="640" cy="400" r="2.2" fill="#172b38"/><text x="644.592" y="411.087" text-anchor="middle" dominant-baseline="central" font-family="Arial,sans-serif" font-size="11" fill="#394553">130</text><circle cx="620" cy="430" r="2.2" fill="#172b38"/><text x="615.408" y="418.913" text-anchor="middle" dominant-baseline="central" font-family="Arial,sans-serif" font-size="11" fill="#394553">131</text><circle cx="640" cy="450" r="2.2" fill="#172b38"/><text x="644.592" y="461.087" text-anchor="middle" dominant-baseline="central" font-family="Arial,sans-serif" font-size="11" fill="#394553">132</text><circle cx="670" cy="430" r="2.2" fill="#172b38"/><text x="674.592" y="441.087" text-anchor="middle" dominant-baseline="central" font-family="Arial,sans-serif" font-size="11" fill="#394553">133</text><circle cx="1100" cy="670" r="2.2" fill="#172b38"/><text x="1104.592" y="681.087" text-anchor="middle" dominant-baseline="central" font-family="Arial,sans-serif" font-size="11" fill="#394553">134</text><circle cx="1000" cy="670" r="2.2" fill="#172b38"/><text x="1004.592" y="681.087" text-anchor="middle" dominant-baseline="central" font-family="Arial,sans-serif" font-size="11" fill="#394553">135</text><circle cx="1100" cy="590" r="2.2" fill="#172b38"/><text x="1095.408" y="578.913" text-anchor="middle" dominant-baseline="central" font-family="Arial,sans-serif" font-size="11" fill="#394553">136</text><circle cx="1080" cy="800" r="2.2" fill="#172b38"/><text x="1075.408" y="788.913" text-anchor="middle" dominant-baseline="central" font-family="Arial,sans-serif" font-size="11" fill="#394553">137</text><circle cx="1060" cy="800" r="2.2" fill="#172b38"/><text x="1064.592" y="811.087" text-anchor="middle" dominant-baseline="central" font-family="Arial,sans-serif" font-size="11" fill="#394553">138</text><circle cx="100" cy="300" r="2.2" fill="#172b38"/><text x="104.592" y="311.087" text-anchor="middle" dominant-baseline="central" font-family="Arial,sans-serif" font-size="11" fill="#394553">139</text><circle cx="250" cy="300" r="2.2" fill="#172b38"/><text x="254.592" y="311.087" text-anchor="middle" dominant-baseline="central" font-family="Arial,sans-serif" font-size="11" fill="#394553">140</text><circle cx="250" cy="100" r="2.2" fill="#172b38"/><text x="254.592" y="111.087" text-anchor="middle" dominant-baseline="central" font-family="Arial,sans-serif" font-size="11" fill="#394553">141</text><circle cx="830" cy="410" r="2.2" fill="#172b38"/><text x="834.592" y="421.087" text-anchor="middle" dominant-baseline="central" font-family="Arial,sans-serif" font-size="11" fill="#394553">142</text><circle cx="550" cy="410" r="2.2" fill="#172b38"/><text x="545.408" y="421.087" text-anchor="middle" dominant-baseline="central" font-family="Arial,sans-serif" font-size="11" fill="#394553">143</text><circle cx="490" cy="1100" r="2.2" fill="#172b38"/><text x="494.592" y="1111.087" text-anchor="middle" dominant-baseline="central" font-family="Arial,sans-serif" font-size="11" fill="#394553">144</text><circle cx="400" cy="960" r="2.2" fill="#172b38"/><text x="404.592" y="971.087" text-anchor="middle" dominant-baseline="central" font-family="Arial,sans-serif" font-size="11" fill="#394553">145</text><circle cx="650" cy="840" r="2.2" fill="#172b38"/><text x="654.592" y="851.087" text-anchor="middle" dominant-baseline="central" font-family="Arial,sans-serif" font-size="11" fill="#394553">146</text><circle cx="420" cy="840" r="2.2" fill="#172b38"/><text x="424.592" y="851.087" text-anchor="middle" dominant-baseline="central" font-family="Arial,sans-serif" font-size="11" fill="#394553">147</text><circle cx="880" cy="150" r="2.2" fill="#172b38"/><text x="884.592" y="161.087" text-anchor="middle" dominant-baseline="central" font-family="Arial,sans-serif" font-size="11" fill="#394553">148</text><circle cx="850" cy="100" r="2.2" fill="#172b38"/><text x="854.592" y="111.087" text-anchor="middle" dominant-baseline="central" font-family="Arial,sans-serif" font-size="11" fill="#394553">149</text><circle cx="900" cy="470" r="2.2" fill="#172b38"/><text x="904.592" y="481.087" text-anchor="middle" dominant-baseline="central" font-family="Arial,sans-serif" font-size="11" fill="#394553">150</text><circle cx="490" cy="470" r="2.2" fill="#172b38"/><text x="494.592" y="481.087" text-anchor="middle" dominant-baseline="central" font-family="Arial,sans-serif" font-size="11" fill="#394553">151</text><circle cx="950" cy="660" r="2.2" fill="#172b38"/><text x="954.592" y="671.087" text-anchor="middle" dominant-baseline="central" font-family="Arial,sans-serif" font-size="11" fill="#394553">152</text><circle cx="920" cy="660" r="2.2" fill="#172b38"/><text x="924.592" y="671.087" text-anchor="middle" dominant-baseline="central" font-family="Arial,sans-serif" font-size="11" fill="#394553">153</text><circle cx="680" cy="350" r="2.2" fill="#172b38"/><text x="675.408" y="338.913" text-anchor="middle" dominant-baseline="central" font-family="Arial,sans-serif" font-size="11" fill="#394553">154</text><circle cx="660" cy="380" r="2.2" fill="#172b38"/><text x="666.888" y="363.37" text-anchor="middle" dominant-baseline="central" font-family="Arial,sans-serif" font-size="11" fill="#394553">155</text><circle cx="680" cy="400" r="2.2" fill="#172b38"/><text x="684.592" y="411.087" text-anchor="middle" dominant-baseline="central" font-family="Arial,sans-serif" font-size="11" fill="#394553">156</text><circle cx="710" cy="380" r="2.2" fill="#172b38"/><text x="714.592" y="391.087" text-anchor="middle" dominant-baseline="central" font-family="Arial,sans-serif" font-size="11" fill="#394553">157</text><circle cx="1080" cy="860" r="2.2" fill="#172b38"/><text x="1075.408" y="848.913" text-anchor="middle" dominant-baseline="central" font-family="Arial,sans-serif" font-size="11" fill="#394553">158</text><circle cx="1060" cy="860" r="2.2" fill="#172b38"/><text x="1064.592" y="871.087" text-anchor="middle" dominant-baseline="central" font-family="Arial,sans-serif" font-size="11" fill="#394553">159</text><circle cx="910" cy="670" r="2.2" fill="#172b38"/><text x="905.408" y="658.913" text-anchor="middle" dominant-baseline="central" font-family="Arial,sans-serif" font-size="11" fill="#394553">160</text><circle cx="800" cy="670" r="2.2" fill="#172b38"/><text x="804.592" y="681.087" text-anchor="middle" dominant-baseline="central" font-family="Arial,sans-serif" font-size="11" fill="#394553">161</text><circle cx="230" cy="100" r="2.2" fill="#172b38"/><text x="234.592" y="111.087" text-anchor="middle" dominant-baseline="central" font-family="Arial,sans-serif" font-size="11" fill="#394553">162</text><circle cx="150" cy="180" r="2.2" fill="#172b38"/><text x="154.592" y="191.087" text-anchor="middle" dominant-baseline="central" font-family="Arial,sans-serif" font-size="11" fill="#394553">163</text><circle cx="100" cy="120" r="2.2" fill="#172b38"/><text x="104.592" y="131.087" text-anchor="middle" dominant-baseline="central" font-family="Arial,sans-serif" font-size="11" fill="#394553">164</text><circle cx="920" cy="760" r="2.2" fill="#172b38"/><text x="924.592" y="771.087" text-anchor="middle" dominant-baseline="central" font-family="Arial,sans-serif" font-size="11" fill="#394553">165</text><circle cx="790" cy="760" r="2.2" fill="#172b38"/><text x="794.592" y="771.087" text-anchor="middle" dominant-baseline="central" font-family="Arial,sans-serif" font-size="11" fill="#394553">166</text><circle cx="1100" cy="610" r="2.2" fill="#172b38"/><text x="1104.592" y="621.087" text-anchor="middle" dominant-baseline="central" font-family="Arial,sans-serif" font-size="11" fill="#394553">167</text><circle cx="1080" cy="640" r="2.2" fill="#172b38"/><text x="1084.592" y="651.087" text-anchor="middle" dominant-baseline="central" font-family="Arial,sans-serif" font-size="11" fill="#394553">168</text><circle cx="160" cy="1100" r="2.2" fill="#172b38"/><text x="164.592" y="1111.087" text-anchor="middle" dominant-baseline="central" font-family="Arial,sans-serif" font-size="11" fill="#394553">169</text><circle cx="160" cy="1080" r="2.2" fill="#172b38"/><text x="155.408" y="1068.913" text-anchor="middle" dominant-baseline="central" font-family="Arial,sans-serif" font-size="11" fill="#394553">170</text><circle cx="100" cy="1080" r="2.2" fill="#172b38"/><text x="104.592" y="1091.087" text-anchor="middle" dominant-baseline="central" font-family="Arial,sans-serif" font-size="11" fill="#394553">171</text><circle cx="530" cy="750" r="2.2" fill="#172b38"/><text x="534.592" y="761.087" text-anchor="middle" dominant-baseline="central" font-family="Arial,sans-serif" font-size="11" fill="#394553">172</text><circle cx="530" cy="600" r="2.2" fill="#172b38"/><text x="534.592" y="611.087" text-anchor="middle" dominant-baseline="central" font-family="Arial,sans-serif" font-size="11" fill="#394553">173</text><circle cx="950" cy="720" r="2.2" fill="#172b38"/><text x="954.592" y="731.087" text-anchor="middle" dominant-baseline="central" font-family="Arial,sans-serif" font-size="11" fill="#394553">174</text><circle cx="920" cy="720" r="2.2" fill="#172b38"/><text x="924.592" y="731.087" text-anchor="middle" dominant-baseline="central" font-family="Arial,sans-serif" font-size="11" fill="#394553">175</text><circle cx="1100" cy="930" r="2.2" fill="#172b38"/><text x="1104.592" y="941.087" text-anchor="middle" dominant-baseline="central" font-family="Arial,sans-serif" font-size="11" fill="#394553">176</text><circle cx="1040" cy="930" r="2.2" fill="#172b38"/><text x="1044.592" y="941.087" text-anchor="middle" dominant-baseline="central" font-family="Arial,sans-serif" font-size="11" fill="#394553">177</text><circle cx="760" cy="400" r="2.2" fill="#172b38"/><text x="764.592" y="411.087" text-anchor="middle" dominant-baseline="central" font-family="Arial,sans-serif" font-size="11" fill="#394553">178</text><circle cx="740" cy="430" r="2.2" fill="#172b38"/><text x="735.408" y="418.913" text-anchor="middle" dominant-baseline="central" font-family="Arial,sans-serif" font-size="11" fill="#394553">179</text><circle cx="760" cy="450" r="2.2" fill="#172b38"/><text x="764.592" y="461.087" text-anchor="middle" dominant-baseline="central" font-family="Arial,sans-serif" font-size="11" fill="#394553">180</text><circle cx="790" cy="430" r="2.2" fill="#172b38"/><text x="785.408" y="418.913" text-anchor="middle" dominant-baseline="central" font-family="Arial,sans-serif" font-size="11" fill="#394553">181</text><circle cx="970" cy="780" r="2.2" fill="#172b38"/><text x="974.592" y="791.087" text-anchor="middle" dominant-baseline="central" font-family="Arial,sans-serif" font-size="11" fill="#394553">182</text><circle cx="750" cy="780" r="2.2" fill="#172b38"/><text x="754.592" y="791.087" text-anchor="middle" dominant-baseline="central" font-family="Arial,sans-serif" font-size="11" fill="#394553">183</text><circle cx="630" cy="600" r="2.2" fill="#172b38"/><text x="634.592" y="611.087" text-anchor="middle" dominant-baseline="central" font-family="Arial,sans-serif" font-size="11" fill="#394553">184</text><circle cx="600" cy="600" r="2.2" fill="#172b38"/><text x="604.592" y="611.087" text-anchor="middle" dominant-baseline="central" font-family="Arial,sans-serif" font-size="11" fill="#394553">185</text><circle cx="100" cy="720" r="2.2" fill="#172b38"/><text x="95.408" y="708.913" text-anchor="middle" dominant-baseline="central" font-family="Arial,sans-serif" font-size="11" fill="#394553">186</text><circle cx="200" cy="720" r="2.2" fill="#172b38"/><text x="195.408" y="731.087" text-anchor="middle" dominant-baseline="central" font-family="Arial,sans-serif" font-size="11" fill="#394553">187</text><circle cx="200" cy="590" r="2.2" fill="#172b38"/><text x="204.592" y="601.087" text-anchor="middle" dominant-baseline="central" font-family="Arial,sans-serif" font-size="11" fill="#394553">188</text><circle cx="100" cy="590" r="2.2" fill="#172b38"/><text x="104.592" y="601.087" text-anchor="middle" dominant-baseline="central" font-family="Arial,sans-serif" font-size="11" fill="#394553">189</text><circle cx="970" cy="840" r="2.2" fill="#172b38"/><text x="974.592" y="851.087" text-anchor="middle" dominant-baseline="central" font-family="Arial,sans-serif" font-size="11" fill="#394553">190</text><circle cx="750" cy="840" r="2.2" fill="#172b38"/><text x="754.592" y="851.087" text-anchor="middle" dominant-baseline="central" font-family="Arial,sans-serif" font-size="11" fill="#394553">191</text><circle cx="490" cy="100" r="2.2" fill="#172b38"/><text x="494.592" y="111.087" text-anchor="middle" dominant-baseline="central" font-family="Arial,sans-serif" font-size="11" fill="#394553">192</text><circle cx="560" cy="100" r="2.2" fill="#172b38"/><text x="564.592" y="111.087" text-anchor="middle" dominant-baseline="central" font-family="Arial,sans-serif" font-size="11" fill="#394553">193</text><circle cx="480" cy="100" r="2.2" fill="#172b38"/><text x="475.408" y="88.913" text-anchor="middle" dominant-baseline="central" font-family="Arial,sans-serif" font-size="11" fill="#394553">194</text><circle cx="470" cy="110" r="2.2" fill="#172b38"/><text x="476.888" y="126.63" text-anchor="middle" dominant-baseline="central" font-family="Arial,sans-serif" font-size="11" fill="#394553">195</text><circle cx="460" cy="100" r="2.2" fill="#172b38"/><text x="455.408" y="111.087" text-anchor="middle" dominant-baseline="central" font-family="Arial,sans-serif" font-size="11" fill="#394553">196</text><circle cx="790" cy="720" r="2.2" fill="#172b38"/><text x="794.592" y="731.087" text-anchor="middle" dominant-baseline="central" font-family="Arial,sans-serif" font-size="11" fill="#394553">197</text><circle cx="760" cy="720" r="2.2" fill="#172b38"/><text x="764.592" y="731.087" text-anchor="middle" dominant-baseline="central" font-family="Arial,sans-serif" font-size="11" fill="#394553">198</text><circle cx="730" cy="750" r="2.2" fill="#172b38"/><text x="734.592" y="761.087" text-anchor="middle" dominant-baseline="central" font-family="Arial,sans-serif" font-size="11" fill="#394553">199</text><circle cx="720" cy="730" r="2.2" fill="#172b38"/><text x="715.408" y="741.087" text-anchor="middle" dominant-baseline="central" font-family="Arial,sans-serif" font-size="11" fill="#394553">200</text><circle cx="710" cy="720" r="2.2" fill="#172b38"/><text x="705.408" y="708.913" text-anchor="middle" dominant-baseline="central" font-family="Arial,sans-serif" font-size="11" fill="#394553">201</text><circle cx="690" cy="720" r="2.2" fill="#172b38"/><text x="694.592" y="731.087" text-anchor="middle" dominant-baseline="central" font-family="Arial,sans-serif" font-size="11" fill="#394553">202</text><circle cx="670" cy="730" r="2.2" fill="#172b38"/><text x="674.592" y="741.087" text-anchor="middle" dominant-baseline="central" font-family="Arial,sans-serif" font-size="11" fill="#394553">203</text><circle cx="660" cy="750" r="2.2" fill="#172b38"/><text x="655.408" y="761.087" text-anchor="middle" dominant-baseline="central" font-family="Arial,sans-serif" font-size="11" fill="#394553">204</text><circle cx="670" cy="770" r="2.2" fill="#172b38"/><text x="674.592" y="781.087" text-anchor="middle" dominant-baseline="central" font-family="Arial,sans-serif" font-size="11" fill="#394553">205</text><circle cx="690" cy="790" r="2.2" fill="#172b38"/><text x="694.592" y="801.087" text-anchor="middle" dominant-baseline="central" font-family="Arial,sans-serif" font-size="11" fill="#394553">206</text><circle cx="710" cy="790" r="2.2" fill="#172b38"/><text x="714.592" y="801.087" text-anchor="middle" dominant-baseline="central" font-family="Arial,sans-serif" font-size="11" fill="#394553">207</text><circle cx="720" cy="770" r="2.2" fill="#172b38"/><text x="724.592" y="781.087" text-anchor="middle" dominant-baseline="central" font-family="Arial,sans-serif" font-size="11" fill="#394553">208</text><circle cx="100" cy="840" r="2.2" fill="#172b38"/><text x="104.592" y="851.087" text-anchor="middle" dominant-baseline="central" font-family="Arial,sans-serif" font-size="11" fill="#394553">209</text><circle cx="280" cy="840" r="2.2" fill="#172b38"/><text x="284.592" y="851.087" text-anchor="middle" dominant-baseline="central" font-family="Arial,sans-serif" font-size="11" fill="#394553">210</text><circle cx="280" cy="100" r="2.2" fill="#172b38"/><text x="284.592" y="111.087" text-anchor="middle" dominant-baseline="central" font-family="Arial,sans-serif" font-size="11" fill="#394553">211</text><circle cx="860" cy="750" r="2.2" fill="#172b38"/><text x="864.592" y="761.087" text-anchor="middle" dominant-baseline="central" font-family="Arial,sans-serif" font-size="11" fill="#394553">212</text><circle cx="860" cy="600" r="2.2" fill="#172b38"/><text x="864.592" y="611.087" text-anchor="middle" dominant-baseline="central" font-family="Arial,sans-serif" font-size="11" fill="#394553">213</text><circle cx="760" cy="350" r="2.2" fill="#172b38"/><text x="764.592" y="361.087" text-anchor="middle" dominant-baseline="central" font-family="Arial,sans-serif" font-size="11" fill="#394553">214</text><circle cx="620" cy="350" r="2.2" fill="#172b38"/><text x="624.592" y="361.087" text-anchor="middle" dominant-baseline="central" font-family="Arial,sans-serif" font-size="11" fill="#394553">215</text><circle cx="600" cy="380" r="2.2" fill="#172b38"/><text x="595.408" y="391.087" text-anchor="middle" dominant-baseline="central" font-family="Arial,sans-serif" font-size="11" fill="#394553">216</text><circle cx="620" cy="400" r="2.2" fill="#172b38"/><text x="615.408" y="388.913" text-anchor="middle" dominant-baseline="central" font-family="Arial,sans-serif" font-size="11" fill="#394553">217</text><circle cx="650" cy="380" r="2.2" fill="#172b38"/><text x="645.408" y="368.913" text-anchor="middle" dominant-baseline="central" font-family="Arial,sans-serif" font-size="11" fill="#394553">218</text><circle cx="1100" cy="990" r="2.2" fill="#172b38"/><text x="1104.592" y="1001.087" text-anchor="middle" dominant-baseline="central" font-family="Arial,sans-serif" font-size="11" fill="#394553">219</text><circle cx="1040" cy="990" r="2.2" fill="#172b38"/><text x="1044.592" y="1001.087" text-anchor="middle" dominant-baseline="central" font-family="Arial,sans-serif" font-size="11" fill="#394553">220</text><circle cx="630" cy="660" r="2.2" fill="#172b38"/><text x="634.592" y="671.087" text-anchor="middle" dominant-baseline="central" font-family="Arial,sans-serif" font-size="11" fill="#394553">221</text><circle cx="600" cy="660" r="2.2" fill="#172b38"/><text x="604.592" y="671.087" text-anchor="middle" dominant-baseline="central" font-family="Arial,sans-serif" font-size="11" fill="#394553">222</text><circle cx="650" cy="780" r="2.2" fill="#172b38"/><text x="654.592" y="791.087" text-anchor="middle" dominant-baseline="central" font-family="Arial,sans-serif" font-size="11" fill="#394553">223</text><circle cx="420" cy="780" r="2.2" fill="#172b38"/><text x="424.592" y="791.087" text-anchor="middle" dominant-baseline="central" font-family="Arial,sans-serif" font-size="11" fill="#394553">224</text><circle cx="460" cy="600" r="2.2" fill="#172b38"/><text x="464.592" y="611.087" text-anchor="middle" dominant-baseline="central" font-family="Arial,sans-serif" font-size="11" fill="#394553">225</text><circle cx="430" cy="600" r="2.2" fill="#172b38"/><text x="434.592" y="611.087" text-anchor="middle" dominant-baseline="central" font-family="Arial,sans-serif" font-size="11" fill="#394553">226</text><circle cx="800" cy="320" r="2.2" fill="#172b38"/><text x="804.592" y="331.087" text-anchor="middle" dominant-baseline="central" font-family="Arial,sans-serif" font-size="11" fill="#394553">227</text><circle cx="800" cy="420" r="2.2" fill="#172b38"/><text x="804.592" y="431.087" text-anchor="middle" dominant-baseline="central" font-family="Arial,sans-serif" font-size="11" fill="#394553">228</text><circle cx="870" cy="420" r="2.2" fill="#172b38"/><text x="874.592" y="431.087" text-anchor="middle" dominant-baseline="central" font-family="Arial,sans-serif" font-size="11" fill="#394553">229</text><circle cx="870" cy="320" r="2.2" fill="#172b38"/><text x="874.592" y="331.087" text-anchor="middle" dominant-baseline="central" font-family="Arial,sans-serif" font-size="11" fill="#394553">230</text><circle cx="1080" cy="740" r="2.2" fill="#172b38"/><text x="1084.592" y="751.087" text-anchor="middle" dominant-baseline="central" font-family="Arial,sans-serif" font-size="11" fill="#394553">231</text><circle cx="1060" cy="740" r="2.2" fill="#172b38"/><text x="1064.592" y="751.087" text-anchor="middle" dominant-baseline="central" font-family="Arial,sans-serif" font-size="11" fill="#394553">232</text><circle cx="790" cy="600" r="2.2" fill="#172b38"/><text x="794.592" y="611.087" text-anchor="middle" dominant-baseline="central" font-family="Arial,sans-serif" font-size="11" fill="#394553">233</text><circle cx="760" cy="600" r="2.2" fill="#172b38"/><text x="764.592" y="611.087" text-anchor="middle" dominant-baseline="central" font-family="Arial,sans-serif" font-size="11" fill="#394553">234</text><circle cx="120" cy="720" r="2.2" fill="#172b38"/><text x="115.408" y="708.913" text-anchor="middle" dominant-baseline="central" font-family="Arial,sans-serif" font-size="11" fill="#394553">235</text><circle cx="120" cy="590" r="2.2" fill="#172b38"/><text x="124.592" y="601.087" text-anchor="middle" dominant-baseline="central" font-family="Arial,sans-serif" font-size="11" fill="#394553">236</text><circle cx="1100" cy="890" r="2.2" fill="#172b38"/><text x="1095.408" y="878.913" text-anchor="middle" dominant-baseline="central" font-family="Arial,sans-serif" font-size="11" fill="#394553">237</text><circle cx="1090" cy="890" r="2.2" fill="#172b38"/><text x="1073.37" y="896.888" text-anchor="middle" dominant-baseline="central" font-family="Arial,sans-serif" font-size="11" fill="#394553">238</text><circle cx="1090" cy="740" r="2.2" fill="#172b38"/><text x="1085.408" y="728.913" text-anchor="middle" dominant-baseline="central" font-family="Arial,sans-serif" font-size="11" fill="#394553">239</text><circle cx="1100" cy="740" r="2.2" fill="#172b38"/><text x="1104.592" y="751.087" text-anchor="middle" dominant-baseline="central" font-family="Arial,sans-serif" font-size="11" fill="#394553">240</text><circle cx="1100" cy="1040" r="2.2" fill="#172b38"/><text x="1104.592" y="1051.087" text-anchor="middle" dominant-baseline="central" font-family="Arial,sans-serif" font-size="11" fill="#394553">241</text><circle cx="1040" cy="1040" r="2.2" fill="#172b38"/><text x="1044.592" y="1051.087" text-anchor="middle" dominant-baseline="central" font-family="Arial,sans-serif" font-size="11" fill="#394553">242</text><circle cx="1040" cy="670" r="2.2" fill="#172b38"/><text x="1044.592" y="681.087" text-anchor="middle" dominant-baseline="central" font-family="Arial,sans-serif" font-size="11" fill="#394553">243</text></svg>