<svg xmlns="http://www.w3.org/2000/svg" width="1200" height="1200" viewBox="0 0 1200 1200"><rect width="1200" height="1200" fill="white"/><circle cx="220" cy="490" r="2.2" fill="#172b38"/><circle cx="120" cy="490" r="2.2" fill="#172b38"/><circle cx="300" cy="540" r="2.2" fill="#172b38"/><circle cx="300" cy="420" r="2.2" fill="#172b38"/><circle cx="170" cy="360" r="2.2" fill="#172b38"/><circle cx="160" cy="380" r="2.2" fill="#172b38"/><circle cx="150" cy="360" r="2.2" fill="#172b38"/><circle cx="460" cy="670" r="2.2" fill="#172b38"/><circle cx="450" cy="670" r="2.2" fill="#172b38"/><circle cx="430" cy="680" r="2.2" fill="#172b38"/><circle cx="410" cy="720" r="2.2" fill="#172b38"/><circle cx="400" cy="750" r="2.2" fill="#172b38"/><circle cx="430" cy="730" r="2.2" fill="#172b38"/><circle cx="480" cy="710" r="2.2" fill="#172b38"/><circle cx="520" cy="720" r="2.2" fill="#172b38"/><circle cx="560" cy="740" r="2.2" fill="#172b38"/><circle cx="600" cy="750" r="2.2" fill="#172b38"/><circle cx="650" cy="760" r="2.2" fill="#172b38"/><circle cx="690" cy="740" r="2.2" fill="#172b38"/><circle cx="720" cy="710" r="2.2" fill="#172b38"/><circle cx="740" cy="670" r="2.2" fill="#172b38"/><circle cx="750" cy="620" r="2.2" fill="#172b38"/><circle cx="750" cy="590" r="2.2" fill="#172b38"/><circle cx="740" cy="560" r="2.2" fill="#172b38"/><circle cx="730" cy="520" r="2.2" fill="#172b38"/><circle cx="700" cy="500" r="2.2" fill="#172b38"/><circle cx="660" cy="490" r="2.2" fill="#172b38"/><circle cx="620" cy="490" r="2.2" fill="#172b38"/><circle cx="590" cy="520" r="2.2" fill="#172b38"/><circle cx="570" cy="550" r="2.2" fill="#172b38"/><circle cx="520" cy="570" r="2.2" fill="#172b38"/><circle cx="480" cy="590" r="2.2" fill="#172b38"/><circle cx="470" cy="630" r="2.2" fill="#172b38"/><circle cx="970" cy="400" r="2.2" fill="#172b38"/><circle cx="1090" cy="490" r="2.2" fill="#172b38"/><circle cx="960" cy="420" r="2.2" fill="#172b38"/><circle cx="970" cy="620" r="2.2" fill="#172b38"/><circle cx="890" cy="450" r="2.2" fill="#172b38"/><circle cx="860" cy="550" r="2.2" fill="#172b38"/><circle cx="750" cy="400" r="2.2" fill="#172b38"/><circle cx="1090" cy="310" r="2.2" fill="#172b38"/><circle cx="960" cy="370" r="2.2" fill="#172b38"/><circle cx="970" cy="170" r="2.2" fill="#172b38"/><circle cx="890" cy="340" r="2.2" fill="#172b38"/><circle cx="860" cy="240" r="2.2" fill="#172b38"/><circle cx="1030" cy="1100" r="2.2" fill="#172b38"/><circle cx="1030" cy="1060" r="2.2" fill="#172b38"/><circle cx="310" cy="430" r="2.2" fill="#172b38"/><circle cx="300" cy="440" r="2.2" fill="#172b38"/><circle cx="340" cy="480" r="2.2" fill="#172b38"/><circle cx="300" cy="520" r="2.2" fill="#172b38"/><circle cx="260" cy="480" r="2.2" fill="#172b38"/><circle cx="280" cy="430" r="2.2" fill="#172b38"/><circle cx="1060" cy="1100" r="2.2" fill="#172b38"/><circle cx="1030" cy="1080" r="2.2" fill="#172b38"/><circle cx="1010" cy="1100" r="2.2" fill="#172b38"/><circle cx="1100" cy="610" r="2.2" fill="#172b38"/><circle cx="1060" cy="510" r="2.2" fill="#172b38"/><circle cx="1020" cy="620" r="2.2" fill="#172b38"/><circle cx="910" cy="460" r="2.2" fill="#172b38"/><circle cx="200" cy="680" r="2.2" fill="#172b38"/><circle cx="100" cy="680" r="2.2" fill="#172b38"/><circle cx="140" cy="720" r="2.2" fill="#172b38"/><circle cx="180" cy="680" r="2.2" fill="#172b38"/><circle cx="140" cy="640" r="2.2" fill="#172b38"/><circle cx="200" cy="400" r="2.2" fill="#172b38"/><circle cx="120" cy="400" r="2.2" fill="#172b38"/><circle cx="170" cy="540" r="2.2" fill="#172b38"/><circle cx="170" cy="440" r="2.2" fill="#172b38"/><circle cx="1100" cy="560" r="2.2" fill="#172b38"/><circle cx="1070" cy="520" r="2.2" fill="#172b38"/><circle cx="700" cy="550" r="2.2" fill="#172b38"/><circle cx="700" cy="540" r="2.2" fill="#172b38"/><circle cx="690" cy="540" r="2.2" fill="#172b38"/><circle cx="680" cy="550" r="2.2" fill="#172b38"/><circle cx="690" cy="560" r="2.2" fill="#172b38"/><circle cx="700" cy="560" r="2.2" fill="#172b38"/><circle cx="830" cy="800" r="2.2" fill="#172b38"/><circle cx="1000" cy="720" r="2.2" fill="#172b38"/><circle cx="1060" cy="500" r="2.2" fill="#172b38"/><circle cx="1100" cy="540" r="2.2" fill="#172b38"/><circle cx="190" cy="630" r="2.2" fill="#172b38"/><circle cx="180" cy="610" r="2.2" fill="#172b38"/><circle cx="160" cy="630" r="2.2" fill="#172b38"/><circle cx="430" cy="100" r="2.2" fill="#172b38"/><circle cx="410" cy="150" r="2.2" fill="#172b38"/><circle cx="390" cy="100" r="2.2" fill="#172b38"/><circle cx="330" cy="150" r="2.2" fill="#172b38"/><circle cx="100" cy="150" r="2.2" fill="#172b38"/><circle cx="140" cy="100" r="2.2" fill="#172b38"/><circle cx="190" cy="450" r="2.2" fill="#172b38"/><circle cx="170" cy="470" r="2.2" fill="#172b38"/><circle cx="160" cy="450" r="2.2" fill="#172b38"/><circle cx="400" cy="1100" r="2.2" fill="#172b38"/><circle cx="370" cy="980" r="2.2" fill="#172b38"/><circle cx="330" cy="1100" r="2.2" fill="#172b38"/><circle cx="810" cy="330" r="2.2" fill="#172b38"/><circle cx="930" cy="430" r="2.2" fill="#172b38"/><circle cx="800" cy="360" r="2.2" fill="#172b38"/><circle cx="810" cy="560" r="2.2" fill="#172b38"/><circle cx="730" cy="390" r="2.2" fill="#172b38"/><circle cx="700" cy="490" r="2.2" fill="#172b38"/><circle cx="590" cy="330" r="2.2" fill="#172b38"/><circle cx="930" cy="240" r="2.2" fill="#172b38"/><circle cx="800" cy="310" r="2.2" fill="#172b38"/><circle cx="810" cy="110" r="2.2" fill="#172b38"/><circle cx="730" cy="280" r="2.2" fill="#172b38"/><circle cx="700" cy="180" r="2.2" fill="#172b38"/><circle cx="310" cy="530" r="2.2" fill="#172b38"/><circle cx="300" cy="510" r="2.2" fill="#172b38"/><circle cx="280" cy="530" r="2.2" fill="#172b38"/><circle cx="180" cy="640" r="2.2" fill="#172b38"/><circle cx="180" cy="540" r="2.2" fill="#172b38"/><circle cx="1100" cy="700" r="2.2" fill="#172b38"/><circle cx="1060" cy="710" r="2.2" fill="#172b38"/><circle cx="950" cy="740" r="2.2" fill="#172b38"/><circle cx="830" cy="770" r="2.2" fill="#172b38"/><circle cx="710" cy="800" r="2.2" fill="#172b38"/><circle cx="620" cy="800" r="2.2" fill="#172b38"/><circle cx="540" cy="790" r="2.2" fill="#172b38"/><circle cx="450" cy="790" r="2.2" fill="#172b38"/><circle cx="320" cy="800" r="2.2" fill="#172b38"/><circle cx="190" cy="820" r="2.2" fill="#172b38"/><circle cx="100" cy="830" r="2.2" fill="#172b38"/><circle cx="190" cy="550" r="2.2" fill="#172b38"/><circle cx="180" cy="560" r="2.2" fill="#172b38"/><circle cx="210" cy="590" r="2.2" fill="#172b38"/><circle cx="180" cy="620" r="2.2" fill="#172b38"/><circle cx="150" cy="590" r="2.2" fill="#172b38"/><circle cx="160" cy="550" r="2.2" fill="#172b38"/><circle cx="170" cy="430" r="2.2" fill="#172b38"/><circle cx="160" cy="420" r="2.2" fill="#172b38"/><circle cx="180" cy="400" r="2.2" fill="#172b38"/><circle cx="160" cy="370" r="2.2" fill="#172b38"/><circle cx="140" cy="400" r="2.2" fill="#172b38"/><circle cx="150" cy="430" r="2.2" fill="#172b38"/><circle cx="1100" cy="460" r="2.2" fill="#172b38"/><circle cx="1020" cy="300" r="2.2" fill="#172b38"/><circle cx="1060" cy="400" r="2.2" fill="#172b38"/><circle cx="1100" cy="310" r="2.2" fill="#172b38"/><circle cx="190" cy="530" r="2.2" fill="#172b38"/><circle cx="170" cy="520" r="2.2" fill="#172b38"/><circle cx="200" cy="490" r="2.2" fill="#172b38"/><circle cx="170" cy="460" r="2.2" fill="#172b38"/><circle cx="140" cy="490" r="2.2" fill="#172b38"/><circle cx="160" cy="530" r="2.2" fill="#172b38"/><circle cx="160" cy="440" r="2.2" fill="#172b38"/><circle cx="160" cy="350" r="2.2" fill="#172b38"/><circle cx="480" cy="100" r="2.2" fill="#172b38"/><circle cx="480" cy="190" r="2.2" fill="#172b38"/><circle cx="600" cy="120" r="2.2" fill="#172b38"/><circle cx="490" cy="210" r="2.2" fill="#172b38"/><circle cx="260" cy="210" r="2.2" fill="#172b38"/><circle cx="340" cy="100" r="2.2" fill="#172b38"/><circle cx="230" cy="590" r="2.2" fill="#172b38"/><circle cx="130" cy="590" r="2.2" fill="#172b38"/><circle cx="1100" cy="480" r="2.2" fill="#172b38"/><circle cx="1100" cy="520" r="2.2" fill="#172b38"/><circle cx="610" cy="320" r="2.2" fill="#172b38"/><circle cx="210" cy="310" r="2.2" fill="#172b38"/><circle cx="250" cy="210" r="2.2" fill="#172b38"/><circle cx="330" cy="380" r="2.2" fill="#172b38"/><circle cx="320" cy="170" r="2.2" fill="#172b38"/><circle cx="440" cy="240" r="2.2" fill="#172b38"/><circle cx="800" cy="1020" r="2.2" fill="#172b38"/><circle cx="800" cy="1100" r="2.2" fill="#172b38"/><circle cx="830" cy="1070" r="2.2" fill="#172b38"/><circle cx="800" cy="1040" r="2.2" fill="#172b38"/><circle cx="770" cy="1070" r="2.2" fill="#172b38"/><circle cx="600" cy="300" r="2.2" fill="#172b38"/><circle cx="480" cy="230" r="2.2" fill="#172b38"/><circle cx="490" cy="440" r="2.2" fill="#172b38"/><circle cx="410" cy="270" r="2.2" fill="#172b38"/><circle cx="380" cy="370" r="2.2" fill="#172b38"/><circle cx="1100" cy="910" r="2.2" fill="#172b38"/><circle cx="1080" cy="930" r="2.2" fill="#172b38"/><circle cx="1050" cy="900" r="2.2" fill="#172b38"/><circle cx="1080" cy="870" r="2.2" fill="#172b38"/><circle cx="1100" cy="890" r="2.2" fill="#172b38"/><circle cx="1100" cy="900" r="2.2" fill="#172b38"/><circle cx="1030" cy="900" r="2.2" fill="#172b38"/><circle cx="250" cy="630" r="2.2" fill="#172b38"/><circle cx="290" cy="670" r="2.2" fill="#172b38"/><circle cx="330" cy="630" r="2.2" fill="#172b38"/><circle cx="290" cy="590" r="2.2" fill="#172b38"/><circle cx="690" cy="800" r="2.2" fill="#172b38"/><circle cx="660" cy="800" r="2.2" fill="#172b38"/><circle cx="650" cy="740" r="2.2" fill="#172b38"/><circle cx="900" cy="1100" r="2.2" fill="#172b38"/><circle cx="900" cy="1000" r="2.2" fill="#172b38"/><circle cx="460" cy="1070" r="2.2" fill="#172b38"/><circle cx="420" cy="1100" r="2.2" fill="#172b38"/><circle cx="360" cy="480" r="2.2" fill="#172b38"/><circle cx="240" cy="480" r="2.2" fill="#172b38"/><circle cx="630" cy="800" r="2.2" fill="#172b38"/><circle cx="600" cy="800" r="2.2" fill="#172b38"/><circle cx="590" cy="740" r="2.2" fill="#172b38"/><circle cx="1100" cy="640" r="2.2" fill="#172b38"/><circle cx="840" cy="800" r="2.2" fill="#172b38"/><circle cx="630" cy="1100" r="2.2" fill="#172b38"/><circle cx="230" cy="1100" r="2.2" fill="#172b38"/><circle cx="470" cy="350" r="2.2" fill="#172b38"/><circle cx="450" cy="410" r="2.2" fill="#172b38"/><circle cx="400" cy="410" r="2.2" fill="#172b38"/><circle cx="440" cy="440" r="2.2" fill="#172b38"/><circle cx="430" cy="500" r="2.2" fill="#172b38"/><circle cx="470" cy="470" r="2.2" fill="#172b38"/><circle cx="520" cy="500" r="2.2" fill="#172b38"/><circle cx="510" cy="440" r="2.2" fill="#172b38"/><circle cx="550" cy="410" r="2.2" fill="#172b38"/><circle cx="490" cy="410" r="2.2" fill="#172b38"/><circle cx="740" cy="550" r="2.2" fill="#172b38"/><circle cx="750" cy="600" r="2.2" fill="#172b38"/><circle cx="800" cy="580" r="2.2" fill="#172b38"/><circle cx="370" cy="100" r="2.2" fill="#172b38"/><circle cx="320" cy="130" r="2.2" fill="#172b38"/><circle cx="320" cy="100" r="2.2" fill="#172b38"/><circle cx="530" cy="690" r="2.2" fill="#172b38"/><circle cx="550" cy="700" r="2.2" fill="#172b38"/><circle cx="580" cy="710" r="2.2" fill="#172b38"/><circle cx="610" cy="720" r="2.2" fill="#172b38"/><circle cx="630" cy="710" r="2.2" fill="#172b38"/><circle cx="650" cy="690" r="2.2" fill="#172b38"/><circle cx="660" cy="680" r="2.2" fill="#172b38"/><circle cx="640" cy="660" r="2.2" fill="#172b38"/><circle cx="600" cy="640" r="2.2" fill="#172b38"/><circle cx="570" cy="620" r="2.2" fill="#172b38"/><circle cx="540" cy="630" r="2.2" fill="#172b38"/><circle cx="520" cy="630" r="2.2" fill="#172b38"/><circle cx="500" cy="640" r="2.2" fill="#172b38"/><circle cx="650" cy="270" r="2.2" fill="#172b38"/><circle cx="760" cy="360" r="2.2" fill="#172b38"/><circle cx="640" cy="300" r="2.2" fill="#172b38"/><circle cx="650" cy="500" r="2.2" fill="#172b38"/><circle cx="570" cy="330" r="2.2" fill="#172b38"/><circle cx="540" cy="430" r="2.2" fill="#172b38"/><circle cx="420" cy="270" r="2.2" fill="#172b38"/><circle cx="650" cy="100" r="2.2" fill="#172b38"/><circle cx="640" cy="250" r="2.2" fill="#172b38"/><circle cx="760" cy="180" r="2.2" fill="#172b38"/><circle cx="540" cy="110" r="2.2" fill="#172b38"/><circle cx="570" cy="220" r="2.2" fill="#172b38"/><circle cx="630" cy="100" r="2.2" fill="#172b38"/></svg>