<svg xmlns="http://www.w3.org/2000/svg" width="1200" height="1200" viewBox="0 0 1200 1200"><rect width="1200" height="1200" fill="white"/><line x1="1010" y1="450" x2="990" y2="450" stroke="#172b38" stroke-width="2"/><line x1="990" y1="450" x2="980" y2="430" stroke="#172b38" stroke-width="2"/><line x1="980" y1="430" x2="990" y2="420" stroke="#172b38" stroke-width="2"/><line x1="990" y1="420" x2="1010" y2="450" stroke="#172b38" stroke-width="2"/><line x1="1010" y1="450" x2="1020" y2="430" stroke="#172b38" stroke-width="2"/><line x1="1020" y1="430" x2="1010" y2="420" stroke="#172b38" stroke-width="2"/><line x1="1010" y1="420" x2="990" y2="420" stroke="#172b38" stroke-width="2"/><line x1="100" y1="470" x2="110" y2="450" stroke="#172b38" stroke-width="2"/><line x1="110" y1="450" x2="100" y2="440" stroke="#172b38" stroke-width="2"/><line x1="840" y1="290" x2="820" y2="290" stroke="#172b38" stroke-width="2"/><line x1="820" y1="290" x2="810" y2="280" stroke="#172b38" stroke-width="2"/><line x1="810" y1="280" x2="820" y2="260" stroke="#172b38" stroke-width="2"/><line x1="820" y1="260" x2="840" y2="290" stroke="#172b38" stroke-width="2"/><line x1="840" y1="290" x2="850" y2="280" stroke="#172b38" stroke-width="2"/><line x1="850" y1="280" x2="840" y2="260" stroke="#172b38" stroke-width="2"/><line x1="840" y1="260" x2="820" y2="260" stroke="#172b38" stroke-width="2"/><line x1="850" y1="180" x2="830" y2="180" stroke="#172b38" stroke-width="2"/><line x1="830" y1="180" x2="810" y2="160" stroke="#172b38" stroke-width="2"/><line x1="810" y1="160" x2="830" y2="140" stroke="#172b38" stroke-width="2"/><line x1="830" y1="140" x2="850" y2="180" stroke="#172b38" stroke-width="2"/><line x1="850" y1="180" x2="860" y2="160" stroke="#172b38" stroke-width="2"/><line x1="860" y1="160" x2="850" y2="140" stroke="#172b38" stroke-width="2"/><line x1="850" y1="140" x2="830" y2="140" stroke="#172b38" stroke-width="2"/><line x1="770" y1="420" x2="770" y2="410" stroke="#172b38" stroke-width="2"/><line x1="770" y1="410" x2="760" y2="410" stroke="#172b38" stroke-width="2"/><line x1="760" y1="410" x2="750" y2="420" stroke="#172b38" stroke-width="2"/><line x1="750" y1="420" x2="760" y2="430" stroke="#172b38" stroke-width="2"/><line x1="760" y1="430" x2="770" y2="430" stroke="#172b38" stroke-width="2"/><line x1="770" y1="430" x2="770" y2="420" stroke="#172b38" stroke-width="2"/><line x1="200" y1="100" x2="210" y2="110" stroke="#172b38" stroke-width="2"/><line x1="210" y1="110" x2="230" y2="110" stroke="#172b38" stroke-width="2"/><line x1="230" y1="110" x2="240" y2="100" stroke="#172b38" stroke-width="2"/><line x1="150" y1="730" x2="130" y2="740" stroke="#172b38" stroke-width="2"/><line x1="130" y1="740" x2="100" y2="720" stroke="#172b38" stroke-width="2"/><line x1="100" y1="720" x2="100" y2="730" stroke="#172b38" stroke-width="2"/><line x1="750" y1="160" x2="730" y2="160" stroke="#172b38" stroke-width="2"/><line x1="730" y1="160" x2="720" y2="140" stroke="#172b38" stroke-width="2"/><line x1="720" y1="140" x2="730" y2="120" stroke="#172b38" stroke-width="2"/><line x1="730" y1="120" x2="750" y2="160" stroke="#172b38" stroke-width="2"/><line x1="750" y1="160" x2="770" y2="140" stroke="#172b38" stroke-width="2"/><line x1="770" y1="140" x2="750" y2="120" stroke="#172b38" stroke-width="2"/><line x1="750" y1="120" x2="730" y2="120" stroke="#172b38" stroke-width="2"/><line x1="330" y1="170" x2="310" y2="180" stroke="#172b38" stroke-width="2"/><line x1="310" y1="180" x2="280" y2="170" stroke="#172b38" stroke-width="2"/><line x1="280" y1="170" x2="250" y2="190" stroke="#172b38" stroke-width="2"/><line x1="310" y1="190" x2="290" y2="200" stroke="#172b38" stroke-width="2"/><line x1="290" y1="200" x2="260" y2="190" stroke="#172b38" stroke-width="2"/><line x1="260" y1="190" x2="230" y2="210" stroke="#172b38" stroke-width="2"/><line x1="100" y1="180" x2="120" y2="190" stroke="#172b38" stroke-width="2"/><line x1="120" y1="190" x2="140" y2="190" stroke="#172b38" stroke-width="2"/><line x1="770" y1="990" x2="650" y2="970" stroke="#172b38" stroke-width="2"/><line x1="650" y1="970" x2="570" y2="1000" stroke="#172b38" stroke-width="2"/><line x1="120" y1="160" x2="140" y2="190" stroke="#172b38" stroke-width="2"/><line x1="140" y1="190" x2="170" y2="170" stroke="#172b38" stroke-width="2"/><line x1="170" y1="170" x2="140" y2="160" stroke="#172b38" stroke-width="2"/><line x1="140" y1="160" x2="120" y2="160" stroke="#172b38" stroke-width="2"/><line x1="120" y1="160" x2="100" y2="170" stroke="#172b38" stroke-width="2"/><line x1="1020" y1="160" x2="1000" y2="170" stroke="#172b38" stroke-width="2"/><line x1="1000" y1="170" x2="970" y2="160" stroke="#172b38" stroke-width="2"/><line x1="970" y1="160" x2="940" y2="180" stroke="#172b38" stroke-width="2"/><line x1="650" y1="340" x2="630" y2="350" stroke="#172b38" stroke-width="2"/><line x1="630" y1="350" x2="600" y2="330" stroke="#172b38" stroke-width="2"/><line x1="600" y1="330" x2="570" y2="360" stroke="#172b38" stroke-width="2"/><line x1="550" y1="550" x2="570" y2="570" stroke="#172b38" stroke-width="2"/><line x1="570" y1="570" x2="590" y2="600" stroke="#172b38" stroke-width="2"/><line x1="590" y1="600" x2="620" y2="610" stroke="#172b38" stroke-width="2"/><line x1="620" y1="610" x2="660" y2="620" stroke="#172b38" stroke-width="2"/><line x1="660" y1="620" x2="710" y2="610" stroke="#172b38" stroke-width="2"/><line x1="710" y1="610" x2="730" y2="600" stroke="#172b38" stroke-width="2"/><line x1="730" y1="600" x2="730" y2="590" stroke="#172b38" stroke-width="2"/><line x1="730" y1="590" x2="700" y2="570" stroke="#172b38" stroke-width="2"/><line x1="700" y1="570" x2="670" y2="550" stroke="#172b38" stroke-width="2"/><line x1="670" y1="550" x2="630" y2="550" stroke="#172b38" stroke-width="2"/><line x1="630" y1="550" x2="590" y2="550" stroke="#172b38" stroke-width="2"/><line x1="590" y1="550" x2="550" y2="550" stroke="#172b38" stroke-width="2"/><line x1="330" y1="410" x2="310" y2="410" stroke="#172b38" stroke-width="2"/><line x1="310" y1="410" x2="290" y2="400" stroke="#172b38" stroke-width="2"/><line x1="290" y1="400" x2="310" y2="380" stroke="#172b38" stroke-width="2"/><line x1="310" y1="380" x2="330" y2="410" stroke="#172b38" stroke-width="2"/><line x1="330" y1="410" x2="340" y2="400" stroke="#172b38" stroke-width="2"/><line x1="340" y1="400" x2="330" y2="380" stroke="#172b38" stroke-width="2"/><line x1="330" y1="380" x2="310" y2="380" stroke="#172b38" stroke-width="2"/><line x1="880" y1="680" x2="830" y2="690" stroke="#172b38" stroke-width="2"/><line x1="830" y1="690" x2="760" y2="710" stroke="#172b38" stroke-width="2"/><line x1="760" y1="710" x2="700" y2="720" stroke="#172b38" stroke-width="2"/><line x1="700" y1="720" x2="640" y2="720" stroke="#172b38" stroke-width="2"/><line x1="640" y1="720" x2="580" y2="720" stroke="#172b38" stroke-width="2"/><line x1="580" y1="720" x2="530" y2="710" stroke="#172b38" stroke-width="2"/><line x1="530" y1="710" x2="480" y2="710" stroke="#172b38" stroke-width="2"/><line x1="480" y1="710" x2="440" y2="700" stroke="#172b38" stroke-width="2"/><line x1="440" y1="700" x2="410" y2="690" stroke="#172b38" stroke-width="2"/><line x1="140" y1="540" x2="120" y2="540" stroke="#172b38" stroke-width="2"/><line x1="120" y1="540" x2="110" y2="520" stroke="#172b38" stroke-width="2"/><line x1="110" y1="520" x2="120" y2="500" stroke="#172b38" stroke-width="2"/><line x1="120" y1="500" x2="140" y2="540" stroke="#172b38" stroke-width="2"/><line x1="140" y1="540" x2="160" y2="520" stroke="#172b38" stroke-width="2"/><line x1="160" y1="520" x2="140" y2="500" stroke="#172b38" stroke-width="2"/><line x1="140" y1="500" x2="120" y2="500" stroke="#172b38" stroke-width="2"/><line x1="1080" y1="260" x2="1070" y2="270" stroke="#172b38" stroke-width="2"/><line x1="1070" y1="270" x2="1040" y2="260" stroke="#172b38" stroke-width="2"/><line x1="1040" y1="260" x2="1020" y2="280" stroke="#172b38" stroke-width="2"/><line x1="410" y1="470" x2="390" y2="480" stroke="#172b38" stroke-width="2"/><line x1="390" y1="480" x2="350" y2="460" stroke="#172b38" stroke-width="2"/><line x1="350" y1="460" x2="310" y2="490" stroke="#172b38" stroke-width="2"/><line x1="220" y1="100" x2="230" y2="110" stroke="#172b38" stroke-width="2"/><line x1="420" y1="410" x2="400" y2="410" stroke="#172b38" stroke-width="2"/><line x1="400" y1="410" x2="390" y2="390" stroke="#172b38" stroke-width="2"/><line x1="390" y1="390" x2="400" y2="370" stroke="#172b38" stroke-width="2"/><line x1="400" y1="370" x2="420" y2="410" stroke="#172b38" stroke-width="2"/><line x1="420" y1="410" x2="440" y2="390" stroke="#172b38" stroke-width="2"/><line x1="440" y1="390" x2="420" y2="370" stroke="#172b38" stroke-width="2"/><line x1="420" y1="370" x2="400" y2="370" stroke="#172b38" stroke-width="2"/><line x1="360" y1="270" x2="340" y2="270" stroke="#172b38" stroke-width="2"/><line x1="340" y1="270" x2="330" y2="250" stroke="#172b38" stroke-width="2"/><line x1="330" y1="250" x2="340" y2="240" stroke="#172b38" stroke-width="2"/><line x1="340" y1="240" x2="360" y2="270" stroke="#172b38" stroke-width="2"/><line x1="360" y1="270" x2="380" y2="250" stroke="#172b38" stroke-width="2"/><line x1="380" y1="250" x2="360" y2="240" stroke="#172b38" stroke-width="2"/><line x1="360" y1="240" x2="340" y2="240" stroke="#172b38" stroke-width="2"/><line x1="270" y1="470" x2="250" y2="470" stroke="#172b38" stroke-width="2"/><line x1="250" y1="470" x2="240" y2="450" stroke="#172b38" stroke-width="2"/><line x1="240" y1="450" x2="250" y2="430" stroke="#172b38" stroke-width="2"/><line x1="250" y1="430" x2="270" y2="470" stroke="#172b38" stroke-width="2"/><line x1="270" y1="470" x2="280" y2="450" stroke="#172b38" stroke-width="2"/><line x1="280" y1="450" x2="270" y2="430" stroke="#172b38" stroke-width="2"/><line x1="270" y1="430" x2="250" y2="430" stroke="#172b38" stroke-width="2"/><line x1="1100" y1="820" x2="1030" y2="830" stroke="#172b38" stroke-width="2"/><line x1="1000" y1="370" x2="980" y2="370" stroke="#172b38" stroke-width="2"/><line x1="980" y1="370" x2="960" y2="350" stroke="#172b38" stroke-width="2"/><line x1="960" y1="350" x2="980" y2="340" stroke="#172b38" stroke-width="2"/><line x1="980" y1="340" x2="1000" y2="370" stroke="#172b38" stroke-width="2"/><line x1="1000" y1="370" x2="1010" y2="350" stroke="#172b38" stroke-width="2"/><line x1="1010" y1="350" x2="1000" y2="340" stroke="#172b38" stroke-width="2"/><line x1="1000" y1="340" x2="980" y2="340" stroke="#172b38" stroke-width="2"/><line x1="1100" y1="130" x2="1080" y2="100" stroke="#172b38" stroke-width="2"/><line x1="310" y1="300" x2="170" y2="280" stroke="#172b38" stroke-width="2"/><line x1="170" y1="280" x2="100" y2="300" stroke="#172b38" stroke-width="2"/><line x1="540" y1="460" x2="520" y2="460" stroke="#172b38" stroke-width="2"/><line x1="520" y1="460" x2="490" y2="440" stroke="#172b38" stroke-width="2"/><line x1="490" y1="440" x2="520" y2="430" stroke="#172b38" stroke-width="2"/><line x1="520" y1="430" x2="540" y2="460" stroke="#172b38" stroke-width="2"/><line x1="540" y1="460" x2="570" y2="440" stroke="#172b38" stroke-width="2"/><line x1="570" y1="440" x2="540" y2="430" stroke="#172b38" stroke-width="2"/><line x1="540" y1="430" x2="520" y2="430" stroke="#172b38" stroke-width="2"/><line x1="330" y1="100" x2="320" y2="110" stroke="#172b38" stroke-width="2"/><line x1="1100" y1="920" x2="1080" y2="930" stroke="#172b38" stroke-width="2"/><line x1="1080" y1="930" x2="1040" y2="910" stroke="#172b38" stroke-width="2"/><line x1="1040" y1="910" x2="1000" y2="940" stroke="#172b38" stroke-width="2"/><line x1="100" y1="980" x2="120" y2="980" stroke="#172b38" stroke-width="2"/><line x1="120" y1="980" x2="130" y2="960" stroke="#172b38" stroke-width="2"/><line x1="130" y1="960" x2="120" y2="950" stroke="#172b38" stroke-width="2"/><line x1="120" y1="950" x2="100" y2="950" stroke="#172b38" stroke-width="2"/><line x1="100" y1="950" x2="120" y2="980" stroke="#172b38" stroke-width="2"/><line x1="870" y1="1100" x2="870" y2="1000" stroke="#172b38" stroke-width="2"/><line x1="870" y1="1000" x2="870" y2="860" stroke="#172b38" stroke-width="2"/><line x1="870" y1="860" x2="890" y2="730" stroke="#172b38" stroke-width="2"/><line x1="890" y1="730" x2="940" y2="640" stroke="#172b38" stroke-width="2"/><line x1="940" y1="640" x2="1010" y2="550" stroke="#172b38" stroke-width="2"/><line x1="1010" y1="550" x2="1070" y2="460" stroke="#172b38" stroke-width="2"/><line x1="1070" y1="460" x2="1100" y2="400" stroke="#172b38" stroke-width="2"/><line x1="150" y1="690" x2="130" y2="690" stroke="#172b38" stroke-width="2"/><line x1="130" y1="690" x2="100" y2="680" stroke="#172b38" stroke-width="2"/><line x1="100" y1="680" x2="130" y2="660" stroke="#172b38" stroke-width="2"/><line x1="130" y1="660" x2="150" y2="690" stroke="#172b38" stroke-width="2"/><line x1="150" y1="690" x2="180" y2="680" stroke="#172b38" stroke-width="2"/><line x1="180" y1="680" x2="150" y2="660" stroke="#172b38" stroke-width="2"/><line x1="150" y1="660" x2="130" y2="660" stroke="#172b38" stroke-width="2"/><line x1="650" y1="250" x2="630" y2="260" stroke="#172b38" stroke-width="2"/><line x1="630" y1="260" x2="600" y2="240" stroke="#172b38" stroke-width="2"/><line x1="600" y1="240" x2="570" y2="270" stroke="#172b38" stroke-width="2"/><line x1="790" y1="420" x2="800" y2="470" stroke="#172b38" stroke-width="2"/><line x1="800" y1="470" x2="860" y2="440" stroke="#172b38" stroke-width="2"/><line x1="860" y1="440" x2="790" y2="420" stroke="#172b38" stroke-width="2"/><line x1="480" y1="610" x2="520" y2="640" stroke="#172b38" stroke-width="2"/><line x1="520" y1="640" x2="570" y2="670" stroke="#172b38" stroke-width="2"/><line x1="570" y1="670" x2="630" y2="680" stroke="#172b38" stroke-width="2"/><line x1="630" y1="680" x2="690" y2="670" stroke="#172b38" stroke-width="2"/><line x1="690" y1="670" x2="750" y2="650" stroke="#172b38" stroke-width="2"/><line x1="750" y1="650" x2="810" y2="620" stroke="#172b38" stroke-width="2"/><line x1="810" y1="620" x2="850" y2="590" stroke="#172b38" stroke-width="2"/><line x1="850" y1="590" x2="860" y2="560" stroke="#172b38" stroke-width="2"/><line x1="860" y1="560" x2="830" y2="540" stroke="#172b38" stroke-width="2"/><line x1="830" y1="540" x2="800" y2="520" stroke="#172b38" stroke-width="2"/><line x1="800" y1="520" x2="800" y2="480" stroke="#172b38" stroke-width="2"/><line x1="800" y1="480" x2="810" y2="440" stroke="#172b38" stroke-width="2"/><line x1="810" y1="440" x2="800" y2="410" stroke="#172b38" stroke-width="2"/><line x1="800" y1="410" x2="780" y2="390" stroke="#172b38" stroke-width="2"/><line x1="780" y1="390" x2="750" y2="370" stroke="#172b38" stroke-width="2"/><line x1="750" y1="370" x2="720" y2="370" stroke="#172b38" stroke-width="2"/><line x1="720" y1="370" x2="700" y2="390" stroke="#172b38" stroke-width="2"/><line x1="700" y1="390" x2="690" y2="420" stroke="#172b38" stroke-width="2"/><line x1="690" y1="420" x2="700" y2="440" stroke="#172b38" stroke-width="2"/><line x1="700" y1="440" x2="700" y2="470" stroke="#172b38" stroke-width="2"/><line x1="700" y1="470" x2="690" y2="500" stroke="#172b38" stroke-width="2"/><line x1="690" y1="500" x2="670" y2="520" stroke="#172b38" stroke-width="2"/><line x1="670" y1="520" x2="630" y2="510" stroke="#172b38" stroke-width="2"/><line x1="630" y1="510" x2="590" y2="500" stroke="#172b38" stroke-width="2"/><line x1="590" y1="500" x2="540" y2="510" stroke="#172b38" stroke-width="2"/><line x1="540" y1="510" x2="500" y2="530" stroke="#172b38" stroke-width="2"/><line x1="500" y1="530" x2="480" y2="570" stroke="#172b38" stroke-width="2"/><line x1="480" y1="570" x2="480" y2="610" stroke="#172b38" stroke-width="2"/><line x1="970" y1="370" x2="940" y2="380" stroke="#172b38" stroke-width="2"/><line x1="940" y1="380" x2="900" y2="360" stroke="#172b38" stroke-width="2"/><line x1="900" y1="360" x2="860" y2="390" stroke="#172b38" stroke-width="2"/><line x1="640" y1="180" x2="560" y2="170" stroke="#172b38" stroke-width="2"/><line x1="560" y1="170" x2="480" y2="160" stroke="#172b38" stroke-width="2"/><line x1="480" y1="160" x2="370" y2="190" stroke="#172b38" stroke-width="2"/><line x1="1100" y1="900" x2="1080" y2="880" stroke="#172b38" stroke-width="2"/><line x1="1080" y1="880" x2="1100" y2="870" stroke="#172b38" stroke-width="2"/><line x1="760" y1="320" x2="740" y2="320" stroke="#172b38" stroke-width="2"/><line x1="740" y1="320" x2="710" y2="300" stroke="#172b38" stroke-width="2"/><line x1="710" y1="300" x2="740" y2="290" stroke="#172b38" stroke-width="2"/><line x1="740" y1="290" x2="760" y2="320" stroke="#172b38" stroke-width="2"/><line x1="760" y1="320" x2="790" y2="300" stroke="#172b38" stroke-width="2"/><line x1="790" y1="300" x2="760" y2="290" stroke="#172b38" stroke-width="2"/><line x1="760" y1="290" x2="740" y2="290" stroke="#172b38" stroke-width="2"/><line x1="600" y1="360" x2="580" y2="370" stroke="#172b38" stroke-width="2"/><line x1="580" y1="370" x2="550" y2="360" stroke="#172b38" stroke-width="2"/><line x1="550" y1="360" x2="520" y2="380" stroke="#172b38" stroke-width="2"/><line x1="1010" y1="250" x2="990" y2="250" stroke="#172b38" stroke-width="2"/><line x1="990" y1="250" x2="960" y2="230" stroke="#172b38" stroke-width="2"/><line x1="960" y1="230" x2="990" y2="210" stroke="#172b38" stroke-width="2"/><line x1="990" y1="210" x2="1010" y2="250" stroke="#172b38" stroke-width="2"/><line x1="1010" y1="250" x2="1040" y2="230" stroke="#172b38" stroke-width="2"/><line x1="1040" y1="230" x2="1010" y2="210" stroke="#172b38" stroke-width="2"/><line x1="1010" y1="210" x2="990" y2="210" stroke="#172b38" stroke-width="2"/><line x1="440" y1="320" x2="420" y2="320" stroke="#172b38" stroke-width="2"/><line x1="420" y1="320" x2="400" y2="300" stroke="#172b38" stroke-width="2"/><line x1="400" y1="300" x2="420" y2="290" stroke="#172b38" stroke-width="2"/><line x1="420" y1="290" x2="440" y2="320" stroke="#172b38" stroke-width="2"/><line x1="440" y1="320" x2="460" y2="300" stroke="#172b38" stroke-width="2"/><line x1="460" y1="300" x2="440" y2="290" stroke="#172b38" stroke-width="2"/><line x1="440" y1="290" x2="420" y2="290" stroke="#172b38" stroke-width="2"/><line x1="460" y1="460" x2="440" y2="470" stroke="#172b38" stroke-width="2"/><line x1="440" y1="470" x2="420" y2="460" stroke="#172b38" stroke-width="2"/><line x1="420" y1="460" x2="390" y2="480" stroke="#172b38" stroke-width="2"/><circle cx="1010" cy="450" r="2.2" fill="#172b38"/><circle cx="990" cy="450" r="2.2" fill="#172b38"/><circle cx="980" cy="430" r="2.2" fill="#172b38"/><circle cx="990" cy="420" r="2.2" fill="#172b38"/><circle cx="1020" cy="430" r="2.2" fill="#172b38"/><circle cx="1010" cy="420" r="2.2" fill="#172b38"/><circle cx="100" cy="470" r="2.2" fill="#172b38"/><circle cx="110" cy="450" r="2.2" fill="#172b38"/><circle cx="100" cy="440" r="2.2" fill="#172b38"/><circle cx="840" cy="290" r="2.2" fill="#172b38"/><circle cx="820" cy="290" r="2.2" fill="#172b38"/><circle cx="810" cy="280" r="2.2" fill="#172b38"/><circle cx="820" cy="260" r="2.2" fill="#172b38"/><circle cx="850" cy="280" r="2.2" fill="#172b38"/><circle cx="840" cy="260" r="2.2" fill="#172b38"/><circle cx="850" cy="180" r="2.2" fill="#172b38"/><circle cx="830" cy="180" r="2.2" fill="#172b38"/><circle cx="810" cy="160" r="2.2" fill="#172b38"/><circle cx="830" cy="140" r="2.2" fill="#172b38"/><circle cx="860" cy="160" r="2.2" fill="#172b38"/><circle cx="850" cy="140" r="2.2" fill="#172b38"/><circle cx="770" cy="420" r="2.2" fill="#172b38"/><circle cx="770" cy="410" r="2.2" fill="#172b38"/><circle cx="760" cy="410" r="2.2" fill="#172b38"/><circle cx="750" cy="420" r="2.2" fill="#172b38"/><circle cx="760" cy="430" r="2.2" fill="#172b38"/><circle cx="770" cy="430" r="2.2" fill="#172b38"/><circle cx="200" cy="100" r="2.2" fill="#172b38"/><circle cx="210" cy="110" r="2.2" fill="#172b38"/><circle cx="230" cy="110" r="2.2" fill="#172b38"/><circle cx="240" cy="100" r="2.2" fill="#172b38"/><circle cx="150" cy="730" r="2.2" fill="#172b38"/><circle cx="130" cy="740" r="2.2" fill="#172b38"/><circle cx="100" cy="720" r="2.2" fill="#172b38"/><circle cx="100" cy="730" r="2.2" fill="#172b38"/><circle cx="750" cy="160" r="2.2" fill="#172b38"/><circle cx="730" cy="160" r="2.2" fill="#172b38"/><circle cx="720" cy="140" r="2.2" fill="#172b38"/><circle cx="730" cy="120" r="2.2" fill="#172b38"/><circle cx="770" cy="140" r="2.2" fill="#172b38"/><circle cx="750" cy="120" r="2.2" fill="#172b38"/><circle cx="330" cy="170" r="2.2" fill="#172b38"/><circle cx="310" cy="180" r="2.2" fill="#172b38"/><circle cx="280" cy="170" r="2.2" fill="#172b38"/><circle cx="250" cy="190" r="2.2" fill="#172b38"/><circle cx="310" cy="190" r="2.2" fill="#172b38"/><circle cx="290" cy="200" r="2.2" fill="#172b38"/><circle cx="260" cy="190" r="2.2" fill="#172b38"/><circle cx="230" cy="210" r="2.2" fill="#172b38"/><circle cx="100" cy="180" r="2.2" fill="#172b38"/><circle cx="120" cy="190" r="2.2" fill="#172b38"/><circle cx="140" cy="190" r="2.2" fill="#172b38"/><circle cx="770" cy="990" r="2.2" fill="#172b38"/><circle cx="650" cy="970" r="2.2" fill="#172b38"/><circle cx="570" cy="1000" r="2.2" fill="#172b38"/><circle cx="120" cy="160" r="2.2" fill="#172b38"/><circle cx="170" cy="170" r="2.2" fill="#172b38"/><circle cx="140" cy="160" r="2.2" fill="#172b38"/><circle cx="100" cy="170" r="2.2" fill="#172b38"/><circle cx="1020" cy="160" r="2.2" fill="#172b38"/><circle cx="1000" cy="170" r="2.2" fill="#172b38"/><circle cx="970" cy="160" r="2.2" fill="#172b38"/><circle cx="940" cy="180" r="2.2" fill="#172b38"/><circle cx="650" cy="340" r="2.2" fill="#172b38"/><circle cx="630" cy="350" r="2.2" fill="#172b38"/><circle cx="600" cy="330" r="2.2" fill="#172b38"/><circle cx="570" cy="360" r="2.2" fill="#172b38"/><circle cx="550" cy="550" r="2.2" fill="#172b38"/><circle cx="570" cy="570" r="2.2" fill="#172b38"/><circle cx="590" cy="600" r="2.2" fill="#172b38"/><circle cx="620" cy="610" r="2.2" fill="#172b38"/><circle cx="660" cy="620" r="2.2" fill="#172b38"/><circle cx="710" cy="610" r="2.2" fill="#172b38"/><circle cx="730" cy="600" r="2.2" fill="#172b38"/><circle cx="730" cy="590" r="2.2" fill="#172b38"/><circle cx="700" cy="570" r="2.2" fill="#172b38"/><circle cx="670" cy="550" r="2.2" fill="#172b38"/><circle cx="630" cy="550" r="2.2" fill="#172b38"/><circle cx="590" cy="550" r="2.2" fill="#172b38"/><circle cx="330" cy="410" r="2.2" fill="#172b38"/><circle cx="310" cy="410" r="2.2" fill="#172b38"/><circle cx="290" cy="400" r="2.2" fill="#172b38"/><circle cx="310" cy="380" r="2.2" fill="#172b38"/><circle cx="340" cy="400" r="2.2" fill="#172b38"/><circle cx="330" cy="380" r="2.2" fill="#172b38"/><circle cx="880" cy="680" r="2.2" fill="#172b38"/><circle cx="830" cy="690" r="2.2" fill="#172b38"/><circle cx="760" cy="710" r="2.2" fill="#172b38"/><circle cx="700" cy="720" r="2.2" fill="#172b38"/><circle cx="640" cy="720" r="2.2" fill="#172b38"/><circle cx="580" cy="720" r="2.2" fill="#172b38"/><circle cx="530" cy="710" r="2.2" fill="#172b38"/><circle cx="480" cy="710" r="2.2" fill="#172b38"/><circle cx="440" cy="700" r="2.2" fill="#172b38"/><circle cx="410" cy="690" r="2.2" fill="#172b38"/><circle cx="140" cy="540" r="2.2" fill="#172b38"/><circle cx="120" cy="540" r="2.2" fill="#172b38"/><circle cx="110" cy="520" r="2.2" fill="#172b38"/><circle cx="120" cy="500" r="2.2" fill="#172b38"/><circle cx="160" cy="520" r="2.2" fill="#172b38"/><circle cx="140" cy="500" r="2.2" fill="#172b38"/><circle cx="1080" cy="260" r="2.2" fill="#172b38"/><circle cx="1070" cy="270" r="2.2" fill="#172b38"/><circle cx="1040" cy="260" r="2.2" fill="#172b38"/><circle cx="1020" cy="280" r="2.2" fill="#172b38"/><circle cx="410" cy="470" r="2.2" fill="#172b38"/><circle cx="390" cy="480" r="2.2" fill="#172b38"/><circle cx="350" cy="460" r="2.2" fill="#172b38"/><circle cx="310" cy="490" r="2.2" fill="#172b38"/><circle cx="220" cy="100" r="2.2" fill="#172b38"/><circle cx="420" cy="410" r="2.2" fill="#172b38"/><circle cx="400" cy="410" r="2.2" fill="#172b38"/><circle cx="390" cy="390" r="2.2" fill="#172b38"/><circle cx="400" cy="370" r="2.2" fill="#172b38"/><circle cx="440" cy="390" r="2.2" fill="#172b38"/><circle cx="420" cy="370" r="2.2" fill="#172b38"/><circle cx="360" cy="270" r="2.2" fill="#172b38"/><circle cx="340" cy="270" r="2.2" fill="#172b38"/><circle cx="330" cy="250" r="2.2" fill="#172b38"/><circle cx="340" cy="240" r="2.2" fill="#172b38"/><circle cx="380" cy="250" r="2.2" fill="#172b38"/><circle cx="360" cy="240" r="2.2" fill="#172b38"/><circle cx="270" cy="470" r="2.2" fill="#172b38"/><circle cx="250" cy="470" r="2.2" fill="#172b38"/><circle cx="240" cy="450" r="2.2" fill="#172b38"/><circle cx="250" cy="430" r="2.2" fill="#172b38"/><circle cx="280" cy="450" r="2.2" fill="#172b38"/><circle cx="270" cy="430" r="2.2" fill="#172b38"/><circle cx="1100" cy="820" r="2.2" fill="#172b38"/><circle cx="1030" cy="830" r="2.2" fill="#172b38"/><circle cx="1000" cy="370" r="2.2" fill="#172b38"/><circle cx="980" cy="370" r="2.2" fill="#172b38"/><circle cx="960" cy="350" r="2.2" fill="#172b38"/><circle cx="980" cy="340" r="2.2" fill="#172b38"/><circle cx="1010" cy="350" r="2.2" fill="#172b38"/><circle cx="1000" cy="340" r="2.2" fill="#172b38"/><circle cx="1100" cy="130" r="2.2" fill="#172b38"/><circle cx="1080" cy="100" r="2.2" fill="#172b38"/><circle cx="310" cy="300" r="2.2" fill="#172b38"/><circle cx="170" cy="280" r="2.2" fill="#172b38"/><circle cx="100" cy="300" r="2.2" fill="#172b38"/><circle cx="540" cy="460" r="2.2" fill="#172b38"/><circle cx="520" cy="460" r="2.2" fill="#172b38"/><circle cx="490" cy="440" r="2.2" fill="#172b38"/><circle cx="520" cy="430" r="2.2" fill="#172b38"/><circle cx="570" cy="440" r="2.2" fill="#172b38"/><circle cx="540" cy="430" r="2.2" fill="#172b38"/><circle cx="330" cy="100" r="2.2" fill="#172b38"/><circle cx="320" cy="110" r="2.2" fill="#172b38"/><circle cx="1100" cy="920" r="2.2" fill="#172b38"/><circle cx="1080" cy="930" r="2.2" fill="#172b38"/><circle cx="1040" cy="910" r="2.2" fill="#172b38"/><circle cx="1000" cy="940" r="2.2" fill="#172b38"/><circle cx="100" cy="980" r="2.2" fill="#172b38"/><circle cx="120" cy="980" r="2.2" fill="#172b38"/><circle cx="130" cy="960" r="2.2" fill="#172b38"/><circle cx="120" cy="950" r="2.2" fill="#172b38"/><circle cx="100" cy="950" r="2.2" fill="#172b38"/><circle cx="870" cy="1100" r="2.2" fill="#172b38"/><circle cx="870" cy="1000" r="2.2" fill="#172b38"/><circle cx="870" cy="860" r="2.2" fill="#172b38"/><circle cx="890" cy="730" r="2.2" fill="#172b38"/><circle cx="940" cy="640" r="2.2" fill="#172b38"/><circle cx="1010" cy="550" r="2.2" fill="#172b38"/><circle cx="1070" cy="460" r="2.2" fill="#172b38"/><circle cx="1100" cy="400" r="2.2" fill="#172b38"/><circle cx="150" cy="690" r="2.2" fill="#172b38"/><circle cx="130" cy="690" r="2.2" fill="#172b38"/><circle cx="100" cy="680" r="2.2" fill="#172b38"/><circle cx="130" cy="660" r="2.2" fill="#172b38"/><circle cx="180" cy="680" r="2.2" fill="#172b38"/><circle cx="150" cy="660" r="2.2" fill="#172b38"/><circle cx="650" cy="250" r="2.2" fill="#172b38"/><circle cx="630" cy="260" r="2.2" fill="#172b38"/><circle cx="600" cy="240" r="2.2" fill="#172b38"/><circle cx="570" cy="270" r="2.2" fill="#172b38"/><circle cx="790" cy="420" r="2.2" fill="#172b38"/><circle cx="800" cy="470" r="2.2" fill="#172b38"/><circle cx="860" cy="440" r="2.2" fill="#172b38"/><circle cx="480" cy="610" r="2.2" fill="#172b38"/><circle cx="520" cy="640" r="2.2" fill="#172b38"/><circle cx="570" cy="670" r="2.2" fill="#172b38"/><circle cx="630" cy="680" r="2.2" fill="#172b38"/><circle cx="690" cy="670" r="2.2" fill="#172b38"/><circle cx="750" cy="650" r="2.2" fill="#172b38"/><circle cx="810" cy="620" r="2.2" fill="#172b38"/><circle cx="850" cy="590" r="2.2" fill="#172b38"/><circle cx="860" cy="560" r="2.2" fill="#172b38"/><circle cx="830" cy="540" r="2.2" fill="#172b38"/><circle cx="800" cy="520" r="2.2" fill="#172b38"/><circle cx="800" cy="480" r="2.2" fill="#172b38"/><circle cx="810" cy="440" r="2.2" fill="#172b38"/><circle cx="800" cy="410" r="2.2" fill="#172b38"/><circle cx="780" cy="390" r="2.2" fill="#172b38"/><circle cx="750" cy="370" r="2.2" fill="#172b38"/><circle cx="720" cy="370" r="2.2" fill="#172b38"/><circle cx="700" cy="390" r="2.2" fill="#172b38"/><circle cx="690" cy="420" r="2.2" fill="#172b38"/><circle cx="700" cy="440" r="2.2" fill="#172b38"/><circle cx="700" cy="470" r="2.2" fill="#172b38"/><circle cx="690" cy="500" r="2.2" fill="#172b38"/><circle cx="670" cy="520" r="2.2" fill="#172b38"/><circle cx="630" cy="510" r="2.2" fill="#172b38"/><circle cx="590" cy="500" r="2.2" fill="#172b38"/><circle cx="540" cy="510" r="2.2" fill="#172b38"/><circle cx="500" cy="530" r="2.2" fill="#172b38"/><circle cx="480" cy="570" r="2.2" fill="#172b38"/><circle cx="970" cy="370" r="2.2" fill="#172b38"/><circle cx="940" cy="380" r="2.2" fill="#172b38"/><circle cx="900" cy="360" r="2.2" fill="#172b38"/><circle cx="860" cy="390" r="2.2" fill="#172b38"/><circle cx="640" cy="180" r="2.2" fill="#172b38"/><circle cx="560" cy="170" r="2.2" fill="#172b38"/><circle cx="480" cy="160" r="2.2" fill="#172b38"/><circle cx="370" cy="190" r="2.2" fill="#172b38"/><circle cx="1100" cy="900" r="2.2" fill="#172b38"/><circle cx="1080" cy="880" r="2.2" fill="#172b38"/><circle cx="1100" cy="870" r="2.2" fill="#172b38"/><circle cx="760" cy="320" r="2.2" fill="#172b38"/><circle cx="740" cy="320" r="2.2" fill="#172b38"/><circle cx="710" cy="300" r="2.2" fill="#172b38"/><circle cx="740" cy="290" r="2.2" fill="#172b38"/><circle cx="790" cy="300" r="2.2" fill="#172b38"/><circle cx="760" cy="290" r="2.2" fill="#172b38"/><circle cx="600" cy="360" r="2.2" fill="#172b38"/><circle cx="580" cy="370" r="2.2" fill="#172b38"/><circle cx="550" cy="360" r="2.2" fill="#172b38"/><circle cx="520" cy="380" r="2.2" fill="#172b38"/><circle cx="1010" cy="250" r="2.2" fill="#172b38"/><circle cx="990" cy="250" r="2.2" fill="#172b38"/><circle cx="960" cy="230" r="2.2" fill="#172b38"/><circle cx="990" cy="210" r="2.2" fill="#172b38"/><circle cx="1040" cy="230" r="2.2" fill="#172b38"/><circle cx="1010" cy="210" r="2.2" fill="#172b38"/><circle cx="440" cy="320" r="2.2" fill="#172b38"/><circle cx="420" cy="320" r="2.2" fill="#172b38"/><circle cx="400" cy="300" r="2.2" fill="#172b38"/><circle cx="420" cy="290" r="2.2" fill="#172b38"/><circle cx="460" cy="300" r="2.2" fill="#172b38"/><circle cx="440" cy="290" r="2.2" fill="#172b38"/><circle cx="460" cy="460" r="2.2" fill="#172b38"/><circle cx="440" cy="470" r="2.2" fill="#172b38"/><circle cx="420" cy="460" r="2.2" fill="#172b38"/></svg>