<svg xmlns="http://www.w3.org/2000/svg" width="1200" height="1200" viewBox="0 0 1200 1200"><rect width="1200" height="1200" fill="white"/><circle cx="600" cy="210" r="2.2" fill="#172b38"/><circle cx="580" cy="200" r="2.2" fill="#172b38"/><circle cx="610" cy="170" r="2.2" fill="#172b38"/><circle cx="580" cy="140" r="2.2" fill="#172b38"/><circle cx="550" cy="170" r="2.2" fill="#172b38"/><circle cx="570" cy="210" r="2.2" fill="#172b38"/><circle cx="1100" cy="1060" r="2.2" fill="#172b38"/><circle cx="1070" cy="1060" r="2.2" fill="#172b38"/><circle cx="530" cy="350" r="2.2" fill="#172b38"/><circle cx="530" cy="250" r="2.2" fill="#172b38"/><circle cx="520" cy="230" r="2.2" fill="#172b38"/><circle cx="500" cy="250" r="2.2" fill="#172b38"/><circle cx="530" cy="440" r="2.2" fill="#172b38"/><circle cx="520" cy="450" r="2.2" fill="#172b38"/><circle cx="540" cy="470" r="2.2" fill="#172b38"/><circle cx="520" cy="490" r="2.2" fill="#172b38"/><circle cx="500" cy="470" r="2.2" fill="#172b38"/><circle cx="510" cy="440" r="2.2" fill="#172b38"/><circle cx="980" cy="1070" r="2.2" fill="#172b38"/><circle cx="980" cy="1100" r="2.2" fill="#172b38"/><circle cx="980" cy="1090" r="2.2" fill="#172b38"/><circle cx="990" cy="1100" r="2.2" fill="#172b38"/><circle cx="460" cy="210" r="2.2" fill="#172b38"/><circle cx="370" cy="210" r="2.2" fill="#172b38"/><circle cx="1040" cy="200" r="2.2" fill="#172b38"/><circle cx="1030" cy="220" r="2.2" fill="#172b38"/><circle cx="1010" cy="200" r="2.2" fill="#172b38"/><circle cx="1100" cy="830" r="2.2" fill="#172b38"/><circle cx="920" cy="1030" r="2.2" fill="#172b38"/><circle cx="530" cy="800" r="2.2" fill="#172b38"/><circle cx="230" cy="1100" r="2.2" fill="#172b38"/><circle cx="420" cy="250" r="2.2" fill="#172b38"/><circle cx="420" cy="160" r="2.2" fill="#172b38"/><circle cx="540" cy="340" r="2.2" fill="#172b38"/><circle cx="530" cy="320" r="2.2" fill="#172b38"/><circle cx="570" cy="360" r="2.2" fill="#172b38"/><circle cx="530" cy="400" r="2.2" fill="#172b38"/><circle cx="490" cy="360" r="2.2" fill="#172b38"/><circle cx="510" cy="340" r="2.2" fill="#172b38"/><circle cx="380" cy="990" r="2.2" fill="#172b38"/><circle cx="490" cy="940" r="2.2" fill="#172b38"/><circle cx="580" cy="960" r="2.2" fill="#172b38"/><circle cx="640" cy="1100" r="2.2" fill="#172b38"/><circle cx="690" cy="300" r="2.2" fill="#172b38"/><circle cx="600" cy="300" r="2.2" fill="#172b38"/><circle cx="530" cy="180" r="2.2" fill="#172b38"/><circle cx="520" cy="190" r="2.2" fill="#172b38"/><circle cx="540" cy="210" r="2.2" fill="#172b38"/><circle cx="520" cy="240" r="2.2" fill="#172b38"/><circle cx="490" cy="210" r="2.2" fill="#172b38"/><circle cx="500" cy="180" r="2.2" fill="#172b38"/><circle cx="560" cy="210" r="2.2" fill="#172b38"/><circle cx="470" cy="210" r="2.2" fill="#172b38"/><circle cx="1100" cy="450" r="2.2" fill="#172b38"/><circle cx="1040" cy="500" r="2.2" fill="#172b38"/><circle cx="1100" cy="470" r="2.2" fill="#172b38"/><circle cx="520" cy="510" r="2.2" fill="#172b38"/><circle cx="520" cy="430" r="2.2" fill="#172b38"/><circle cx="120" cy="600" r="2.2" fill="#172b38"/><circle cx="100" cy="600" r="2.2" fill="#172b38"/><circle cx="780" cy="370" r="2.2" fill="#172b38"/><circle cx="780" cy="500" r="2.2" fill="#172b38"/><circle cx="590" cy="360" r="2.2" fill="#172b38"/><circle cx="470" cy="360" r="2.2" fill="#172b38"/><circle cx="540" cy="310" r="2.2" fill="#172b38"/><circle cx="530" cy="330" r="2.2" fill="#172b38"/><circle cx="520" cy="310" r="2.2" fill="#172b38"/><circle cx="720" cy="200" r="2.2" fill="#172b38"/><circle cx="630" cy="200" r="2.2" fill="#172b38"/><circle cx="690" cy="160" r="2.2" fill="#172b38"/><circle cx="670" cy="180" r="2.2" fill="#172b38"/><circle cx="660" cy="160" r="2.2" fill="#172b38"/><circle cx="600" cy="130" r="2.2" fill="#172b38"/><circle cx="580" cy="150" r="2.2" fill="#172b38"/><circle cx="570" cy="130" r="2.2" fill="#172b38"/><circle cx="430" cy="330" r="2.2" fill="#172b38"/><circle cx="410" cy="340" r="2.2" fill="#172b38"/><circle cx="450" cy="380" r="2.2" fill="#172b38"/><circle cx="410" cy="420" r="2.2" fill="#172b38"/><circle cx="370" cy="380" r="2.2" fill="#172b38"/><circle cx="400" cy="330" r="2.2" fill="#172b38"/><circle cx="140" cy="760" r="2.2" fill="#172b38"/><circle cx="100" cy="760" r="2.2" fill="#172b38"/><circle cx="560" cy="470" r="2.2" fill="#172b38"/><circle cx="480" cy="470" r="2.2" fill="#172b38"/><circle cx="600" cy="450" r="2.2" fill="#172b38"/><circle cx="580" cy="430" r="2.2" fill="#172b38"/><circle cx="570" cy="450" r="2.2" fill="#172b38"/><circle cx="590" cy="470" r="2.2" fill="#172b38"/><circle cx="570" cy="490" r="2.2" fill="#172b38"/><circle cx="550" cy="470" r="2.2" fill="#172b38"/><circle cx="580" cy="440" r="2.2" fill="#172b38"/><circle cx="830" cy="250" r="2.2" fill="#172b38"/><circle cx="820" cy="290" r="2.2" fill="#172b38"/><circle cx="770" cy="300" r="2.2" fill="#172b38"/><circle cx="810" cy="330" r="2.2" fill="#172b38"/><circle cx="790" cy="370" r="2.2" fill="#172b38"/><circle cx="830" cy="350" r="2.2" fill="#172b38"/><circle cx="870" cy="370" r="2.2" fill="#172b38"/><circle cx="860" cy="330" r="2.2" fill="#172b38"/><circle cx="900" cy="300" r="2.2" fill="#172b38"/><circle cx="850" cy="290" r="2.2" fill="#172b38"/><circle cx="470" cy="380" r="2.2" fill="#172b38"/><circle cx="350" cy="380" r="2.2" fill="#172b38"/><circle cx="410" cy="440" r="2.2" fill="#172b38"/><circle cx="410" cy="320" r="2.2" fill="#172b38"/><circle cx="540" cy="260" r="2.2" fill="#172b38"/><circle cx="530" cy="270" r="2.2" fill="#172b38"/><circle cx="560" cy="300" r="2.2" fill="#172b38"/><circle cx="500" cy="300" r="2.2" fill="#172b38"/><circle cx="510" cy="260" r="2.2" fill="#172b38"/><circle cx="580" cy="220" r="2.2" fill="#172b38"/><circle cx="580" cy="120" r="2.2" fill="#172b38"/><circle cx="630" cy="170" r="2.2" fill="#172b38"/><circle cx="530" cy="170" r="2.2" fill="#172b38"/><circle cx="1030" cy="280" r="2.2" fill="#172b38"/><circle cx="1030" cy="190" r="2.2" fill="#172b38"/><circle cx="100" cy="770" r="2.2" fill="#172b38"/><circle cx="120" cy="760" r="2.2" fill="#172b38"/><circle cx="100" cy="740" r="2.2" fill="#172b38"/><circle cx="530" cy="500" r="2.2" fill="#172b38"/><circle cx="510" cy="500" r="2.2" fill="#172b38"/><circle cx="1070" cy="240" r="2.2" fill="#172b38"/><circle cx="980" cy="240" r="2.2" fill="#172b38"/><circle cx="430" cy="240" r="2.2" fill="#172b38"/><circle cx="420" cy="230" r="2.2" fill="#172b38"/><circle cx="440" cy="210" r="2.2" fill="#172b38"/><circle cx="420" cy="180" r="2.2" fill="#172b38"/><circle cx="390" cy="210" r="2.2" fill="#172b38"/><circle cx="400" cy="240" r="2.2" fill="#172b38"/><circle cx="660" cy="330" r="2.2" fill="#172b38"/><circle cx="640" cy="320" r="2.2" fill="#172b38"/><circle cx="630" cy="330" r="2.2" fill="#172b38"/><circle cx="430" cy="430" r="2.2" fill="#172b38"/><circle cx="410" cy="410" r="2.2" fill="#172b38"/><circle cx="400" cy="430" r="2.2" fill="#172b38"/><circle cx="880" cy="1100" r="2.2" fill="#172b38"/><circle cx="880" cy="930" r="2.2" fill="#172b38"/><circle cx="940" cy="930" r="2.2" fill="#172b38"/><circle cx="620" cy="930" r="2.2" fill="#172b38"/><circle cx="680" cy="930" r="2.2" fill="#172b38"/><circle cx="680" cy="1100" r="2.2" fill="#172b38"/><circle cx="630" cy="410" r="2.2" fill="#172b38"/><circle cx="530" cy="410" r="2.2" fill="#172b38"/><circle cx="650" cy="900" r="2.2" fill="#172b38"/><circle cx="830" cy="410" r="2.2" fill="#172b38"/><circle cx="730" cy="410" r="2.2" fill="#172b38"/><circle cx="730" cy="1100" r="2.2" fill="#172b38"/><circle cx="730" cy="1040" r="2.2" fill="#172b38"/><circle cx="830" cy="1040" r="2.2" fill="#172b38"/><circle cx="830" cy="1100" r="2.2" fill="#172b38"/><circle cx="690" cy="230" r="2.2" fill="#172b38"/><circle cx="670" cy="220" r="2.2" fill="#172b38"/><circle cx="700" cy="200" r="2.2" fill="#172b38"/><circle cx="670" cy="170" r="2.2" fill="#172b38"/><circle cx="650" cy="200" r="2.2" fill="#172b38"/><circle cx="660" cy="230" r="2.2" fill="#172b38"/><circle cx="130" cy="1100" r="2.2" fill="#172b38"/><circle cx="100" cy="1070" r="2.2" fill="#172b38"/><circle cx="320" cy="220" r="2.2" fill="#172b38"/><circle cx="230" cy="290" r="2.2" fill="#172b38"/><circle cx="180" cy="390" r="2.2" fill="#172b38"/><circle cx="200" cy="480" r="2.2" fill="#172b38"/><circle cx="280" cy="540" r="2.2" fill="#172b38"/><circle cx="390" cy="530" r="2.2" fill="#172b38"/><circle cx="300" cy="580" r="2.2" fill="#172b38"/><circle cx="180" cy="560" r="2.2" fill="#172b38"/><circle cx="100" cy="470" r="2.2" fill="#172b38"/><circle cx="110" cy="340" r="2.2" fill="#172b38"/><circle cx="180" cy="250" r="2.2" fill="#172b38"/><circle cx="780" cy="1100" r="2.2" fill="#172b38"/><circle cx="780" cy="1040" r="2.2" fill="#172b38"/><circle cx="670" cy="240" r="2.2" fill="#172b38"/><circle cx="670" cy="150" r="2.2" fill="#172b38"/><circle cx="130" cy="190" r="2.2" fill="#172b38"/><circle cx="100" cy="190" r="2.2" fill="#172b38"/><circle cx="110" cy="190" r="2.2" fill="#172b38"/><circle cx="100" cy="200" r="2.2" fill="#172b38"/><circle cx="800" cy="820" r="2.2" fill="#172b38"/><circle cx="780" cy="820" r="2.2" fill="#172b38"/><circle cx="760" cy="810" r="2.2" fill="#172b38"/><circle cx="740" cy="800" r="2.2" fill="#172b38"/><circle cx="720" cy="780" r="2.2" fill="#172b38"/><circle cx="690" cy="760" r="2.2" fill="#172b38"/><circle cx="670" cy="740" r="2.2" fill="#172b38"/><circle cx="640" cy="750" r="2.2" fill="#172b38"/><circle cx="620" cy="760" r="2.2" fill="#172b38"/><circle cx="590" cy="760" r="2.2" fill="#172b38"/><circle cx="570" cy="750" r="2.2" fill="#172b38"/><circle cx="560" cy="720" r="2.2" fill="#172b38"/><circle cx="540" cy="710" r="2.2" fill="#172b38"/><circle cx="510" cy="700" r="2.2" fill="#172b38"/><circle cx="480" cy="700" r="2.2" fill="#172b38"/><circle cx="460" cy="710" r="2.2" fill="#172b38"/><circle cx="450" cy="730" r="2.2" fill="#172b38"/><circle cx="440" cy="760" r="2.2" fill="#172b38"/><circle cx="420" cy="780" r="2.2" fill="#172b38"/><circle cx="410" cy="790" r="2.2" fill="#172b38"/><circle cx="380" cy="780" r="2.2" fill="#172b38"/><circle cx="360" cy="780" r="2.2" fill="#172b38"/><circle cx="340" cy="790" r="2.2" fill="#172b38"/><circle cx="310" cy="810" r="2.2" fill="#172b38"/><circle cx="300" cy="820" r="2.2" fill="#172b38"/><circle cx="560" cy="440" r="2.2" fill="#172b38"/><circle cx="540" cy="410" r="2.2" fill="#172b38"/><circle cx="520" cy="410" r="2.2" fill="#172b38"/><circle cx="600" cy="370" r="2.2" fill="#172b38"/><circle cx="580" cy="380" r="2.2" fill="#172b38"/><circle cx="610" cy="410" r="2.2" fill="#172b38"/><circle cx="550" cy="410" r="2.2" fill="#172b38"/><circle cx="570" cy="370" r="2.2" fill="#172b38"/><circle cx="1100" cy="1070" r="2.2" fill="#172b38"/><circle cx="1090" cy="1060" r="2.2" fill="#172b38"/><circle cx="1100" cy="1050" r="2.2" fill="#172b38"/><circle cx="530" cy="420" r="2.2" fill="#172b38"/><circle cx="530" cy="300" r="2.2" fill="#172b38"/><circle cx="430" cy="170" r="2.2" fill="#172b38"/><circle cx="420" cy="190" r="2.2" fill="#172b38"/><circle cx="400" cy="170" r="2.2" fill="#172b38"/><circle cx="580" cy="300" r="2.2" fill="#172b38"/><circle cx="480" cy="300" r="2.2" fill="#172b38"/><circle cx="1100" cy="400" r="2.2" fill="#172b38"/><circle cx="1040" cy="350" r="2.2" fill="#172b38"/><circle cx="1100" cy="390" r="2.2" fill="#172b38"/><circle cx="520" cy="260" r="2.2" fill="#172b38"/><circle cx="520" cy="170" r="2.2" fill="#172b38"/><circle cx="1000" cy="1080" r="2.2" fill="#172b38"/><circle cx="970" cy="1080" r="2.2" fill="#172b38"/><circle cx="580" cy="460" r="2.2" fill="#172b38"/><circle cx="580" cy="360" r="2.2" fill="#172b38"/><circle cx="1040" cy="270" r="2.2" fill="#172b38"/><circle cx="1030" cy="260" r="2.2" fill="#172b38"/><circle cx="1050" cy="240" r="2.2" fill="#172b38"/><circle cx="1030" cy="210" r="2.2" fill="#172b38"/><circle cx="1000" cy="240" r="2.2" fill="#172b38"/><circle cx="1010" cy="270" r="2.2" fill="#172b38"/><circle cx="640" cy="340" r="2.2" fill="#172b38"/><circle cx="640" cy="260" r="2.2" fill="#172b38"/><circle cx="660" cy="270" r="2.2" fill="#172b38"/><circle cx="640" cy="280" r="2.2" fill="#172b38"/><circle cx="670" cy="300" r="2.2" fill="#172b38"/><circle cx="620" cy="300" r="2.2" fill="#172b38"/><circle cx="630" cy="270" r="2.2" fill="#172b38"/></svg>