<svg xmlns="http://www.w3.org/2000/svg" width="1200" height="1200" viewBox="0 0 1200 1200"><rect width="1200" height="1200" fill="white"/><line x1="970" y1="570" x2="980" y2="540" stroke="#172b38" stroke-width="2"/><line x1="980" y1="540" x2="1000" y2="510" stroke="#172b38" stroke-width="2"/><line x1="390" y1="190" x2="450" y2="160" stroke="#172b38" stroke-width="2"/><line x1="120" y1="790" x2="190" y2="780" stroke="#172b38" stroke-width="2"/><line x1="400" y1="440" x2="340" y2="460" stroke="#172b38" stroke-width="2"/><line x1="340" y1="460" x2="320" y2="460" stroke="#172b38" stroke-width="2"/><line x1="320" y1="460" x2="250" y2="470" stroke="#172b38" stroke-width="2"/><line x1="120" y1="480" x2="210" y2="470" stroke="#172b38" stroke-width="2"/><line x1="210" y1="470" x2="240" y2="440" stroke="#172b38" stroke-width="2"/><line x1="240" y1="440" x2="330" y2="420" stroke="#172b38" stroke-width="2"/><line x1="120" y1="650" x2="200" y2="640" stroke="#172b38" stroke-width="2"/><line x1="200" y1="640" x2="230" y2="650" stroke="#172b38" stroke-width="2"/><line x1="230" y1="650" x2="330" y2="620" stroke="#172b38" stroke-width="2"/><line x1="380" y1="640" x2="340" y2="660" stroke="#172b38" stroke-width="2"/><line x1="340" y1="660" x2="320" y2="660" stroke="#172b38" stroke-width="2"/><line x1="930" y1="1090" x2="920" y2="1030" stroke="#172b38" stroke-width="2"/><line x1="920" y1="1030" x2="960" y2="1060" stroke="#172b38" stroke-width="2"/><line x1="960" y1="1060" x2="980" y2="1080" stroke="#172b38" stroke-width="2"/><line x1="1050" y1="880" x2="1050" y2="830" stroke="#172b38" stroke-width="2"/><line x1="1050" y1="830" x2="1030" y2="790" stroke="#172b38" stroke-width="2"/><line x1="1030" y1="790" x2="1020" y2="760" stroke="#172b38" stroke-width="2"/><line x1="1020" y1="760" x2="1020" y2="720" stroke="#172b38" stroke-width="2"/><line x1="1020" y1="720" x2="1010" y2="690" stroke="#172b38" stroke-width="2"/><line x1="1010" y1="690" x2="990" y2="680" stroke="#172b38" stroke-width="2"/><line x1="990" y1="680" x2="990" y2="690" stroke="#172b38" stroke-width="2"/><line x1="990" y1="690" x2="990" y2="740" stroke="#172b38" stroke-width="2"/><line x1="990" y1="740" x2="970" y2="800" stroke="#172b38" stroke-width="2"/><line x1="970" y1="800" x2="970" y2="860" stroke="#172b38" stroke-width="2"/><line x1="670" y1="740" x2="660" y2="750" stroke="#172b38" stroke-width="2"/><line x1="660" y1="750" x2="700" y2="770" stroke="#172b38" stroke-width="2"/><line x1="700" y1="770" x2="700" y2="740" stroke="#172b38" stroke-width="2"/><line x1="700" y1="740" x2="670" y2="740" stroke="#172b38" stroke-width="2"/><line x1="670" y1="740" x2="720" y2="670" stroke="#172b38" stroke-width="2"/><line x1="720" y1="670" x2="730" y2="670" stroke="#172b38" stroke-width="2"/><line x1="770" y1="930" x2="780" y2="930" stroke="#172b38" stroke-width="2"/><line x1="780" y1="930" x2="780" y2="920" stroke="#172b38" stroke-width="2"/><line x1="780" y1="920" x2="730" y2="910" stroke="#172b38" stroke-width="2"/><line x1="710" y1="830" x2="690" y2="820" stroke="#172b38" stroke-width="2"/><line x1="690" y1="820" x2="640" y2="820" stroke="#172b38" stroke-width="2"/><line x1="640" y1="820" x2="640" y2="860" stroke="#172b38" stroke-width="2"/><line x1="100" y1="580" x2="150" y2="580" stroke="#172b38" stroke-width="2"/><line x1="150" y1="580" x2="210" y2="570" stroke="#172b38" stroke-width="2"/><line x1="140" y1="510" x2="210" y2="500" stroke="#172b38" stroke-width="2"/><line x1="210" y1="500" x2="230" y2="510" stroke="#172b38" stroke-width="2"/><line x1="490" y1="850" x2="540" y2="840" stroke="#172b38" stroke-width="2"/><line x1="540" y1="840" x2="540" y2="850" stroke="#172b38" stroke-width="2"/><line x1="540" y1="850" x2="440" y2="870" stroke="#172b38" stroke-width="2"/><line x1="440" y1="870" x2="370" y2="890" stroke="#172b38" stroke-width="2"/><line x1="370" y1="890" x2="380" y2="940" stroke="#172b38" stroke-width="2"/><line x1="380" y1="940" x2="640" y2="890" stroke="#172b38" stroke-width="2"/><line x1="230" y1="580" x2="310" y2="560" stroke="#172b38" stroke-width="2"/><line x1="500" y1="740" x2="530" y2="680" stroke="#172b38" stroke-width="2"/><line x1="120" y1="690" x2="190" y2="680" stroke="#172b38" stroke-width="2"/><line x1="370" y1="700" x2="350" y2="720" stroke="#172b38" stroke-width="2"/><line x1="350" y1="720" x2="310" y2="730" stroke="#172b38" stroke-width="2"/><line x1="310" y1="730" x2="230" y2="750" stroke="#172b38" stroke-width="2"/><line x1="230" y1="750" x2="200" y2="750" stroke="#172b38" stroke-width="2"/><line x1="200" y1="750" x2="110" y2="760" stroke="#172b38" stroke-width="2"/><line x1="1030" y1="860" x2="1020" y2="850" stroke="#172b38" stroke-width="2"/><line x1="1020" y1="850" x2="1000" y2="830" stroke="#172b38" stroke-width="2"/><line x1="1000" y1="830" x2="1000" y2="810" stroke="#172b38" stroke-width="2"/><line x1="230" y1="680" x2="320" y2="660" stroke="#172b38" stroke-width="2"/><line x1="320" y1="660" x2="310" y2="700" stroke="#172b38" stroke-width="2"/><line x1="310" y1="700" x2="230" y2="720" stroke="#172b38" stroke-width="2"/><line x1="230" y1="720" x2="190" y2="710" stroke="#172b38" stroke-width="2"/><line x1="190" y1="710" x2="120" y2="730" stroke="#172b38" stroke-width="2"/><line x1="120" y1="730" x2="110" y2="710" stroke="#172b38" stroke-width="2"/><line x1="110" y1="710" x2="100" y2="720" stroke="#172b38" stroke-width="2"/><line x1="370" y1="1100" x2="360" y2="1040" stroke="#172b38" stroke-width="2"/><line x1="400" y1="500" x2="340" y2="520" stroke="#172b38" stroke-width="2"/><line x1="340" y1="520" x2="320" y2="520" stroke="#172b38" stroke-width="2"/><line x1="320" y1="520" x2="230" y2="540" stroke="#172b38" stroke-width="2"/><line x1="230" y1="540" x2="200" y2="540" stroke="#172b38" stroke-width="2"/><line x1="890" y1="630" x2="980" y2="610" stroke="#172b38" stroke-width="2"/><line x1="520" y1="510" x2="510" y2="460" stroke="#172b38" stroke-width="2"/><line x1="510" y1="460" x2="500" y2="460" stroke="#172b38" stroke-width="2"/><line x1="500" y1="460" x2="530" y2="370" stroke="#172b38" stroke-width="2"/><line x1="320" y1="490" x2="230" y2="510" stroke="#172b38" stroke-width="2"/><line x1="230" y1="510" x2="200" y2="540" stroke="#172b38" stroke-width="2"/><line x1="200" y1="540" x2="100" y2="550" stroke="#172b38" stroke-width="2"/><line x1="890" y1="1070" x2="890" y2="1060" stroke="#172b38" stroke-width="2"/><line x1="890" y1="1060" x2="850" y2="1020" stroke="#172b38" stroke-width="2"/><line x1="850" y1="1020" x2="810" y2="1020" stroke="#172b38" stroke-width="2"/><line x1="810" y1="1020" x2="760" y2="1040" stroke="#172b38" stroke-width="2"/><line x1="760" y1="1040" x2="750" y2="1060" stroke="#172b38" stroke-width="2"/><line x1="750" y1="1060" x2="730" y2="1080" stroke="#172b38" stroke-width="2"/><line x1="730" y1="1080" x2="800" y2="1070" stroke="#172b38" stroke-width="2"/><line x1="800" y1="1070" x2="830" y2="1060" stroke="#172b38" stroke-width="2"/><line x1="830" y1="1060" x2="820" y2="1050" stroke="#172b38" stroke-width="2"/><line x1="820" y1="1050" x2="750" y2="1060" stroke="#172b38" stroke-width="2"/><line x1="100" y1="410" x2="160" y2="410" stroke="#172b38" stroke-width="2"/><line x1="390" y1="570" x2="330" y2="590" stroke="#172b38" stroke-width="2"/><line x1="330" y1="590" x2="320" y2="590" stroke="#172b38" stroke-width="2"/><line x1="320" y1="590" x2="240" y2="610" stroke="#172b38" stroke-width="2"/><line x1="240" y1="610" x2="230" y2="610" stroke="#172b38" stroke-width="2"/><line x1="230" y1="610" x2="120" y2="620" stroke="#172b38" stroke-width="2"/><line x1="380" y1="370" x2="380" y2="360" stroke="#172b38" stroke-width="2"/><line x1="380" y1="360" x2="410" y2="330" stroke="#172b38" stroke-width="2"/><line x1="410" y1="330" x2="410" y2="290" stroke="#172b38" stroke-width="2"/><line x1="410" y1="290" x2="370" y2="290" stroke="#172b38" stroke-width="2"/><line x1="370" y1="290" x2="390" y2="310" stroke="#172b38" stroke-width="2"/><line x1="390" y1="310" x2="380" y2="330" stroke="#172b38" stroke-width="2"/><line x1="380" y1="330" x2="370" y2="350" stroke="#172b38" stroke-width="2"/><line x1="370" y1="350" x2="330" y2="370" stroke="#172b38" stroke-width="2"/><line x1="330" y1="370" x2="320" y2="390" stroke="#172b38" stroke-width="2"/><line x1="760" y1="630" x2="760" y2="610" stroke="#172b38" stroke-width="2"/><line x1="760" y1="610" x2="800" y2="550" stroke="#172b38" stroke-width="2"/><line x1="800" y1="550" x2="790" y2="510" stroke="#172b38" stroke-width="2"/><line x1="260" y1="120" x2="310" y2="110" stroke="#172b38" stroke-width="2"/><line x1="310" y1="110" x2="320" y2="100" stroke="#172b38" stroke-width="2"/><line x1="310" y1="240" x2="330" y2="300" stroke="#172b38" stroke-width="2"/><line x1="330" y1="300" x2="310" y2="300" stroke="#172b38" stroke-width="2"/><line x1="310" y1="300" x2="310" y2="280" stroke="#172b38" stroke-width="2"/><line x1="310" y1="280" x2="280" y2="250" stroke="#172b38" stroke-width="2"/><line x1="280" y1="250" x2="260" y2="250" stroke="#172b38" stroke-width="2"/><line x1="260" y1="250" x2="250" y2="230" stroke="#172b38" stroke-width="2"/><line x1="250" y1="230" x2="200" y2="220" stroke="#172b38" stroke-width="2"/><line x1="200" y1="220" x2="200" y2="100" stroke="#172b38" stroke-width="2"/><line x1="390" y1="150" x2="440" y2="140" stroke="#172b38" stroke-width="2"/><line x1="440" y1="140" x2="450" y2="130" stroke="#172b38" stroke-width="2"/><line x1="560" y1="1100" x2="550" y2="1000" stroke="#172b38" stroke-width="2"/><line x1="110" y1="440" x2="210" y2="440" stroke="#172b38" stroke-width="2"/><line x1="170" y1="280" x2="170" y2="270" stroke="#172b38" stroke-width="2"/><line x1="170" y1="270" x2="120" y2="230" stroke="#172b38" stroke-width="2"/><line x1="120" y1="230" x2="110" y2="220" stroke="#172b38" stroke-width="2"/><line x1="110" y1="220" x2="140" y2="220" stroke="#172b38" stroke-width="2"/><line x1="140" y1="220" x2="140" y2="100" stroke="#172b38" stroke-width="2"/><line x1="550" y1="840" x2="640" y2="860" stroke="#172b38" stroke-width="2"/><line x1="640" y1="860" x2="690" y2="870" stroke="#172b38" stroke-width="2"/><line x1="690" y1="870" x2="690" y2="880" stroke="#172b38" stroke-width="2"/><line x1="690" y1="880" x2="700" y2="880" stroke="#172b38" stroke-width="2"/><line x1="700" y1="880" x2="710" y2="940" stroke="#172b38" stroke-width="2"/><line x1="710" y1="940" x2="690" y2="970" stroke="#172b38" stroke-width="2"/><line x1="690" y1="970" x2="650" y2="980" stroke="#172b38" stroke-width="2"/><line x1="650" y1="980" x2="670" y2="1100" stroke="#172b38" stroke-width="2"/><line x1="610" y1="970" x2="640" y2="960" stroke="#172b38" stroke-width="2"/><line x1="640" y1="960" x2="680" y2="960" stroke="#172b38" stroke-width="2"/><line x1="880" y1="770" x2="880" y2="700" stroke="#172b38" stroke-width="2"/><line x1="880" y1="700" x2="870" y2="680" stroke="#172b38" stroke-width="2"/><line x1="200" y1="370" x2="210" y2="380" stroke="#172b38" stroke-width="2"/><line x1="210" y1="380" x2="260" y2="350" stroke="#172b38" stroke-width="2"/><line x1="310" y1="120" x2="290" y2="150" stroke="#172b38" stroke-width="2"/><line x1="290" y1="150" x2="260" y2="160" stroke="#172b38" stroke-width="2"/><line x1="260" y1="160" x2="260" y2="230" stroke="#172b38" stroke-width="2"/><line x1="100" y1="1080" x2="130" y2="970" stroke="#172b38" stroke-width="2"/><line x1="130" y1="970" x2="130" y2="950" stroke="#172b38" stroke-width="2"/><line x1="130" y1="950" x2="110" y2="920" stroke="#172b38" stroke-width="2"/><line x1="110" y1="920" x2="140" y2="900" stroke="#172b38" stroke-width="2"/><line x1="140" y1="900" x2="190" y2="910" stroke="#172b38" stroke-width="2"/><line x1="190" y1="910" x2="190" y2="930" stroke="#172b38" stroke-width="2"/><line x1="190" y1="930" x2="210" y2="930" stroke="#172b38" stroke-width="2"/><line x1="210" y1="930" x2="220" y2="940" stroke="#172b38" stroke-width="2"/><line x1="220" y1="940" x2="220" y2="960" stroke="#172b38" stroke-width="2"/><line x1="220" y1="960" x2="190" y2="1040" stroke="#172b38" stroke-width="2"/><line x1="190" y1="1040" x2="170" y2="1100" stroke="#172b38" stroke-width="2"/><line x1="910" y1="930" x2="890" y2="930" stroke="#172b38" stroke-width="2"/><line x1="890" y1="930" x2="870" y2="890" stroke="#172b38" stroke-width="2"/><line x1="1090" y1="970" x2="1060" y2="960" stroke="#172b38" stroke-width="2"/><line x1="1060" y1="960" x2="1050" y2="930" stroke="#172b38" stroke-width="2"/><line x1="1020" y1="120" x2="990" y2="130" stroke="#172b38" stroke-width="2"/><line x1="990" y1="130" x2="990" y2="160" stroke="#172b38" stroke-width="2"/><line x1="990" y1="160" x2="950" y2="160" stroke="#172b38" stroke-width="2"/><line x1="950" y1="160" x2="850" y2="150" stroke="#172b38" stroke-width="2"/><line x1="850" y1="150" x2="770" y2="130" stroke="#172b38" stroke-width="2"/><line x1="770" y1="130" x2="680" y2="130" stroke="#172b38" stroke-width="2"/><line x1="680" y1="130" x2="570" y2="150" stroke="#172b38" stroke-width="2"/><line x1="160" y1="320" x2="200" y2="330" stroke="#172b38" stroke-width="2"/><line x1="200" y1="330" x2="210" y2="320" stroke="#172b38" stroke-width="2"/><line x1="210" y1="320" x2="210" y2="310" stroke="#172b38" stroke-width="2"/><line x1="210" y1="310" x2="140" y2="300" stroke="#172b38" stroke-width="2"/><line x1="790" y1="780" x2="720" y2="800" stroke="#172b38" stroke-width="2"/><line x1="720" y1="800" x2="720" y2="780" stroke="#172b38" stroke-width="2"/><line x1="720" y1="780" x2="730" y2="730" stroke="#172b38" stroke-width="2"/><line x1="730" y1="730" x2="750" y2="730" stroke="#172b38" stroke-width="2"/><line x1="750" y1="730" x2="740" y2="750" stroke="#172b38" stroke-width="2"/><line x1="270" y1="900" x2="190" y2="910" stroke="#172b38" stroke-width="2"/><line x1="340" y1="1100" x2="360" y2="1040" stroke="#172b38" stroke-width="2"/><line x1="360" y1="1040" x2="460" y2="1020" stroke="#172b38" stroke-width="2"/><line x1="460" y1="1020" x2="480" y2="1020" stroke="#172b38" stroke-width="2"/><line x1="520" y1="810" x2="440" y2="800" stroke="#172b38" stroke-width="2"/><line x1="440" y1="800" x2="370" y2="800" stroke="#172b38" stroke-width="2"/><line x1="370" y1="800" x2="320" y2="810" stroke="#172b38" stroke-width="2"/><line x1="320" y1="810" x2="100" y2="840" stroke="#172b38" stroke-width="2"/><line x1="100" y1="840" x2="100" y2="850" stroke="#172b38" stroke-width="2"/><line x1="620" y1="100" x2="590" y2="110" stroke="#172b38" stroke-width="2"/><line x1="590" y1="110" x2="570" y2="150" stroke="#172b38" stroke-width="2"/><line x1="570" y1="150" x2="560" y2="170" stroke="#172b38" stroke-width="2"/><line x1="560" y1="170" x2="520" y2="180" stroke="#172b38" stroke-width="2"/><line x1="520" y1="180" x2="510" y2="200" stroke="#172b38" stroke-width="2"/><line x1="510" y1="200" x2="490" y2="210" stroke="#172b38" stroke-width="2"/><line x1="490" y1="210" x2="470" y2="230" stroke="#172b38" stroke-width="2"/><line x1="470" y1="230" x2="460" y2="230" stroke="#172b38" stroke-width="2"/><line x1="460" y1="230" x2="450" y2="260" stroke="#172b38" stroke-width="2"/><line x1="450" y1="260" x2="430" y2="280" stroke="#172b38" stroke-width="2"/><line x1="430" y1="280" x2="430" y2="340" stroke="#172b38" stroke-width="2"/><line x1="430" y1="340" x2="410" y2="360" stroke="#172b38" stroke-width="2"/><line x1="790" y1="730" x2="780" y2="720" stroke="#172b38" stroke-width="2"/><line x1="780" y1="720" x2="810" y2="670" stroke="#172b38" stroke-width="2"/><line x1="810" y1="670" x2="820" y2="670" stroke="#172b38" stroke-width="2"/></svg>