<svg xmlns="http://www.w3.org/2000/svg" width="1200" height="1200" viewBox="0 0 1200 1200"><rect width="1200" height="1200" fill="white"/><circle cx="930" cy="550" r="2.2" fill="#172b38"/><circle cx="930" cy="380" r="2.2" fill="#172b38"/><circle cx="790" cy="560" r="2.2" fill="#172b38"/><circle cx="780" cy="530" r="2.2" fill="#172b38"/><circle cx="760" cy="520" r="2.2" fill="#172b38"/><circle cx="730" cy="520" r="2.2" fill="#172b38"/><circle cx="720" cy="530" r="2.2" fill="#172b38"/><circle cx="710" cy="560" r="2.2" fill="#172b38"/><circle cx="720" cy="580" r="2.2" fill="#172b38"/><circle cx="730" cy="590" r="2.2" fill="#172b38"/><circle cx="760" cy="590" r="2.2" fill="#172b38"/><circle cx="780" cy="580" r="2.2" fill="#172b38"/><circle cx="580" cy="1090" r="2.2" fill="#172b38"/><circle cx="560" cy="1100" r="2.2" fill="#172b38"/><circle cx="540" cy="1090" r="2.2" fill="#172b38"/><circle cx="530" cy="1100" r="2.2" fill="#172b38"/><circle cx="660" cy="520" r="2.2" fill="#172b38"/><circle cx="630" cy="520" r="2.2" fill="#172b38"/><circle cx="1040" cy="380" r="2.2" fill="#172b38"/><circle cx="1010" cy="380" r="2.2" fill="#172b38"/><circle cx="620" cy="220" r="2.2" fill="#172b38"/><circle cx="600" cy="250" r="2.2" fill="#172b38"/><circle cx="620" cy="270" r="2.2" fill="#172b38"/><circle cx="650" cy="250" r="2.2" fill="#172b38"/><circle cx="100" cy="130" r="2.2" fill="#172b38"/><circle cx="120" cy="150" r="2.2" fill="#172b38"/><circle cx="150" cy="170" r="2.2" fill="#172b38"/><circle cx="180" cy="150" r="2.2" fill="#172b38"/><circle cx="150" cy="120" r="2.2" fill="#172b38"/><circle cx="100" cy="160" r="2.2" fill="#172b38"/><circle cx="110" cy="160" r="2.2" fill="#172b38"/><circle cx="150" cy="430" r="2.2" fill="#172b38"/><circle cx="130" cy="430" r="2.2" fill="#172b38"/><circle cx="630" cy="570" r="2.2" fill="#172b38"/><circle cx="470" cy="570" r="2.2" fill="#172b38"/><circle cx="900" cy="180" r="2.2" fill="#172b38"/><circle cx="580" cy="180" r="2.2" fill="#172b38"/><circle cx="870" cy="100" r="2.2" fill="#172b38"/><circle cx="870" cy="180" r="2.2" fill="#172b38"/><circle cx="950" cy="180" r="2.2" fill="#172b38"/><circle cx="950" cy="100" r="2.2" fill="#172b38"/><circle cx="160" cy="290" r="2.2" fill="#172b38"/><circle cx="160" cy="460" r="2.2" fill="#172b38"/><circle cx="270" cy="460" r="2.2" fill="#172b38"/><circle cx="270" cy="290" r="2.2" fill="#172b38"/><circle cx="100" cy="380" r="2.2" fill="#172b38"/><circle cx="110" cy="380" r="2.2" fill="#172b38"/><circle cx="110" cy="630" r="2.2" fill="#172b38"/><circle cx="100" cy="630" r="2.2" fill="#172b38"/><circle cx="320" cy="630" r="2.2" fill="#172b38"/><circle cx="320" cy="200" r="2.2" fill="#172b38"/><circle cx="310" cy="430" r="2.2" fill="#172b38"/><circle cx="280" cy="430" r="2.2" fill="#172b38"/><circle cx="650" cy="720" r="2.2" fill="#172b38"/><circle cx="620" cy="760" r="2.2" fill="#172b38"/><circle cx="880" cy="760" r="2.2" fill="#172b38"/><circle cx="860" cy="720" r="2.2" fill="#172b38"/><circle cx="810" cy="100" r="2.2" fill="#172b38"/><circle cx="1100" cy="300" r="2.2" fill="#172b38"/><circle cx="380" cy="300" r="2.2" fill="#172b38"/><circle cx="670" cy="100" r="2.2" fill="#172b38"/><circle cx="100" cy="930" r="2.2" fill="#172b38"/><circle cx="110" cy="920" r="2.2" fill="#172b38"/><circle cx="100" cy="910" r="2.2" fill="#172b38"/><circle cx="1010" cy="570" r="2.2" fill="#172b38"/><circle cx="860" cy="570" r="2.2" fill="#172b38"/><circle cx="620" cy="470" r="2.2" fill="#172b38"/><circle cx="480" cy="470" r="2.2" fill="#172b38"/><circle cx="110" cy="100" r="2.2" fill="#172b38"/><circle cx="130" cy="110" r="2.2" fill="#172b38"/><circle cx="150" cy="100" r="2.2" fill="#172b38"/><circle cx="310" cy="360" r="2.2" fill="#172b38"/><circle cx="280" cy="360" r="2.2" fill="#172b38"/><circle cx="1040" cy="450" r="2.2" fill="#172b38"/><circle cx="1010" cy="450" r="2.2" fill="#172b38"/><circle cx="930" cy="1080" r="2.2" fill="#172b38"/><circle cx="900" cy="1090" r="2.2" fill="#172b38"/><circle cx="860" cy="1070" r="2.2" fill="#172b38"/><circle cx="820" cy="1100" r="2.2" fill="#172b38"/><circle cx="470" cy="1080" r="2.2" fill="#172b38"/><circle cx="450" cy="1090" r="2.2" fill="#172b38"/><circle cx="430" cy="1080" r="2.2" fill="#172b38"/><circle cx="410" cy="1100" r="2.2" fill="#172b38"/><circle cx="130" cy="960" r="2.2" fill="#172b38"/><circle cx="110" cy="970" r="2.2" fill="#172b38"/><circle cx="100" cy="970" r="2.2" fill="#172b38"/><circle cx="740" cy="250" r="2.2" fill="#172b38"/><circle cx="740" cy="160" r="2.2" fill="#172b38"/><circle cx="870" cy="380" r="2.2" fill="#172b38"/><circle cx="870" cy="550" r="2.2" fill="#172b38"/><circle cx="1000" cy="550" r="2.2" fill="#172b38"/><circle cx="1000" cy="380" r="2.2" fill="#172b38"/><circle cx="1060" cy="590" r="2.2" fill="#172b38"/><circle cx="800" cy="590" r="2.2" fill="#172b38"/><circle cx="690" cy="160" r="2.2" fill="#172b38"/><circle cx="690" cy="250" r="2.2" fill="#172b38"/><circle cx="790" cy="250" r="2.2" fill="#172b38"/><circle cx="790" cy="160" r="2.2" fill="#172b38"/><circle cx="690" cy="590" r="2.2" fill="#172b38"/><circle cx="420" cy="590" r="2.2" fill="#172b38"/><circle cx="890" cy="1100" r="2.2" fill="#172b38"/><circle cx="880" cy="1100" r="2.2" fill="#172b38"/><circle cx="470" cy="380" r="2.2" fill="#172b38"/><circle cx="440" cy="380" r="2.2" fill="#172b38"/><circle cx="260" cy="140" r="2.2" fill="#172b38"/><circle cx="100" cy="140" r="2.2" fill="#172b38"/><circle cx="660" cy="120" r="2.2" fill="#172b38"/><circle cx="630" cy="140" r="2.2" fill="#172b38"/><circle cx="660" cy="160" r="2.2" fill="#172b38"/><circle cx="690" cy="140" r="2.2" fill="#172b38"/><circle cx="720" cy="160" r="2.2" fill="#172b38"/><circle cx="750" cy="140" r="2.2" fill="#172b38"/><circle cx="780" cy="160" r="2.2" fill="#172b38"/><circle cx="810" cy="140" r="2.2" fill="#172b38"/><circle cx="780" cy="120" r="2.2" fill="#172b38"/><circle cx="720" cy="120" r="2.2" fill="#172b38"/><circle cx="790" cy="200" r="2.2" fill="#172b38"/><circle cx="690" cy="200" r="2.2" fill="#172b38"/><circle cx="610" cy="170" r="2.2" fill="#172b38"/><circle cx="580" cy="190" r="2.2" fill="#172b38"/><circle cx="610" cy="220" r="2.2" fill="#172b38"/><circle cx="640" cy="190" r="2.2" fill="#172b38"/><circle cx="670" cy="220" r="2.2" fill="#172b38"/><circle cx="700" cy="190" r="2.2" fill="#172b38"/><circle cx="730" cy="220" r="2.2" fill="#172b38"/><circle cx="760" cy="190" r="2.2" fill="#172b38"/><circle cx="790" cy="220" r="2.2" fill="#172b38"/><circle cx="820" cy="190" r="2.2" fill="#172b38"/><circle cx="850" cy="220" r="2.2" fill="#172b38"/><circle cx="880" cy="190" r="2.2" fill="#172b38"/><circle cx="850" cy="170" r="2.2" fill="#172b38"/><circle cx="790" cy="170" r="2.2" fill="#172b38"/><circle cx="730" cy="170" r="2.2" fill="#172b38"/><circle cx="670" cy="170" r="2.2" fill="#172b38"/><circle cx="560" cy="220" r="2.2" fill="#172b38"/><circle cx="540" cy="250" r="2.2" fill="#172b38"/><circle cx="560" cy="270" r="2.2" fill="#172b38"/><circle cx="590" cy="250" r="2.2" fill="#172b38"/><circle cx="310" cy="290" r="2.2" fill="#172b38"/><circle cx="280" cy="290" r="2.2" fill="#172b38"/><circle cx="470" cy="520" r="2.2" fill="#172b38"/><circle cx="440" cy="520" r="2.2" fill="#172b38"/><circle cx="100" cy="670" r="2.2" fill="#172b38"/><circle cx="170" cy="670" r="2.2" fill="#172b38"/><circle cx="150" cy="640" r="2.2" fill="#172b38"/><circle cx="100" cy="640" r="2.2" fill="#172b38"/><circle cx="470" cy="450" r="2.2" fill="#172b38"/><circle cx="440" cy="450" r="2.2" fill="#172b38"/><circle cx="850" cy="1100" r="2.2" fill="#172b38"/><circle cx="820" cy="1090" r="2.2" fill="#172b38"/><circle cx="800" cy="1100" r="2.2" fill="#172b38"/><circle cx="1000" cy="470" r="2.2" fill="#172b38"/><circle cx="870" cy="470" r="2.2" fill="#172b38"/><circle cx="860" cy="450" r="2.2" fill="#172b38"/><circle cx="820" cy="450" r="2.2" fill="#172b38"/><circle cx="220" cy="460" r="2.2" fill="#172b38"/><circle cx="220" cy="290" r="2.2" fill="#172b38"/><circle cx="690" cy="470" r="2.2" fill="#172b38"/><circle cx="690" cy="720" r="2.2" fill="#172b38"/><circle cx="800" cy="720" r="2.2" fill="#172b38"/><circle cx="800" cy="470" r="2.2" fill="#172b38"/><circle cx="850" cy="100" r="2.2" fill="#172b38"/><circle cx="900" cy="130" r="2.2" fill="#172b38"/><circle cx="1040" cy="270" r="2.2" fill="#172b38"/><circle cx="1090" cy="300" r="2.2" fill="#172b38"/><circle cx="660" cy="450" r="2.2" fill="#172b38"/><circle cx="630" cy="450" r="2.2" fill="#172b38"/><circle cx="980" cy="240" r="2.2" fill="#172b38"/><circle cx="500" cy="240" r="2.2" fill="#172b38"/><circle cx="1100" cy="880" r="2.2" fill="#172b38"/><circle cx="1050" cy="890" r="2.2" fill="#172b38"/><circle cx="810" cy="860" r="2.2" fill="#172b38"/><circle cx="540" cy="810" r="2.2" fill="#172b38"/><circle cx="290" cy="770" r="2.2" fill="#172b38"/><circle cx="110" cy="770" r="2.2" fill="#172b38"/><circle cx="100" cy="770" r="2.2" fill="#172b38"/><circle cx="860" cy="520" r="2.2" fill="#172b38"/><circle cx="820" cy="520" r="2.2" fill="#172b38"/><circle cx="320" cy="570" r="2.2" fill="#172b38"/><circle cx="110" cy="570" r="2.2" fill="#172b38"/><circle cx="280" cy="480" r="2.2" fill="#172b38"/><circle cx="150" cy="480" r="2.2" fill="#172b38"/><circle cx="1040" cy="520" r="2.2" fill="#172b38"/><circle cx="1010" cy="520" r="2.2" fill="#172b38"/><circle cx="860" cy="220" r="2.2" fill="#172b38"/><circle cx="840" cy="250" r="2.2" fill="#172b38"/><circle cx="860" cy="270" r="2.2" fill="#172b38"/><circle cx="890" cy="250" r="2.2" fill="#172b38"/><circle cx="480" cy="380" r="2.2" fill="#172b38"/><circle cx="480" cy="550" r="2.2" fill="#172b38"/><circle cx="620" cy="550" r="2.2" fill="#172b38"/><circle cx="620" cy="380" r="2.2" fill="#172b38"/><circle cx="270" cy="370" r="2.2" fill="#172b38"/><circle cx="160" cy="370" r="2.2" fill="#172b38"/><circle cx="1060" cy="660" r="2.2" fill="#172b38"/><circle cx="800" cy="660" r="2.2" fill="#172b38"/><circle cx="550" cy="550" r="2.2" fill="#172b38"/><circle cx="550" cy="380" r="2.2" fill="#172b38"/><circle cx="100" cy="200" r="2.2" fill="#172b38"/><circle cx="360" cy="200" r="2.2" fill="#172b38"/><circle cx="350" cy="200" r="2.2" fill="#172b38"/><circle cx="300" cy="170" r="2.2" fill="#172b38"/><circle cx="240" cy="100" r="2.2" fill="#172b38"/><circle cx="630" cy="100" r="2.2" fill="#172b38"/><circle cx="580" cy="130" r="2.2" fill="#172b38"/><circle cx="450" cy="270" r="2.2" fill="#172b38"/><circle cx="400" cy="300" r="2.2" fill="#172b38"/><circle cx="800" cy="270" r="2.2" fill="#172b38"/><circle cx="780" cy="250" r="2.2" fill="#172b38"/><circle cx="800" cy="220" r="2.2" fill="#172b38"/><circle cx="830" cy="250" r="2.2" fill="#172b38"/><circle cx="680" cy="270" r="2.2" fill="#172b38"/><circle cx="660" cy="250" r="2.2" fill="#172b38"/><circle cx="680" cy="220" r="2.2" fill="#172b38"/><circle cx="710" cy="250" r="2.2" fill="#172b38"/><circle cx="860" cy="380" r="2.2" fill="#172b38"/><circle cx="820" cy="380" r="2.2" fill="#172b38"/><circle cx="690" cy="660" r="2.2" fill="#172b38"/><circle cx="420" cy="660" r="2.2" fill="#172b38"/><circle cx="660" cy="380" r="2.2" fill="#172b38"/><circle cx="630" cy="380" r="2.2" fill="#172b38"/><circle cx="320" cy="500" r="2.2" fill="#172b38"/><circle cx="110" cy="500" r="2.2" fill="#172b38"/><circle cx="1050" cy="1100" r="2.2" fill="#172b38"/><circle cx="1030" cy="1100" r="2.2" fill="#172b38"/><circle cx="1020" cy="1080" r="2.2" fill="#172b38"/><circle cx="1030" cy="1070" r="2.2" fill="#172b38"/><circle cx="1070" cy="1080" r="2.2" fill="#172b38"/><circle cx="1050" cy="1070" r="2.2" fill="#172b38"/><circle cx="820" cy="110" r="2.2" fill="#172b38"/><circle cx="660" cy="110" r="2.2" fill="#172b38"/><circle cx="1060" cy="300" r="2.2" fill="#172b38"/><circle cx="1060" cy="720" r="2.2" fill="#172b38"/><circle cx="420" cy="720" r="2.2" fill="#172b38"/><circle cx="420" cy="300" r="2.2" fill="#172b38"/><circle cx="740" cy="220" r="2.2" fill="#172b38"/><circle cx="720" cy="250" r="2.2" fill="#172b38"/><circle cx="740" cy="270" r="2.2" fill="#172b38"/><circle cx="770" cy="250" r="2.2" fill="#172b38"/><circle cx="150" cy="290" r="2.2" fill="#172b38"/><circle cx="130" cy="290" r="2.2" fill="#172b38"/><circle cx="150" cy="360" r="2.2" fill="#172b38"/><circle cx="130" cy="360" r="2.2" fill="#172b38"/></svg>