<svg xmlns="http://www.w3.org/2000/svg" width="1200" height="1200" viewBox="0 0 1200 1200"><rect width="1200" height="1200" fill="white"/><circle cx="1100" cy="910" r="2.2" fill="#172b38"/><circle cx="1080" cy="910" r="2.2" fill="#172b38"/><circle cx="950" cy="720" r="2.2" fill="#172b38"/><circle cx="920" cy="720" r="2.2" fill="#172b38"/><circle cx="490" cy="130" r="2.2" fill="#172b38"/><circle cx="490" cy="100" r="2.2" fill="#172b38"/><circle cx="530" cy="750" r="2.2" fill="#172b38"/><circle cx="530" cy="600" r="2.2" fill="#172b38"/><circle cx="640" cy="400" r="2.2" fill="#172b38"/><circle cx="620" cy="430" r="2.2" fill="#172b38"/><circle cx="640" cy="450" r="2.2" fill="#172b38"/><circle cx="670" cy="430" r="2.2" fill="#172b38"/><circle cx="440" cy="110" r="2.2" fill="#172b38"/><circle cx="450" cy="100" r="2.2" fill="#172b38"/><circle cx="450" cy="120" r="2.2" fill="#172b38"/><circle cx="680" cy="350" r="2.2" fill="#172b38"/><circle cx="660" cy="380" r="2.2" fill="#172b38"/><circle cx="680" cy="400" r="2.2" fill="#172b38"/><circle cx="710" cy="380" r="2.2" fill="#172b38"/><circle cx="670" cy="220" r="2.2" fill="#172b38"/><circle cx="670" cy="100" r="2.2" fill="#172b38"/><circle cx="580" cy="400" r="2.2" fill="#172b38"/><circle cx="560" cy="430" r="2.2" fill="#172b38"/><circle cx="580" cy="450" r="2.2" fill="#172b38"/><circle cx="610" cy="430" r="2.2" fill="#172b38"/><circle cx="100" cy="510" r="2.2" fill="#172b38"/><circle cx="200" cy="510" r="2.2" fill="#172b38"/><circle cx="200" cy="380" r="2.2" fill="#172b38"/><circle cx="100" cy="380" r="2.2" fill="#172b38"/><circle cx="470" cy="110" r="2.2" fill="#172b38"/><circle cx="460" cy="100" r="2.2" fill="#172b38"/><circle cx="760" cy="400" r="2.2" fill="#172b38"/><circle cx="740" cy="430" r="2.2" fill="#172b38"/><circle cx="760" cy="450" r="2.2" fill="#172b38"/><circle cx="790" cy="430" r="2.2" fill="#172b38"/><circle cx="790" cy="660" r="2.2" fill="#172b38"/><circle cx="760" cy="660" r="2.2" fill="#172b38"/><circle cx="580" cy="1080" r="2.2" fill="#172b38"/><circle cx="610" cy="1100" r="2.2" fill="#172b38"/><circle cx="640" cy="1080" r="2.2" fill="#172b38"/><circle cx="610" cy="1060" r="2.2" fill="#172b38"/><circle cx="650" cy="670" r="2.2" fill="#172b38"/><circle cx="650" cy="900" r="2.2" fill="#172b38"/><circle cx="750" cy="900" r="2.2" fill="#172b38"/><circle cx="750" cy="670" r="2.2" fill="#172b38"/><circle cx="790" cy="600" r="2.2" fill="#172b38"/><circle cx="760" cy="600" r="2.2" fill="#172b38"/><circle cx="690" cy="480" r="2.2" fill="#172b38"/><circle cx="690" cy="390" r="2.2" fill="#172b38"/><circle cx="510" cy="1100" r="2.2" fill="#172b38"/><circle cx="450" cy="1020" r="2.2" fill="#172b38"/><circle cx="400" cy="960" r="2.2" fill="#172b38"/><circle cx="800" cy="320" r="2.2" fill="#172b38"/><circle cx="800" cy="420" r="2.2" fill="#172b38"/><circle cx="870" cy="420" r="2.2" fill="#172b38"/><circle cx="870" cy="320" r="2.2" fill="#172b38"/><circle cx="200" cy="660" r="2.2" fill="#172b38"/><circle cx="100" cy="660" r="2.2" fill="#172b38"/><circle cx="1100" cy="930" r="2.2" fill="#172b38"/><circle cx="1040" cy="930" r="2.2" fill="#172b38"/><circle cx="1000" cy="190" r="2.2" fill="#172b38"/><circle cx="1000" cy="100" r="2.2" fill="#172b38"/><circle cx="650" cy="390" r="2.2" fill="#172b38"/><circle cx="650" cy="480" r="2.2" fill="#172b38"/><circle cx="730" cy="480" r="2.2" fill="#172b38"/><circle cx="730" cy="390" r="2.2" fill="#172b38"/><circle cx="950" cy="660" r="2.2" fill="#172b38"/><circle cx="920" cy="660" r="2.2" fill="#172b38"/><circle cx="950" cy="600" r="2.2" fill="#172b38"/><circle cx="920" cy="600" r="2.2" fill="#172b38"/><circle cx="200" cy="450" r="2.2" fill="#172b38"/><circle cx="100" cy="450" r="2.2" fill="#172b38"/><circle cx="730" cy="430" r="2.2" fill="#172b38"/><circle cx="700" cy="450" r="2.2" fill="#172b38"/><circle cx="680" cy="430" r="2.2" fill="#172b38"/><circle cx="700" cy="400" r="2.2" fill="#172b38"/><circle cx="650" cy="430" r="2.2" fill="#172b38"/><circle cx="1100" cy="820" r="2.2" fill="#172b38"/><circle cx="1090" cy="820" r="2.2" fill="#172b38"/><circle cx="610" cy="900" r="2.2" fill="#172b38"/><circle cx="590" cy="930" r="2.2" fill="#172b38"/><circle cx="810" cy="930" r="2.2" fill="#172b38"/><circle cx="790" cy="900" r="2.2" fill="#172b38"/><circle cx="1030" cy="190" r="2.2" fill="#172b38"/><circle cx="1030" cy="100" r="2.2" fill="#172b38"/><circle cx="180" cy="180" r="2.2" fill="#172b38"/><circle cx="120" cy="150" r="2.2" fill="#172b38"/><circle cx="120" cy="100" r="2.2" fill="#172b38"/><circle cx="210" cy="100" r="2.2" fill="#172b38"/><circle cx="220" cy="150" r="2.2" fill="#172b38"/><circle cx="210" cy="200" r="2.2" fill="#172b38"/><circle cx="170" cy="240" r="2.2" fill="#172b38"/><circle cx="120" cy="260" r="2.2" fill="#172b38"/><circle cx="100" cy="250" r="2.2" fill="#172b38"/><circle cx="460" cy="600" r="2.2" fill="#172b38"/><circle cx="430" cy="600" r="2.2" fill="#172b38"/><circle cx="660" cy="110" r="2.2" fill="#172b38"/><circle cx="660" cy="100" r="2.2" fill="#172b38"/><circle cx="120" cy="720" r="2.2" fill="#172b38"/><circle cx="120" cy="590" r="2.2" fill="#172b38"/><circle cx="1100" cy="670" r="2.2" fill="#172b38"/><circle cx="1000" cy="670" r="2.2" fill="#172b38"/><circle cx="1100" cy="590" r="2.2" fill="#172b38"/><circle cx="900" cy="470" r="2.2" fill="#172b38"/><circle cx="490" cy="470" r="2.2" fill="#172b38"/><circle cx="100" cy="300" r="2.2" fill="#172b38"/><circle cx="250" cy="300" r="2.2" fill="#172b38"/><circle cx="250" cy="100" r="2.2" fill="#172b38"/><circle cx="760" cy="350" r="2.2" fill="#172b38"/><circle cx="620" cy="350" r="2.2" fill="#172b38"/><circle cx="600" cy="380" r="2.2" fill="#172b38"/><circle cx="620" cy="400" r="2.2" fill="#172b38"/><circle cx="650" cy="380" r="2.2" fill="#172b38"/><circle cx="800" cy="1100" r="2.2" fill="#172b38"/><circle cx="820" cy="1040" r="2.2" fill="#172b38"/><circle cx="860" cy="960" r="2.2" fill="#172b38"/><circle cx="910" cy="670" r="2.2" fill="#172b38"/><circle cx="800" cy="670" r="2.2" fill="#172b38"/><circle cx="880" cy="150" r="2.2" fill="#172b38"/><circle cx="850" cy="100" r="2.2" fill="#172b38"/><circle cx="920" cy="760" r="2.2" fill="#172b38"/><circle cx="790" cy="760" r="2.2" fill="#172b38"/><circle cx="730" cy="750" r="2.2" fill="#172b38"/><circle cx="720" cy="730" r="2.2" fill="#172b38"/><circle cx="710" cy="720" r="2.2" fill="#172b38"/><circle cx="690" cy="720" r="2.2" fill="#172b38"/><circle cx="670" cy="730" r="2.2" fill="#172b38"/><circle cx="660" cy="750" r="2.2" fill="#172b38"/><circle cx="670" cy="770" r="2.2" fill="#172b38"/><circle cx="690" cy="790" r="2.2" fill="#172b38"/><circle cx="710" cy="790" r="2.2" fill="#172b38"/><circle cx="720" cy="770" r="2.2" fill="#172b38"/><circle cx="650" cy="780" r="2.2" fill="#172b38"/><circle cx="420" cy="780" r="2.2" fill="#172b38"/><circle cx="860" cy="750" r="2.2" fill="#172b38"/><circle cx="860" cy="600" r="2.2" fill="#172b38"/><circle cx="230" cy="100" r="2.2" fill="#172b38"/><circle cx="150" cy="180" r="2.2" fill="#172b38"/><circle cx="100" cy="120" r="2.2" fill="#172b38"/><circle cx="1100" cy="610" r="2.2" fill="#172b38"/><circle cx="1080" cy="640" r="2.2" fill="#172b38"/><circle cx="1030" cy="670" r="2.2" fill="#172b38"/><circle cx="1100" cy="980" r="2.2" fill="#172b38"/><circle cx="900" cy="960" r="2.2" fill="#172b38"/><circle cx="670" cy="960" r="2.2" fill="#172b38"/><circle cx="440" cy="990" r="2.2" fill="#172b38"/><circle cx="220" cy="1010" r="2.2" fill="#172b38"/><circle cx="100" cy="1010" r="2.2" fill="#172b38"/><circle cx="470" cy="600" r="2.2" fill="#172b38"/><circle cx="470" cy="750" r="2.2" fill="#172b38"/><circle cx="590" cy="750" r="2.2" fill="#172b38"/><circle cx="590" cy="600" r="2.2" fill="#172b38"/><circle cx="630" cy="660" r="2.2" fill="#172b38"/><circle cx="600" cy="660" r="2.2" fill="#172b38"/><circle cx="1100" cy="990" r="2.2" fill="#172b38"/><circle cx="1040" cy="990" r="2.2" fill="#172b38"/><circle cx="630" cy="720" r="2.2" fill="#172b38"/><circle cx="600" cy="720" r="2.2" fill="#172b38"/><circle cx="740" cy="350" r="2.2" fill="#172b38"/><circle cx="720" cy="380" r="2.2" fill="#172b38"/><circle cx="740" cy="400" r="2.2" fill="#172b38"/><circle cx="770" cy="380" r="2.2" fill="#172b38"/><circle cx="1010" cy="100" r="2.2" fill="#172b38"/><circle cx="1000" cy="110" r="2.2" fill="#172b38"/><circle cx="980" cy="100" r="2.2" fill="#172b38"/><circle cx="590" cy="670" r="2.2" fill="#172b38"/><circle cx="470" cy="670" r="2.2" fill="#172b38"/><circle cx="100" cy="720" r="2.2" fill="#172b38"/><circle cx="200" cy="720" r="2.2" fill="#172b38"/><circle cx="200" cy="590" r="2.2" fill="#172b38"/><circle cx="100" cy="590" r="2.2" fill="#172b38"/><circle cx="790" cy="720" r="2.2" fill="#172b38"/><circle cx="760" cy="720" r="2.2" fill="#172b38"/><circle cx="310" cy="800" r="2.2" fill="#172b38"/><circle cx="100" cy="800" r="2.2" fill="#172b38"/><circle cx="480" cy="100" r="2.2" fill="#172b38"/><circle cx="490" cy="110" r="2.2" fill="#172b38"/><circle cx="500" cy="100" r="2.2" fill="#172b38"/><circle cx="1010" cy="520" r="2.2" fill="#172b38"/><circle cx="990" cy="520" r="2.2" fill="#172b38"/><circle cx="940" cy="490" r="2.2" fill="#172b38"/><circle cx="830" cy="370" r="2.2" fill="#172b38"/><circle cx="690" cy="270" r="2.2" fill="#172b38"/><circle cx="560" cy="370" r="2.2" fill="#172b38"/><circle cx="450" cy="490" r="2.2" fill="#172b38"/><circle cx="400" cy="520" r="2.2" fill="#172b38"/><circle cx="380" cy="520" r="2.2" fill="#172b38"/><circle cx="690" cy="300" r="2.2" fill="#172b38"/><circle cx="600" cy="760" r="2.2" fill="#172b38"/><circle cx="460" cy="760" r="2.2" fill="#172b38"/><circle cx="210" cy="740" r="2.2" fill="#172b38"/><circle cx="100" cy="740" r="2.2" fill="#172b38"/><circle cx="100" cy="840" r="2.2" fill="#172b38"/><circle cx="280" cy="840" r="2.2" fill="#172b38"/><circle cx="280" cy="100" r="2.2" fill="#172b38"/><circle cx="800" cy="600" r="2.2" fill="#172b38"/><circle cx="800" cy="750" r="2.2" fill="#172b38"/><circle cx="910" cy="750" r="2.2" fill="#172b38"/><circle cx="910" cy="600" r="2.2" fill="#172b38"/><circle cx="740" cy="490" r="2.2" fill="#172b38"/><circle cx="640" cy="490" r="2.2" fill="#172b38"/><circle cx="210" cy="530" r="2.2" fill="#172b38"/><circle cx="100" cy="530" r="2.2" fill="#172b38"/><circle cx="460" cy="660" r="2.2" fill="#172b38"/><circle cx="430" cy="660" r="2.2" fill="#172b38"/><circle cx="460" cy="720" r="2.2" fill="#172b38"/><circle cx="430" cy="720" r="2.2" fill="#172b38"/><circle cx="540" cy="450" r="2.2" fill="#172b38"/><circle cx="510" cy="470" r="2.2" fill="#172b38"/><circle cx="540" cy="500" r="2.2" fill="#172b38"/><circle cx="570" cy="470" r="2.2" fill="#172b38"/><circle cx="600" cy="500" r="2.2" fill="#172b38"/><circle cx="630" cy="470" r="2.2" fill="#172b38"/><circle cx="660" cy="500" r="2.2" fill="#172b38"/><circle cx="690" cy="470" r="2.2" fill="#172b38"/><circle cx="720" cy="500" r="2.2" fill="#172b38"/><circle cx="750" cy="470" r="2.2" fill="#172b38"/><circle cx="780" cy="500" r="2.2" fill="#172b38"/><circle cx="810" cy="470" r="2.2" fill="#172b38"/><circle cx="840" cy="500" r="2.2" fill="#172b38"/><circle cx="870" cy="470" r="2.2" fill="#172b38"/><circle cx="840" cy="450" r="2.2" fill="#172b38"/><circle cx="780" cy="450" r="2.2" fill="#172b38"/><circle cx="720" cy="450" r="2.2" fill="#172b38"/><circle cx="660" cy="450" r="2.2" fill="#172b38"/><circle cx="600" cy="450" r="2.2" fill="#172b38"/><circle cx="970" cy="520" r="2.2" fill="#172b38"/><circle cx="970" cy="900" r="2.2" fill="#172b38"/><circle cx="420" cy="900" r="2.2" fill="#172b38"/><circle cx="420" cy="520" r="2.2" fill="#172b38"/><circle cx="830" cy="410" r="2.2" fill="#172b38"/><circle cx="550" cy="410" r="2.2" fill="#172b38"/><circle cx="630" cy="600" r="2.2" fill="#172b38"/><circle cx="600" cy="600" r="2.2" fill="#172b38"/><circle cx="120" cy="510" r="2.2" fill="#172b38"/><circle cx="120" cy="380" r="2.2" fill="#172b38"/><circle cx="1100" cy="890" r="2.2" fill="#172b38"/><circle cx="1090" cy="890" r="2.2" fill="#172b38"/><circle cx="1090" cy="740" r="2.2" fill="#172b38"/><circle cx="1100" cy="740" r="2.2" fill="#172b38"/><circle cx="1100" cy="1040" r="2.2" fill="#172b38"/><circle cx="1040" cy="1040" r="2.2" fill="#172b38"/><circle cx="1040" cy="670" r="2.2" fill="#172b38"/></svg>