<svg xmlns="http://www.w3.org/2000/svg" width="1200" height="1200" viewBox="0 0 1200 1200"><rect width="1200" height="1200" fill="white"/><circle cx="240" cy="1020" r="2.2" fill="#172b38"/><circle cx="130" cy="760" r="2.2" fill="#172b38"/><circle cx="880" cy="320" r="2.2" fill="#172b38"/><circle cx="910" cy="350" r="2.2" fill="#172b38"/><circle cx="940" cy="320" r="2.2" fill="#172b38"/><circle cx="910" cy="290" r="2.2" fill="#172b38"/><circle cx="130" cy="900" r="2.2" fill="#172b38"/><circle cx="100" cy="900" r="2.2" fill="#172b38"/><circle cx="240" cy="670" r="2.2" fill="#172b38"/><circle cx="100" cy="640" r="2.2" fill="#172b38"/><circle cx="590" cy="670" r="2.2" fill="#172b38"/><circle cx="580" cy="660" r="2.2" fill="#172b38"/><circle cx="550" cy="650" r="2.2" fill="#172b38"/><circle cx="500" cy="640" r="2.2" fill="#172b38"/><circle cx="460" cy="640" r="2.2" fill="#172b38"/><circle cx="410" cy="650" r="2.2" fill="#172b38"/><circle cx="380" cy="660" r="2.2" fill="#172b38"/><circle cx="370" cy="670" r="2.2" fill="#172b38"/><circle cx="380" cy="690" r="2.2" fill="#172b38"/><circle cx="410" cy="700" r="2.2" fill="#172b38"/><circle cx="460" cy="700" r="2.2" fill="#172b38"/><circle cx="500" cy="700" r="2.2" fill="#172b38"/><circle cx="550" cy="700" r="2.2" fill="#172b38"/><circle cx="580" cy="690" r="2.2" fill="#172b38"/><circle cx="1100" cy="940" r="2.2" fill="#172b38"/><circle cx="920" cy="940" r="2.2" fill="#172b38"/><circle cx="440" cy="1100" r="2.2" fill="#172b38"/><circle cx="430" cy="1090" r="2.2" fill="#172b38"/><circle cx="430" cy="1100" r="2.2" fill="#172b38"/><circle cx="460" cy="1070" r="2.2" fill="#172b38"/><circle cx="430" cy="1040" r="2.2" fill="#172b38"/><circle cx="400" cy="1070" r="2.2" fill="#172b38"/><circle cx="430" cy="1020" r="2.2" fill="#172b38"/><circle cx="650" cy="740" r="2.2" fill="#172b38"/><circle cx="650" cy="710" r="2.2" fill="#172b38"/><circle cx="660" cy="670" r="2.2" fill="#172b38"/><circle cx="670" cy="630" r="2.2" fill="#172b38"/><circle cx="670" cy="600" r="2.2" fill="#172b38"/><circle cx="680" cy="570" r="2.2" fill="#172b38"/><circle cx="690" cy="550" r="2.2" fill="#172b38"/><circle cx="700" cy="540" r="2.2" fill="#172b38"/><circle cx="720" cy="520" r="2.2" fill="#172b38"/><circle cx="740" cy="520" r="2.2" fill="#172b38"/><circle cx="740" cy="500" r="2.2" fill="#172b38"/><circle cx="740" cy="470" r="2.2" fill="#172b38"/><circle cx="730" cy="430" r="2.2" fill="#172b38"/><circle cx="680" cy="380" r="2.2" fill="#172b38"/><circle cx="630" cy="330" r="2.2" fill="#172b38"/><circle cx="590" cy="290" r="2.2" fill="#172b38"/><circle cx="550" cy="310" r="2.2" fill="#172b38"/><circle cx="500" cy="330" r="2.2" fill="#172b38"/><circle cx="460" cy="360" r="2.2" fill="#172b38"/><circle cx="460" cy="390" r="2.2" fill="#172b38"/><circle cx="470" cy="420" r="2.2" fill="#172b38"/><circle cx="480" cy="450" r="2.2" fill="#172b38"/><circle cx="550" cy="280" r="2.2" fill="#172b38"/><circle cx="530" cy="320" r="2.2" fill="#172b38"/><circle cx="480" cy="330" r="2.2" fill="#172b38"/><circle cx="520" cy="360" r="2.2" fill="#172b38"/><circle cx="510" cy="410" r="2.2" fill="#172b38"/><circle cx="550" cy="380" r="2.2" fill="#172b38"/><circle cx="600" cy="410" r="2.2" fill="#172b38"/><circle cx="580" cy="360" r="2.2" fill="#172b38"/><circle cx="620" cy="330" r="2.2" fill="#172b38"/><circle cx="570" cy="320" r="2.2" fill="#172b38"/><circle cx="850" cy="740" r="2.2" fill="#172b38"/><circle cx="840" cy="730" r="2.2" fill="#172b38"/><circle cx="810" cy="720" r="2.2" fill="#172b38"/><circle cx="770" cy="710" r="2.2" fill="#172b38"/><circle cx="720" cy="710" r="2.2" fill="#172b38"/><circle cx="680" cy="720" r="2.2" fill="#172b38"/><circle cx="650" cy="730" r="2.2" fill="#172b38"/><circle cx="640" cy="740" r="2.2" fill="#172b38"/><circle cx="650" cy="760" r="2.2" fill="#172b38"/><circle cx="680" cy="770" r="2.2" fill="#172b38"/><circle cx="720" cy="770" r="2.2" fill="#172b38"/><circle cx="770" cy="770" r="2.2" fill="#172b38"/><circle cx="810" cy="770" r="2.2" fill="#172b38"/><circle cx="840" cy="760" r="2.2" fill="#172b38"/><circle cx="840" cy="740" r="2.2" fill="#172b38"/><circle cx="840" cy="710" r="2.2" fill="#172b38"/><circle cx="830" cy="670" r="2.2" fill="#172b38"/><circle cx="820" cy="630" r="2.2" fill="#172b38"/><circle cx="820" cy="600" r="2.2" fill="#172b38"/><circle cx="810" cy="580" r="2.2" fill="#172b38"/><circle cx="800" cy="560" r="2.2" fill="#172b38"/><circle cx="790" cy="540" r="2.2" fill="#172b38"/><circle cx="760" cy="520" r="2.2" fill="#172b38"/><circle cx="990" cy="1100" r="2.2" fill="#172b38"/><circle cx="990" cy="1020" r="2.2" fill="#172b38"/><circle cx="1100" cy="1020" r="2.2" fill="#172b38"/><circle cx="1100" cy="230" r="2.2" fill="#172b38"/><circle cx="1030" cy="210" r="2.2" fill="#172b38"/><circle cx="900" cy="200" r="2.2" fill="#172b38"/><circle cx="780" cy="220" r="2.2" fill="#172b38"/><circle cx="660" cy="260" r="2.2" fill="#172b38"/><circle cx="530" cy="280" r="2.2" fill="#172b38"/><circle cx="390" cy="280" r="2.2" fill="#172b38"/><circle cx="230" cy="260" r="2.2" fill="#172b38"/><circle cx="130" cy="240" r="2.2" fill="#172b38"/><circle cx="300" cy="1100" r="2.2" fill="#172b38"/><circle cx="290" cy="1100" r="2.2" fill="#172b38"/><circle cx="330" cy="1060" r="2.2" fill="#172b38"/><circle cx="370" cy="1100" r="2.2" fill="#172b38"/><circle cx="580" cy="670" r="2.2" fill="#172b38"/><circle cx="570" cy="640" r="2.2" fill="#172b38"/><circle cx="570" cy="600" r="2.2" fill="#172b38"/><circle cx="560" cy="560" r="2.2" fill="#172b38"/><circle cx="550" cy="530" r="2.2" fill="#172b38"/><circle cx="550" cy="510" r="2.2" fill="#172b38"/><circle cx="540" cy="490" r="2.2" fill="#172b38"/><circle cx="520" cy="470" r="2.2" fill="#172b38"/><circle cx="500" cy="450" r="2.2" fill="#172b38"/><circle cx="460" cy="450" r="2.2" fill="#172b38"/><circle cx="440" cy="470" r="2.2" fill="#172b38"/><circle cx="420" cy="480" r="2.2" fill="#172b38"/><circle cx="410" cy="500" r="2.2" fill="#172b38"/><circle cx="410" cy="530" r="2.2" fill="#172b38"/><circle cx="400" cy="560" r="2.2" fill="#172b38"/><circle cx="400" cy="600" r="2.2" fill="#172b38"/><circle cx="390" cy="640" r="2.2" fill="#172b38"/><circle cx="380" cy="670" r="2.2" fill="#172b38"/><circle cx="900" cy="530" r="2.2" fill="#172b38"/><circle cx="890" cy="560" r="2.2" fill="#172b38"/><circle cx="850" cy="560" r="2.2" fill="#172b38"/><circle cx="880" cy="590" r="2.2" fill="#172b38"/><circle cx="870" cy="620" r="2.2" fill="#172b38"/><circle cx="900" cy="600" r="2.2" fill="#172b38"/><circle cx="930" cy="620" r="2.2" fill="#172b38"/><circle cx="920" cy="590" r="2.2" fill="#172b38"/><circle cx="950" cy="560" r="2.2" fill="#172b38"/><circle cx="910" cy="560" r="2.2" fill="#172b38"/><circle cx="1100" cy="1050" r="2.2" fill="#172b38"/><circle cx="1070" cy="1060" r="2.2" fill="#172b38"/><circle cx="1030" cy="1100" r="2.2" fill="#172b38"/><circle cx="500" cy="710" r="2.2" fill="#172b38"/><circle cx="500" cy="690" r="2.2" fill="#172b38"/><circle cx="480" cy="680" r="2.2" fill="#172b38"/><circle cx="460" cy="690" r="2.2" fill="#172b38"/><circle cx="460" cy="710" r="2.2" fill="#172b38"/><circle cx="460" cy="730" r="2.2" fill="#172b38"/><circle cx="480" cy="740" r="2.2" fill="#172b38"/><circle cx="500" cy="730" r="2.2" fill="#172b38"/><circle cx="770" cy="780" r="2.2" fill="#172b38"/><circle cx="760" cy="760" r="2.2" fill="#172b38"/><circle cx="740" cy="750" r="2.2" fill="#172b38"/><circle cx="730" cy="760" r="2.2" fill="#172b38"/><circle cx="720" cy="780" r="2.2" fill="#172b38"/><circle cx="730" cy="800" r="2.2" fill="#172b38"/><circle cx="740" cy="810" r="2.2" fill="#172b38"/><circle cx="760" cy="800" r="2.2" fill="#172b38"/><circle cx="1080" cy="1100" r="2.2" fill="#172b38"/><circle cx="780" cy="770" r="2.2" fill="#172b38"/><circle cx="470" cy="940" r="2.2" fill="#172b38"/><circle cx="100" cy="540" r="2.2" fill="#172b38"/><circle cx="330" cy="1100" r="2.2" fill="#172b38"/><circle cx="330" cy="1040" r="2.2" fill="#172b38"/><circle cx="100" cy="610" r="2.2" fill="#172b38"/><circle cx="140" cy="680" r="2.2" fill="#172b38"/><circle cx="120" cy="480" r="2.2" fill="#172b38"/><circle cx="250" cy="550" r="2.2" fill="#172b38"/><circle cx="140" cy="460" r="2.2" fill="#172b38"/><circle cx="590" cy="300" r="2.2" fill="#172b38"/><circle cx="630" cy="320" r="2.2" fill="#172b38"/><circle cx="670" cy="320" r="2.2" fill="#172b38"/><circle cx="700" cy="300" r="2.2" fill="#172b38"/><circle cx="720" cy="270" r="2.2" fill="#172b38"/><circle cx="710" cy="230" r="2.2" fill="#172b38"/><circle cx="680" cy="220" r="2.2" fill="#172b38"/><circle cx="640" cy="250" r="2.2" fill="#172b38"/><circle cx="530" cy="330" r="2.2" fill="#172b38"/><circle cx="480" cy="340" r="2.2" fill="#172b38"/><circle cx="450" cy="320" r="2.2" fill="#172b38"/><circle cx="430" cy="280" r="2.2" fill="#172b38"/><circle cx="440" cy="240" r="2.2" fill="#172b38"/><circle cx="470" cy="230" r="2.2" fill="#172b38"/><circle cx="530" cy="260" r="2.2" fill="#172b38"/><circle cx="100" cy="480" r="2.2" fill="#172b38"/><circle cx="180" cy="360" r="2.2" fill="#172b38"/><circle cx="220" cy="460" r="2.2" fill="#172b38"/><circle cx="300" cy="290" r="2.2" fill="#172b38"/><circle cx="290" cy="500" r="2.2" fill="#172b38"/><circle cx="410" cy="430" r="2.2" fill="#172b38"/><circle cx="300" cy="520" r="2.2" fill="#172b38"/><circle cx="100" cy="520" r="2.2" fill="#172b38"/><circle cx="230" cy="580" r="2.2" fill="#172b38"/><circle cx="800" cy="1100" r="2.2" fill="#172b38"/><circle cx="800" cy="1040" r="2.2" fill="#172b38"/><circle cx="580" cy="1100" r="2.2" fill="#172b38"/><circle cx="580" cy="1060" r="2.2" fill="#172b38"/><circle cx="100" cy="910" r="2.2" fill="#172b38"/><circle cx="110" cy="900" r="2.2" fill="#172b38"/><circle cx="100" cy="890" r="2.2" fill="#172b38"/><circle cx="1100" cy="610" r="2.2" fill="#172b38"/><circle cx="900" cy="980" r="2.2" fill="#172b38"/><circle cx="960" cy="980" r="2.2" fill="#172b38"/><circle cx="960" cy="1100" r="2.2" fill="#172b38"/><circle cx="600" cy="1100" r="2.2" fill="#172b38"/><circle cx="580" cy="1080" r="2.2" fill="#172b38"/><circle cx="560" cy="1100" r="2.2" fill="#172b38"/><circle cx="1100" cy="360" r="2.2" fill="#172b38"/><circle cx="1070" cy="360" r="2.2" fill="#172b38"/><circle cx="1100" cy="370" r="2.2" fill="#172b38"/><circle cx="1090" cy="360" r="2.2" fill="#172b38"/><circle cx="1100" cy="350" r="2.2" fill="#172b38"/><circle cx="780" cy="1100" r="2.2" fill="#172b38"/><circle cx="770" cy="1090" r="2.2" fill="#172b38"/><circle cx="800" cy="1060" r="2.2" fill="#172b38"/><circle cx="830" cy="1090" r="2.2" fill="#172b38"/><circle cx="830" cy="1100" r="2.2" fill="#172b38"/><circle cx="100" cy="460" r="2.2" fill="#172b38"/><circle cx="250" cy="370" r="2.2" fill="#172b38"/><circle cx="120" cy="430" r="2.2" fill="#172b38"/><circle cx="140" cy="230" r="2.2" fill="#172b38"/><circle cx="100" cy="310" r="2.2" fill="#172b38"/><circle cx="280" cy="670" r="2.2" fill="#172b38"/><circle cx="230" cy="680" r="2.2" fill="#172b38"/><circle cx="150" cy="690" r="2.2" fill="#172b38"/><circle cx="100" cy="700" r="2.2" fill="#172b38"/><circle cx="390" cy="1100" r="2.2" fill="#172b38"/><circle cx="270" cy="1100" r="2.2" fill="#172b38"/><circle cx="230" cy="1100" r="2.2" fill="#172b38"/><circle cx="190" cy="1060" r="2.2" fill="#172b38"/><circle cx="150" cy="1100" r="2.2" fill="#172b38"/><circle cx="910" cy="370" r="2.2" fill="#172b38"/><circle cx="910" cy="270" r="2.2" fill="#172b38"/><circle cx="710" cy="1100" r="2.2" fill="#172b38"/><circle cx="710" cy="1070" r="2.2" fill="#172b38"/><circle cx="100" cy="560" r="2.2" fill="#172b38"/><circle cx="180" cy="680" r="2.2" fill="#172b38"/><circle cx="220" cy="580" r="2.2" fill="#172b38"/><circle cx="300" cy="750" r="2.2" fill="#172b38"/><circle cx="290" cy="540" r="2.2" fill="#172b38"/><circle cx="410" cy="610" r="2.2" fill="#172b38"/><circle cx="1100" cy="340" r="2.2" fill="#172b38"/><circle cx="1090" cy="340" r="2.2" fill="#172b38"/><circle cx="720" cy="1100" r="2.2" fill="#172b38"/><circle cx="710" cy="1090" r="2.2" fill="#172b38"/><circle cx="700" cy="1100" r="2.2" fill="#172b38"/><circle cx="240" cy="1100" r="2.2" fill="#172b38"/><circle cx="240" cy="1090" r="2.2" fill="#172b38"/><circle cx="190" cy="1100" r="2.2" fill="#172b38"/><circle cx="190" cy="1040" r="2.2" fill="#172b38"/></svg>