<svg xmlns="http://www.w3.org/2000/svg" width="1200" height="1200" viewBox="0 0 1200 1200"><rect width="1200" height="1200" fill="white"/><circle cx="310" cy="540" r="2.2" fill="#172b38"/><text x="322.0" y="540.0" text-anchor="middle" dominant-baseline="central" font-family="Arial,sans-serif" font-size="11" fill="#394553">1</text><circle cx="310" cy="450" r="2.2" fill="#172b38"/><text x="322.0" y="450.0" text-anchor="middle" dominant-baseline="central" font-family="Arial,sans-serif" font-size="11" fill="#394553">2</text><circle cx="300" cy="420" r="2.2" fill="#172b38"/><text x="311.087" y="424.592" text-anchor="middle" dominant-baseline="central" font-family="Arial,sans-serif" font-size="11" fill="#394553">3</text><circle cx="980" cy="940" r="2.2" fill="#172b38"/><text x="992.0" y="940.0" text-anchor="middle" dominant-baseline="central" font-family="Arial,sans-serif" font-size="11" fill="#394553">4</text><circle cx="1010" cy="900" r="2.2" fill="#172b38"/><text x="1021.087" y="904.592" text-anchor="middle" dominant-baseline="central" font-family="Arial,sans-serif" font-size="11" fill="#394553">5</text><circle cx="1030" cy="910" r="2.2" fill="#172b38"/><text x="1042.0" y="910.0" text-anchor="middle" dominant-baseline="central" font-family="Arial,sans-serif" font-size="11" fill="#394553">6</text><circle cx="1080" cy="910" r="2.2" fill="#172b38"/><text x="1092.0" y="910.0" text-anchor="middle" dominant-baseline="central" font-family="Arial,sans-serif" font-size="11" fill="#394553">7</text><circle cx="960" cy="390" r="2.2" fill="#172b38"/><text x="972.0" y="390.0" text-anchor="middle" dominant-baseline="central" font-family="Arial,sans-serif" font-size="11" fill="#394553">8</text><circle cx="970" cy="140" r="2.2" fill="#172b38"/><text x="982.0" y="140.0" text-anchor="middle" dominant-baseline="central" font-family="Arial,sans-serif" font-size="11" fill="#394553">9</text><circle cx="190" cy="440" r="2.2" fill="#172b38"/><text x="202.0" y="440.0" text-anchor="middle" dominant-baseline="central" font-family="Arial,sans-serif" font-size="11" fill="#394553">10</text><circle cx="180" cy="500" r="2.2" fill="#172b38"/><text x="184.592" y="511.087" text-anchor="middle" dominant-baseline="central" font-family="Arial,sans-serif" font-size="11" fill="#394553">11</text><circle cx="460" cy="920" r="2.2" fill="#172b38"/><text x="472.0" y="920.0" text-anchor="middle" dominant-baseline="central" font-family="Arial,sans-serif" font-size="11" fill="#394553">12</text><circle cx="460" cy="970" r="2.2" fill="#172b38"/><text x="460.0" y="982.0" text-anchor="middle" dominant-baseline="central" font-family="Arial,sans-serif" font-size="11" fill="#394553">13</text><circle cx="470" cy="970" r="2.2" fill="#172b38"/><text x="474.592" y="981.087" text-anchor="middle" dominant-baseline="central" font-family="Arial,sans-serif" font-size="11" fill="#394553">14</text><circle cx="960" cy="120" r="2.2" fill="#172b38"/><text x="972.0" y="120.0" text-anchor="middle" dominant-baseline="central" font-family="Arial,sans-serif" font-size="11" fill="#394553">15</text><circle cx="860" cy="100" r="2.2" fill="#172b38"/><text x="872.0" y="100.0" text-anchor="middle" dominant-baseline="central" font-family="Arial,sans-serif" font-size="11" fill="#394553">16</text><circle cx="260" cy="300" r="2.2" fill="#172b38"/><text x="272.0" y="300.0" text-anchor="middle" dominant-baseline="central" font-family="Arial,sans-serif" font-size="11" fill="#394553">17</text><circle cx="260" cy="290" r="2.2" fill="#172b38"/><text x="248.913" y="294.592" text-anchor="middle" dominant-baseline="central" font-family="Arial,sans-serif" font-size="11" fill="#394553">18</text><circle cx="280" cy="290" r="2.2" fill="#172b38"/><text x="292.0" y="290.0" text-anchor="middle" dominant-baseline="central" font-family="Arial,sans-serif" font-size="11" fill="#394553">19</text><circle cx="290" cy="300" r="2.2" fill="#172b38"/><text x="301.087" y="304.592" text-anchor="middle" dominant-baseline="central" font-family="Arial,sans-serif" font-size="11" fill="#394553">20</text><circle cx="280" cy="320" r="2.2" fill="#172b38"/><text x="292.0" y="320.0" text-anchor="middle" dominant-baseline="central" font-family="Arial,sans-serif" font-size="11" fill="#394553">21</text><circle cx="280" cy="350" r="2.2" fill="#172b38"/><text x="292.0" y="350.0" text-anchor="middle" dominant-baseline="central" font-family="Arial,sans-serif" font-size="11" fill="#394553">22</text><circle cx="290" cy="410" r="2.2" fill="#172b38"/><text x="302.0" y="410.0" text-anchor="middle" dominant-baseline="central" font-family="Arial,sans-serif" font-size="11" fill="#394553">23</text><circle cx="740" cy="140" r="2.2" fill="#172b38"/><text x="751.087" y="135.408" text-anchor="middle" dominant-baseline="central" font-family="Arial,sans-serif" font-size="11" fill="#394553">24</text><circle cx="720" cy="140" r="2.2" fill="#172b38"/><text x="724.592" y="151.087" text-anchor="middle" dominant-baseline="central" font-family="Arial,sans-serif" font-size="11" fill="#394553">25</text><circle cx="720" cy="130" r="2.2" fill="#172b38"/><text x="732.0" y="130.0" text-anchor="middle" dominant-baseline="central" font-family="Arial,sans-serif" font-size="11" fill="#394553">26</text><circle cx="750" cy="120" r="2.2" fill="#172b38"/><text x="762.0" y="120.0" text-anchor="middle" dominant-baseline="central" font-family="Arial,sans-serif" font-size="11" fill="#394553">27</text><circle cx="770" cy="110" r="2.2" fill="#172b38"/><text x="782.0" y="110.0" text-anchor="middle" dominant-baseline="central" font-family="Arial,sans-serif" font-size="11" fill="#394553">28</text><circle cx="840" cy="100" r="2.2" fill="#172b38"/><text x="840.0" y="112.0" text-anchor="middle" dominant-baseline="central" font-family="Arial,sans-serif" font-size="11" fill="#394553">29</text><circle cx="220" cy="130" r="2.2" fill="#172b38"/><text x="232.0" y="130.0" text-anchor="middle" dominant-baseline="central" font-family="Arial,sans-serif" font-size="11" fill="#394553">30</text><circle cx="190" cy="100" r="2.2" fill="#172b38"/><text x="202.0" y="100.0" text-anchor="middle" dominant-baseline="central" font-family="Arial,sans-serif" font-size="11" fill="#394553">31</text><circle cx="190" cy="120" r="2.2" fill="#172b38"/><text x="202.0" y="120.0" text-anchor="middle" dominant-baseline="central" font-family="Arial,sans-serif" font-size="11" fill="#394553">32</text><circle cx="320" cy="140" r="2.2" fill="#172b38"/><text x="332.0" y="140.0" text-anchor="middle" dominant-baseline="central" font-family="Arial,sans-serif" font-size="11" fill="#394553">33</text><circle cx="360" cy="150" r="2.2" fill="#172b38"/><text x="372.0" y="150.0" text-anchor="middle" dominant-baseline="central" font-family="Arial,sans-serif" font-size="11" fill="#394553">34</text><circle cx="400" cy="160" r="2.2" fill="#172b38"/><text x="412.0" y="160.0" text-anchor="middle" dominant-baseline="central" font-family="Arial,sans-serif" font-size="11" fill="#394553">35</text><circle cx="430" cy="150" r="2.2" fill="#172b38"/><text x="442.0" y="150.0" text-anchor="middle" dominant-baseline="central" font-family="Arial,sans-serif" font-size="11" fill="#394553">36</text><circle cx="520" cy="150" r="2.2" fill="#172b38"/><text x="531.087" y="154.592" text-anchor="middle" dominant-baseline="central" font-family="Arial,sans-serif" font-size="11" fill="#394553">37</text><circle cx="530" cy="140" r="2.2" fill="#172b38"/><text x="542.0" y="140.0" text-anchor="middle" dominant-baseline="central" font-family="Arial,sans-serif" font-size="11" fill="#394553">38</text><circle cx="550" cy="100" r="2.2" fill="#172b38"/><text x="562.0" y="100.0" text-anchor="middle" dominant-baseline="central" font-family="Arial,sans-serif" font-size="11" fill="#394553">39</text><circle cx="570" cy="170" r="2.2" fill="#172b38"/><text x="582.0" y="170.0" text-anchor="middle" dominant-baseline="central" font-family="Arial,sans-serif" font-size="11" fill="#394553">40</text><circle cx="600" cy="250" r="2.2" fill="#172b38"/><text x="612.0" y="250.0" text-anchor="middle" dominant-baseline="central" font-family="Arial,sans-serif" font-size="11" fill="#394553">41</text><circle cx="600" cy="290" r="2.2" fill="#172b38"/><text x="612.0" y="290.0" text-anchor="middle" dominant-baseline="central" font-family="Arial,sans-serif" font-size="11" fill="#394553">42</text><circle cx="610" cy="320" r="2.2" fill="#172b38"/><text x="622.0" y="320.0" text-anchor="middle" dominant-baseline="central" font-family="Arial,sans-serif" font-size="11" fill="#394553">43</text><circle cx="620" cy="400" r="2.2" fill="#172b38"/><text x="631.087" y="404.592" text-anchor="middle" dominant-baseline="central" font-family="Arial,sans-serif" font-size="11" fill="#394553">44</text><circle cx="650" cy="530" r="2.2" fill="#172b38"/><text x="654.592" y="541.087" text-anchor="middle" dominant-baseline="central" font-family="Arial,sans-serif" font-size="11" fill="#394553">45</text><circle cx="670" cy="530" r="2.2" fill="#172b38"/><text x="682.0" y="530.0" text-anchor="middle" dominant-baseline="central" font-family="Arial,sans-serif" font-size="11" fill="#394553">46</text><circle cx="790" cy="460" r="2.2" fill="#172b38"/><text x="802.0" y="460.0" text-anchor="middle" dominant-baseline="central" font-family="Arial,sans-serif" font-size="11" fill="#394553">47</text><circle cx="860" cy="470" r="2.2" fill="#172b38"/><text x="872.0" y="470.0" text-anchor="middle" dominant-baseline="central" font-family="Arial,sans-serif" font-size="11" fill="#394553">48</text><circle cx="930" cy="460" r="2.2" fill="#172b38"/><text x="942.0" y="460.0" text-anchor="middle" dominant-baseline="central" font-family="Arial,sans-serif" font-size="11" fill="#394553">49</text><circle cx="920" cy="300" r="2.2" fill="#172b38"/><text x="932.0" y="300.0" text-anchor="middle" dominant-baseline="central" font-family="Arial,sans-serif" font-size="11" fill="#394553">50</text><circle cx="940" cy="390" r="2.2" fill="#172b38"/><text x="940.0" y="402.0" text-anchor="middle" dominant-baseline="central" font-family="Arial,sans-serif" font-size="11" fill="#394553">51</text><circle cx="950" cy="390" r="2.2" fill="#172b38"/><text x="945.408" y="378.913" text-anchor="middle" dominant-baseline="central" font-family="Arial,sans-serif" font-size="11" fill="#394553">52</text><circle cx="950" cy="180" r="2.2" fill="#172b38"/><text x="962.0" y="180.0" text-anchor="middle" dominant-baseline="central" font-family="Arial,sans-serif" font-size="11" fill="#394553">53</text><circle cx="950" cy="160" r="2.2" fill="#172b38"/><text x="962.0" y="160.0" text-anchor="middle" dominant-baseline="central" font-family="Arial,sans-serif" font-size="11" fill="#394553">54</text><circle cx="880" cy="140" r="2.2" fill="#172b38"/><text x="892.0" y="140.0" text-anchor="middle" dominant-baseline="central" font-family="Arial,sans-serif" font-size="11" fill="#394553">55</text><circle cx="860" cy="140" r="2.2" fill="#172b38"/><text x="860.0" y="128.0" text-anchor="middle" dominant-baseline="central" font-family="Arial,sans-serif" font-size="11" fill="#394553">56</text><circle cx="860" cy="160" r="2.2" fill="#172b38"/><text x="872.0" y="160.0" text-anchor="middle" dominant-baseline="central" font-family="Arial,sans-serif" font-size="11" fill="#394553">57</text><circle cx="1030" cy="520" r="2.2" fill="#172b38"/><text x="1042.0" y="520.0" text-anchor="middle" dominant-baseline="central" font-family="Arial,sans-serif" font-size="11" fill="#394553">58</text><circle cx="990" cy="570" r="2.2" fill="#172b38"/><text x="1002.0" y="570.0" text-anchor="middle" dominant-baseline="central" font-family="Arial,sans-serif" font-size="11" fill="#394553">59</text><circle cx="980" cy="570" r="2.2" fill="#172b38"/><text x="984.592" y="581.087" text-anchor="middle" dominant-baseline="central" font-family="Arial,sans-serif" font-size="11" fill="#394553">60</text><circle cx="1060" cy="100" r="2.2" fill="#172b38"/><text x="1072.0" y="100.0" text-anchor="middle" dominant-baseline="central" font-family="Arial,sans-serif" font-size="11" fill="#394553">61</text><circle cx="1050" cy="220" r="2.2" fill="#172b38"/><text x="1062.0" y="220.0" text-anchor="middle" dominant-baseline="central" font-family="Arial,sans-serif" font-size="11" fill="#394553">62</text><circle cx="1050" cy="440" r="2.2" fill="#172b38"/><text x="1062.0" y="440.0" text-anchor="middle" dominant-baseline="central" font-family="Arial,sans-serif" font-size="11" fill="#394553">63</text><circle cx="950" cy="610" r="2.2" fill="#172b38"/><text x="962.0" y="610.0" text-anchor="middle" dominant-baseline="central" font-family="Arial,sans-serif" font-size="11" fill="#394553">64</text><circle cx="930" cy="610" r="2.2" fill="#172b38"/><text x="934.592" y="621.087" text-anchor="middle" dominant-baseline="central" font-family="Arial,sans-serif" font-size="11" fill="#394553">65</text><circle cx="300" cy="900" r="2.2" fill="#172b38"/><text x="312.0" y="900.0" text-anchor="middle" dominant-baseline="central" font-family="Arial,sans-serif" font-size="11" fill="#394553">66</text><circle cx="270" cy="870" r="2.2" fill="#172b38"/><text x="282.0" y="870.0" text-anchor="middle" dominant-baseline="central" font-family="Arial,sans-serif" font-size="11" fill="#394553">67</text><circle cx="660" cy="990" r="2.2" fill="#172b38"/><text x="672.0" y="990.0" text-anchor="middle" dominant-baseline="central" font-family="Arial,sans-serif" font-size="11" fill="#394553">68</text><circle cx="670" cy="980" r="2.2" fill="#172b38"/><text x="674.592" y="968.913" text-anchor="middle" dominant-baseline="central" font-family="Arial,sans-serif" font-size="11" fill="#394553">69</text><circle cx="740" cy="920" r="2.2" fill="#172b38"/><text x="752.0" y="920.0" text-anchor="middle" dominant-baseline="central" font-family="Arial,sans-serif" font-size="11" fill="#394553">70</text><circle cx="770" cy="870" r="2.2" fill="#172b38"/><text x="774.592" y="881.087" text-anchor="middle" dominant-baseline="central" font-family="Arial,sans-serif" font-size="11" fill="#394553">71</text><circle cx="790" cy="870" r="2.2" fill="#172b38"/><text x="802.0" y="870.0" text-anchor="middle" dominant-baseline="central" font-family="Arial,sans-serif" font-size="11" fill="#394553">72</text><circle cx="900" cy="740" r="2.2" fill="#172b38"/><text x="912.0" y="740.0" text-anchor="middle" dominant-baseline="central" font-family="Arial,sans-serif" font-size="11" fill="#394553">73</text><circle cx="990" cy="700" r="2.2" fill="#172b38"/><text x="1002.0" y="700.0" text-anchor="middle" dominant-baseline="central" font-family="Arial,sans-serif" font-size="11" fill="#394553">74</text><circle cx="1080" cy="700" r="2.2" fill="#172b38"/><text x="1092.0" y="700.0" text-anchor="middle" dominant-baseline="central" font-family="Arial,sans-serif" font-size="11" fill="#394553">75</text><circle cx="1100" cy="710" r="2.2" fill="#172b38"/><text x="1112.0" y="710.0" text-anchor="middle" dominant-baseline="central" font-family="Arial,sans-serif" font-size="11" fill="#394553">76</text><circle cx="1100" cy="890" r="2.2" fill="#172b38"/><text x="1112.0" y="890.0" text-anchor="middle" dominant-baseline="central" font-family="Arial,sans-serif" font-size="11" fill="#394553">77</text><circle cx="1050" cy="890" r="2.2" fill="#172b38"/><text x="1062.0" y="890.0" text-anchor="middle" dominant-baseline="central" font-family="Arial,sans-serif" font-size="11" fill="#394553">78</text><circle cx="1050" cy="880" r="2.2" fill="#172b38"/><text x="1038.913" y="884.592" text-anchor="middle" dominant-baseline="central" font-family="Arial,sans-serif" font-size="11" fill="#394553">79</text><circle cx="1020" cy="880" r="2.2" fill="#172b38"/><text x="1008.0" y="880.0" text-anchor="middle" dominant-baseline="central" font-family="Arial,sans-serif" font-size="11" fill="#394553">80</text><circle cx="1010" cy="890" r="2.2" fill="#172b38"/><text x="1022.0" y="890.0" text-anchor="middle" dominant-baseline="central" font-family="Arial,sans-serif" font-size="11" fill="#394553">81</text><circle cx="1000" cy="890" r="2.2" fill="#172b38"/><text x="1000.0" y="902.0" text-anchor="middle" dominant-baseline="central" font-family="Arial,sans-serif" font-size="11" fill="#394553">82</text><circle cx="1000" cy="870" r="2.2" fill="#172b38"/><text x="988.913" y="874.592" text-anchor="middle" dominant-baseline="central" font-family="Arial,sans-serif" font-size="11" fill="#394553">83</text><circle cx="1030" cy="840" r="2.2" fill="#172b38"/><text x="1042.0" y="840.0" text-anchor="middle" dominant-baseline="central" font-family="Arial,sans-serif" font-size="11" fill="#394553">84</text><circle cx="530" cy="350" r="2.2" fill="#172b38"/><text x="541.087" y="354.592" text-anchor="middle" dominant-baseline="central" font-family="Arial,sans-serif" font-size="11" fill="#394553">85</text><circle cx="540" cy="330" r="2.2" fill="#172b38"/><text x="544.592" y="341.087" text-anchor="middle" dominant-baseline="central" font-family="Arial,sans-serif" font-size="11" fill="#394553">86</text><circle cx="560" cy="330" r="2.2" fill="#172b38"/><text x="572.0" y="330.0" text-anchor="middle" dominant-baseline="central" font-family="Arial,sans-serif" font-size="11" fill="#394553">87</text><circle cx="460" cy="730" r="2.2" fill="#172b38"/><text x="472.0" y="730.0" text-anchor="middle" dominant-baseline="central" font-family="Arial,sans-serif" font-size="11" fill="#394553">88</text><circle cx="500" cy="800" r="2.2" fill="#172b38"/><text x="512.0" y="800.0" text-anchor="middle" dominant-baseline="central" font-family="Arial,sans-serif" font-size="11" fill="#394553">89</text><circle cx="500" cy="850" r="2.2" fill="#172b38"/><text x="512.0" y="850.0" text-anchor="middle" dominant-baseline="central" font-family="Arial,sans-serif" font-size="11" fill="#394553">90</text><circle cx="490" cy="860" r="2.2" fill="#172b38"/><text x="501.087" y="864.592" text-anchor="middle" dominant-baseline="central" font-family="Arial,sans-serif" font-size="11" fill="#394553">91</text><circle cx="480" cy="890" r="2.2" fill="#172b38"/><text x="492.0" y="890.0" text-anchor="middle" dominant-baseline="central" font-family="Arial,sans-serif" font-size="11" fill="#394553">92</text><circle cx="480" cy="970" r="2.2" fill="#172b38"/><text x="492.0" y="970.0" text-anchor="middle" dominant-baseline="central" font-family="Arial,sans-serif" font-size="11" fill="#394553">93</text><circle cx="470" cy="1080" r="2.2" fill="#172b38"/><text x="482.0" y="1080.0" text-anchor="middle" dominant-baseline="central" font-family="Arial,sans-serif" font-size="11" fill="#394553">94</text><circle cx="480" cy="1100" r="2.2" fill="#172b38"/><text x="492.0" y="1100.0" text-anchor="middle" dominant-baseline="central" font-family="Arial,sans-serif" font-size="11" fill="#394553">95</text><circle cx="790" cy="290" r="2.2" fill="#172b38"/><text x="802.0" y="290.0" text-anchor="middle" dominant-baseline="central" font-family="Arial,sans-serif" font-size="11" fill="#394553">96</text><circle cx="780" cy="240" r="2.2" fill="#172b38"/><text x="784.592" y="251.087" text-anchor="middle" dominant-baseline="central" font-family="Arial,sans-serif" font-size="11" fill="#394553">97</text><circle cx="760" cy="180" r="2.2" fill="#172b38"/><text x="771.087" y="184.592" text-anchor="middle" dominant-baseline="central" font-family="Arial,sans-serif" font-size="11" fill="#394553">98</text><circle cx="750" cy="170" r="2.2" fill="#172b38"/><text x="762.0" y="170.0" text-anchor="middle" dominant-baseline="central" font-family="Arial,sans-serif" font-size="11" fill="#394553">99</text><circle cx="750" cy="160" r="2.2" fill="#172b38"/><text x="754.592" y="148.913" text-anchor="middle" dominant-baseline="central" font-family="Arial,sans-serif" font-size="11" fill="#394553">100</text><circle cx="820" cy="140" r="2.2" fill="#172b38"/><text x="824.592" y="151.087" text-anchor="middle" dominant-baseline="central" font-family="Arial,sans-serif" font-size="11" fill="#394553">101</text><circle cx="840" cy="140" r="2.2" fill="#172b38"/><text x="844.592" y="151.087" text-anchor="middle" dominant-baseline="central" font-family="Arial,sans-serif" font-size="11" fill="#394553">102</text><circle cx="830" cy="170" r="2.2" fill="#172b38"/><text x="834.592" y="181.087" text-anchor="middle" dominant-baseline="central" font-family="Arial,sans-serif" font-size="11" fill="#394553">103</text><circle cx="830" cy="380" r="2.2" fill="#172b38"/><text x="834.592" y="368.913" text-anchor="middle" dominant-baseline="central" font-family="Arial,sans-serif" font-size="11" fill="#394553">104</text><circle cx="830" cy="400" r="2.2" fill="#172b38"/><text x="834.592" y="411.087" text-anchor="middle" dominant-baseline="central" font-family="Arial,sans-serif" font-size="11" fill="#394553">105</text><circle cx="750" cy="410" r="2.2" fill="#172b38"/><text x="768.0" y="410.0" text-anchor="middle" dominant-baseline="central" font-family="Arial,sans-serif" font-size="11" fill="#394553">106</text><circle cx="750" cy="390" r="2.2" fill="#172b38"/><text x="745.408" y="378.913" text-anchor="middle" dominant-baseline="central" font-family="Arial,sans-serif" font-size="11" fill="#394553">107</text><circle cx="750" cy="190" r="2.2" fill="#172b38"/><text x="754.592" y="201.087" text-anchor="middle" dominant-baseline="central" font-family="Arial,sans-serif" font-size="11" fill="#394553">108</text><circle cx="740" cy="190" r="2.2" fill="#172b38"/><text x="735.408" y="178.913" text-anchor="middle" dominant-baseline="central" font-family="Arial,sans-serif" font-size="11" fill="#394553">109</text><circle cx="730" cy="200" r="2.2" fill="#172b38"/><text x="734.592" y="211.087" text-anchor="middle" dominant-baseline="central" font-family="Arial,sans-serif" font-size="11" fill="#394553">110</text><circle cx="740" cy="410" r="2.2" fill="#172b38"/><text x="735.408" y="398.913" text-anchor="middle" dominant-baseline="central" font-family="Arial,sans-serif" font-size="11" fill="#394553">111</text><circle cx="930" cy="480" r="2.2" fill="#172b38"/><text x="934.592" y="491.087" text-anchor="middle" dominant-baseline="central" font-family="Arial,sans-serif" font-size="11" fill="#394553">112</text><circle cx="890" cy="680" r="2.2" fill="#172b38"/><text x="894.592" y="691.087" text-anchor="middle" dominant-baseline="central" font-family="Arial,sans-serif" font-size="11" fill="#394553">113</text><circle cx="850" cy="710" r="2.2" fill="#172b38"/><text x="854.592" y="721.087" text-anchor="middle" dominant-baseline="central" font-family="Arial,sans-serif" font-size="11" fill="#394553">114</text><circle cx="840" cy="730" r="2.2" fill="#172b38"/><text x="844.592" y="741.087" text-anchor="middle" dominant-baseline="central" font-family="Arial,sans-serif" font-size="11" fill="#394553">115</text><circle cx="820" cy="750" r="2.2" fill="#172b38"/><text x="824.592" y="761.087" text-anchor="middle" dominant-baseline="central" font-family="Arial,sans-serif" font-size="11" fill="#394553">116</text><circle cx="810" cy="780" r="2.2" fill="#172b38"/><text x="814.592" y="791.087" text-anchor="middle" dominant-baseline="central" font-family="Arial,sans-serif" font-size="11" fill="#394553">117</text><circle cx="780" cy="820" r="2.2" fill="#172b38"/><text x="784.592" y="831.087" text-anchor="middle" dominant-baseline="central" font-family="Arial,sans-serif" font-size="11" fill="#394553">118</text><circle cx="850" cy="590" r="2.2" fill="#172b38"/><text x="854.592" y="601.087" text-anchor="middle" dominant-baseline="central" font-family="Arial,sans-serif" font-size="11" fill="#394553">119</text><circle cx="1090" cy="1000" r="2.2" fill="#172b38"/><text x="1094.592" y="1011.087" text-anchor="middle" dominant-baseline="central" font-family="Arial,sans-serif" font-size="11" fill="#394553">120</text><circle cx="1070" cy="990" r="2.2" fill="#172b38"/><text x="1074.592" y="1001.087" text-anchor="middle" dominant-baseline="central" font-family="Arial,sans-serif" font-size="11" fill="#394553">121</text><circle cx="1060" cy="970" r="2.2" fill="#172b38"/><text x="1055.408" y="981.087" text-anchor="middle" dominant-baseline="central" font-family="Arial,sans-serif" font-size="11" fill="#394553">122</text><circle cx="1100" cy="390" r="2.2" fill="#172b38"/><text x="1104.592" y="401.087" text-anchor="middle" dominant-baseline="central" font-family="Arial,sans-serif" font-size="11" fill="#394553">123</text><circle cx="290" cy="510" r="2.2" fill="#172b38"/><text x="294.592" y="521.087" text-anchor="middle" dominant-baseline="central" font-family="Arial,sans-serif" font-size="11" fill="#394553">124</text><circle cx="300" cy="450" r="2.2" fill="#172b38"/><text x="304.592" y="461.087" text-anchor="middle" dominant-baseline="central" font-family="Arial,sans-serif" font-size="11" fill="#394553">125</text><circle cx="490" cy="990" r="2.2" fill="#172b38"/><text x="494.592" y="1001.087" text-anchor="middle" dominant-baseline="central" font-family="Arial,sans-serif" font-size="11" fill="#394553">126</text><circle cx="530" cy="990" r="2.2" fill="#172b38"/><text x="534.592" y="1001.087" text-anchor="middle" dominant-baseline="central" font-family="Arial,sans-serif" font-size="11" fill="#394553">127</text><circle cx="570" cy="1000" r="2.2" fill="#172b38"/><text x="574.592" y="1011.087" text-anchor="middle" dominant-baseline="central" font-family="Arial,sans-serif" font-size="11" fill="#394553">128</text><circle cx="600" cy="990" r="2.2" fill="#172b38"/><text x="604.592" y="1001.087" text-anchor="middle" dominant-baseline="central" font-family="Arial,sans-serif" font-size="11" fill="#394553">129</text><circle cx="640" cy="990" r="2.2" fill="#172b38"/><text x="635.408" y="978.913" text-anchor="middle" dominant-baseline="central" font-family="Arial,sans-serif" font-size="11" fill="#394553">130</text><circle cx="660" cy="980" r="2.2" fill="#172b38"/><text x="655.408" y="968.913" text-anchor="middle" dominant-baseline="central" font-family="Arial,sans-serif" font-size="11" fill="#394553">131</text><circle cx="660" cy="690" r="2.2" fill="#172b38"/><text x="664.592" y="701.087" text-anchor="middle" dominant-baseline="central" font-family="Arial,sans-serif" font-size="11" fill="#394553">132</text><circle cx="680" cy="500" r="2.2" fill="#172b38"/><text x="684.592" y="511.087" text-anchor="middle" dominant-baseline="central" font-family="Arial,sans-serif" font-size="11" fill="#394553">133</text><circle cx="690" cy="410" r="2.2" fill="#172b38"/><text x="694.592" y="421.087" text-anchor="middle" dominant-baseline="central" font-family="Arial,sans-serif" font-size="11" fill="#394553">134</text><circle cx="680" cy="260" r="2.2" fill="#172b38"/><text x="684.592" y="271.087" text-anchor="middle" dominant-baseline="central" font-family="Arial,sans-serif" font-size="11" fill="#394553">135</text><circle cx="690" cy="100" r="2.2" fill="#172b38"/><text x="694.592" y="111.087" text-anchor="middle" dominant-baseline="central" font-family="Arial,sans-serif" font-size="11" fill="#394553">136</text><circle cx="310" cy="650" r="2.2" fill="#172b38"/><text x="314.592" y="661.087" text-anchor="middle" dominant-baseline="central" font-family="Arial,sans-serif" font-size="11" fill="#394553">137</text><circle cx="310" cy="600" r="2.2" fill="#172b38"/><text x="314.592" y="611.087" text-anchor="middle" dominant-baseline="central" font-family="Arial,sans-serif" font-size="11" fill="#394553">138</text><circle cx="650" cy="430" r="2.2" fill="#172b38"/><text x="654.592" y="441.087" text-anchor="middle" dominant-baseline="central" font-family="Arial,sans-serif" font-size="11" fill="#394553">139</text><circle cx="640" cy="380" r="2.2" fill="#172b38"/><text x="644.592" y="391.087" text-anchor="middle" dominant-baseline="central" font-family="Arial,sans-serif" font-size="11" fill="#394553">140</text><circle cx="770" cy="320" r="2.2" fill="#172b38"/><text x="774.592" y="331.087" text-anchor="middle" dominant-baseline="central" font-family="Arial,sans-serif" font-size="11" fill="#394553">141</text><circle cx="760" cy="370" r="2.2" fill="#172b38"/><text x="755.408" y="358.913" text-anchor="middle" dominant-baseline="central" font-family="Arial,sans-serif" font-size="11" fill="#394553">142</text><circle cx="180" cy="580" r="2.2" fill="#172b38"/><text x="184.592" y="591.087" text-anchor="middle" dominant-baseline="central" font-family="Arial,sans-serif" font-size="11" fill="#394553">143</text><circle cx="190" cy="500" r="2.2" fill="#172b38"/><text x="185.408" y="488.913" text-anchor="middle" dominant-baseline="central" font-family="Arial,sans-serif" font-size="11" fill="#394553">144</text><circle cx="200" cy="600" r="2.2" fill="#172b38"/><text x="204.592" y="611.087" text-anchor="middle" dominant-baseline="central" font-family="Arial,sans-serif" font-size="11" fill="#394553">145</text><circle cx="640" cy="340" r="2.2" fill="#172b38"/><text x="644.592" y="351.087" text-anchor="middle" dominant-baseline="central" font-family="Arial,sans-serif" font-size="11" fill="#394553">146</text><circle cx="630" cy="280" r="2.2" fill="#172b38"/><text x="634.592" y="291.087" text-anchor="middle" dominant-baseline="central" font-family="Arial,sans-serif" font-size="11" fill="#394553">147</text><circle cx="540" cy="290" r="2.2" fill="#172b38"/><text x="544.592" y="301.087" text-anchor="middle" dominant-baseline="central" font-family="Arial,sans-serif" font-size="11" fill="#394553">148</text><circle cx="480" cy="280" r="2.2" fill="#172b38"/><text x="484.592" y="291.087" text-anchor="middle" dominant-baseline="central" font-family="Arial,sans-serif" font-size="11" fill="#394553">149</text><circle cx="450" cy="600" r="2.2" fill="#172b38"/><text x="454.592" y="611.087" text-anchor="middle" dominant-baseline="central" font-family="Arial,sans-serif" font-size="11" fill="#394553">150</text><circle cx="480" cy="560" r="2.2" fill="#172b38"/><text x="484.592" y="571.087" text-anchor="middle" dominant-baseline="central" font-family="Arial,sans-serif" font-size="11" fill="#394553">151</text><circle cx="500" cy="520" r="2.2" fill="#172b38"/><text x="504.592" y="531.087" text-anchor="middle" dominant-baseline="central" font-family="Arial,sans-serif" font-size="11" fill="#394553">152</text><circle cx="510" cy="460" r="2.2" fill="#172b38"/><text x="514.592" y="471.087" text-anchor="middle" dominant-baseline="central" font-family="Arial,sans-serif" font-size="11" fill="#394553">153</text><circle cx="530" cy="450" r="2.2" fill="#172b38"/><text x="534.592" y="461.087" text-anchor="middle" dominant-baseline="central" font-family="Arial,sans-serif" font-size="11" fill="#394553">154</text><circle cx="540" cy="420" r="2.2" fill="#172b38"/><text x="544.592" y="431.087" text-anchor="middle" dominant-baseline="central" font-family="Arial,sans-serif" font-size="11" fill="#394553">155</text><circle cx="650" cy="170" r="2.2" fill="#172b38"/><text x="654.592" y="181.087" text-anchor="middle" dominant-baseline="central" font-family="Arial,sans-serif" font-size="11" fill="#394553">156</text><circle cx="640" cy="120" r="2.2" fill="#172b38"/><text x="644.592" y="131.087" text-anchor="middle" dominant-baseline="central" font-family="Arial,sans-serif" font-size="11" fill="#394553">157</text><circle cx="240" cy="600" r="2.2" fill="#172b38"/><text x="244.592" y="611.087" text-anchor="middle" dominant-baseline="central" font-family="Arial,sans-serif" font-size="11" fill="#394553">158</text><circle cx="230" cy="520" r="2.2" fill="#172b38"/><text x="234.592" y="531.087" text-anchor="middle" dominant-baseline="central" font-family="Arial,sans-serif" font-size="11" fill="#394553">159</text><circle cx="800" cy="240" r="2.2" fill="#172b38"/><text x="804.592" y="251.087" text-anchor="middle" dominant-baseline="central" font-family="Arial,sans-serif" font-size="11" fill="#394553">160</text><circle cx="950" cy="410" r="2.2" fill="#172b38"/><text x="954.592" y="421.087" text-anchor="middle" dominant-baseline="central" font-family="Arial,sans-serif" font-size="11" fill="#394553">161</text><circle cx="870" cy="400" r="2.2" fill="#172b38"/><text x="874.592" y="411.087" text-anchor="middle" dominant-baseline="central" font-family="Arial,sans-serif" font-size="11" fill="#394553">162</text><circle cx="860" cy="380" r="2.2" fill="#172b38"/><text x="855.408" y="368.913" text-anchor="middle" dominant-baseline="central" font-family="Arial,sans-serif" font-size="11" fill="#394553">163</text><circle cx="870" cy="170" r="2.2" fill="#172b38"/><text x="874.592" y="181.087" text-anchor="middle" dominant-baseline="central" font-family="Arial,sans-serif" font-size="11" fill="#394553">164</text><circle cx="910" cy="290" r="2.2" fill="#172b38"/><text x="905.408" y="301.087" text-anchor="middle" dominant-baseline="central" font-family="Arial,sans-serif" font-size="11" fill="#394553">165</text><circle cx="200" cy="1100" r="2.2" fill="#172b38"/><text x="204.592" y="1111.087" text-anchor="middle" dominant-baseline="central" font-family="Arial,sans-serif" font-size="11" fill="#394553">166</text><circle cx="220" cy="1070" r="2.2" fill="#172b38"/><text x="224.592" y="1081.087" text-anchor="middle" dominant-baseline="central" font-family="Arial,sans-serif" font-size="11" fill="#394553">167</text><circle cx="230" cy="1050" r="2.2" fill="#172b38"/><text x="234.592" y="1061.087" text-anchor="middle" dominant-baseline="central" font-family="Arial,sans-serif" font-size="11" fill="#394553">168</text><circle cx="180" cy="840" r="2.2" fill="#172b38"/><text x="184.592" y="851.087" text-anchor="middle" dominant-baseline="central" font-family="Arial,sans-serif" font-size="11" fill="#394553">169</text><circle cx="190" cy="780" r="2.2" fill="#172b38"/><text x="194.592" y="791.087" text-anchor="middle" dominant-baseline="central" font-family="Arial,sans-serif" font-size="11" fill="#394553">170</text><circle cx="620" cy="220" r="2.2" fill="#172b38"/><text x="624.592" y="231.087" text-anchor="middle" dominant-baseline="central" font-family="Arial,sans-serif" font-size="11" fill="#394553">171</text><circle cx="600" cy="180" r="2.2" fill="#172b38"/><text x="604.592" y="191.087" text-anchor="middle" dominant-baseline="central" font-family="Arial,sans-serif" font-size="11" fill="#394553">172</text><circle cx="640" cy="1000" r="2.2" fill="#172b38"/><text x="656.63" y="1006.888" text-anchor="middle" dominant-baseline="central" font-family="Arial,sans-serif" font-size="11" fill="#394553">173</text><circle cx="640" cy="1010" r="2.2" fill="#172b38"/><text x="644.592" y="1021.087" text-anchor="middle" dominant-baseline="central" font-family="Arial,sans-serif" font-size="11" fill="#394553">174</text><circle cx="570" cy="1080" r="2.2" fill="#172b38"/><text x="574.592" y="1091.087" text-anchor="middle" dominant-baseline="central" font-family="Arial,sans-serif" font-size="11" fill="#394553">175</text><circle cx="560" cy="1100" r="2.2" fill="#172b38"/><text x="564.592" y="1111.087" text-anchor="middle" dominant-baseline="central" font-family="Arial,sans-serif" font-size="11" fill="#394553">176</text><circle cx="670" cy="1050" r="2.2" fill="#172b38"/><text x="674.592" y="1061.087" text-anchor="middle" dominant-baseline="central" font-family="Arial,sans-serif" font-size="11" fill="#394553">177</text><circle cx="770" cy="990" r="2.2" fill="#172b38"/><text x="774.592" y="1001.087" text-anchor="middle" dominant-baseline="central" font-family="Arial,sans-serif" font-size="11" fill="#394553">178</text><circle cx="910" cy="840" r="2.2" fill="#172b38"/><text x="914.592" y="851.087" text-anchor="middle" dominant-baseline="central" font-family="Arial,sans-serif" font-size="11" fill="#394553">179</text><circle cx="460" cy="510" r="2.2" fill="#172b38"/><text x="464.592" y="521.087" text-anchor="middle" dominant-baseline="central" font-family="Arial,sans-serif" font-size="11" fill="#394553">180</text><circle cx="500" cy="420" r="2.2" fill="#172b38"/><text x="495.408" y="408.913" text-anchor="middle" dominant-baseline="central" font-family="Arial,sans-serif" font-size="11" fill="#394553">181</text><circle cx="490" cy="420" r="2.2" fill="#172b38"/><text x="494.592" y="431.087" text-anchor="middle" dominant-baseline="central" font-family="Arial,sans-serif" font-size="11" fill="#394553">182</text><circle cx="430" cy="480" r="2.2" fill="#172b38"/><text x="434.592" y="491.087" text-anchor="middle" dominant-baseline="central" font-family="Arial,sans-serif" font-size="11" fill="#394553">183</text><circle cx="390" cy="540" r="2.2" fill="#172b38"/><text x="394.592" y="551.087" text-anchor="middle" dominant-baseline="central" font-family="Arial,sans-serif" font-size="11" fill="#394553">184</text><circle cx="560" cy="670" r="2.2" fill="#172b38"/><text x="564.592" y="681.087" text-anchor="middle" dominant-baseline="central" font-family="Arial,sans-serif" font-size="11" fill="#394553">185</text><circle cx="620" cy="680" r="2.2" fill="#172b38"/><text x="624.592" y="691.087" text-anchor="middle" dominant-baseline="central" font-family="Arial,sans-serif" font-size="11" fill="#394553">186</text><circle cx="480" cy="610" r="2.2" fill="#172b38"/><text x="484.592" y="621.087" text-anchor="middle" dominant-baseline="central" font-family="Arial,sans-serif" font-size="11" fill="#394553">187</text><circle cx="520" cy="570" r="2.2" fill="#172b38"/><text x="524.592" y="581.087" text-anchor="middle" dominant-baseline="central" font-family="Arial,sans-serif" font-size="11" fill="#394553">188</text><circle cx="550" cy="500" r="2.2" fill="#172b38"/><text x="554.592" y="511.087" text-anchor="middle" dominant-baseline="central" font-family="Arial,sans-serif" font-size="11" fill="#394553">189</text><circle cx="570" cy="410" r="2.2" fill="#172b38"/><text x="574.592" y="421.087" text-anchor="middle" dominant-baseline="central" font-family="Arial,sans-serif" font-size="11" fill="#394553">190</text><circle cx="560" cy="360" r="2.2" fill="#172b38"/><text x="564.592" y="371.087" text-anchor="middle" dominant-baseline="central" font-family="Arial,sans-serif" font-size="11" fill="#394553">191</text><circle cx="360" cy="790" r="2.2" fill="#172b38"/><text x="364.592" y="801.087" text-anchor="middle" dominant-baseline="central" font-family="Arial,sans-serif" font-size="11" fill="#394553">192</text><circle cx="370" cy="760" r="2.2" fill="#172b38"/><text x="374.592" y="771.087" text-anchor="middle" dominant-baseline="central" font-family="Arial,sans-serif" font-size="11" fill="#394553">193</text><circle cx="380" cy="730" r="2.2" fill="#172b38"/><text x="384.592" y="741.087" text-anchor="middle" dominant-baseline="central" font-family="Arial,sans-serif" font-size="11" fill="#394553">194</text><circle cx="650" cy="600" r="2.2" fill="#172b38"/><text x="654.592" y="588.913" text-anchor="middle" dominant-baseline="central" font-family="Arial,sans-serif" font-size="11" fill="#394553">195</text><circle cx="640" cy="640" r="2.2" fill="#172b38"/><text x="644.592" y="651.087" text-anchor="middle" dominant-baseline="central" font-family="Arial,sans-serif" font-size="11" fill="#394553">196</text><circle cx="920" cy="250" r="2.2" fill="#172b38"/><text x="924.592" y="261.087" text-anchor="middle" dominant-baseline="central" font-family="Arial,sans-serif" font-size="11" fill="#394553">197</text><circle cx="460" cy="280" r="2.2" fill="#172b38"/><text x="464.592" y="291.087" text-anchor="middle" dominant-baseline="central" font-family="Arial,sans-serif" font-size="11" fill="#394553">198</text><circle cx="410" cy="270" r="2.2" fill="#172b38"/><text x="414.592" y="281.087" text-anchor="middle" dominant-baseline="central" font-family="Arial,sans-serif" font-size="11" fill="#394553">199</text><circle cx="380" cy="290" r="2.2" fill="#172b38"/><text x="384.592" y="301.087" text-anchor="middle" dominant-baseline="central" font-family="Arial,sans-serif" font-size="11" fill="#394553">200</text><circle cx="380" cy="350" r="2.2" fill="#172b38"/><text x="384.592" y="361.087" text-anchor="middle" dominant-baseline="central" font-family="Arial,sans-serif" font-size="11" fill="#394553">201</text><circle cx="350" cy="360" r="2.2" fill="#172b38"/><text x="354.592" y="371.087" text-anchor="middle" dominant-baseline="central" font-family="Arial,sans-serif" font-size="11" fill="#394553">202</text><circle cx="800" cy="310" r="2.2" fill="#172b38"/><text x="804.592" y="321.087" text-anchor="middle" dominant-baseline="central" font-family="Arial,sans-serif" font-size="11" fill="#394553">203</text><circle cx="820" cy="370" r="2.2" fill="#172b38"/><text x="815.408" y="381.087" text-anchor="middle" dominant-baseline="central" font-family="Arial,sans-serif" font-size="11" fill="#394553">204</text><circle cx="960" cy="950" r="2.2" fill="#172b38"/><text x="964.592" y="961.087" text-anchor="middle" dominant-baseline="central" font-family="Arial,sans-serif" font-size="11" fill="#394553">205</text><circle cx="940" cy="980" r="2.2" fill="#172b38"/><text x="935.408" y="968.913" text-anchor="middle" dominant-baseline="central" font-family="Arial,sans-serif" font-size="11" fill="#394553">206</text><circle cx="930" cy="1010" r="2.2" fill="#172b38"/><text x="925.408" y="998.913" text-anchor="middle" dominant-baseline="central" font-family="Arial,sans-serif" font-size="11" fill="#394553">207</text><circle cx="920" cy="1010" r="2.2" fill="#172b38"/><text x="924.592" y="1021.087" text-anchor="middle" dominant-baseline="central" font-family="Arial,sans-serif" font-size="11" fill="#394553">208</text><circle cx="890" cy="1040" r="2.2" fill="#172b38"/><text x="894.592" y="1051.087" text-anchor="middle" dominant-baseline="central" font-family="Arial,sans-serif" font-size="11" fill="#394553">209</text><circle cx="840" cy="1090" r="2.2" fill="#172b38"/><text x="844.592" y="1101.087" text-anchor="middle" dominant-baseline="central" font-family="Arial,sans-serif" font-size="11" fill="#394553">210</text><circle cx="820" cy="1100" r="2.2" fill="#172b38"/><text x="824.592" y="1111.087" text-anchor="middle" dominant-baseline="central" font-family="Arial,sans-serif" font-size="11" fill="#394553">211</text><circle cx="200" cy="450" r="2.2" fill="#172b38"/><text x="204.592" y="461.087" text-anchor="middle" dominant-baseline="central" font-family="Arial,sans-serif" font-size="11" fill="#394553">212</text><circle cx="160" cy="1070" r="2.2" fill="#172b38"/><text x="164.592" y="1081.087" text-anchor="middle" dominant-baseline="central" font-family="Arial,sans-serif" font-size="11" fill="#394553">213</text><circle cx="160" cy="1060" r="2.2" fill="#172b38"/><text x="155.408" y="1048.913" text-anchor="middle" dominant-baseline="central" font-family="Arial,sans-serif" font-size="11" fill="#394553">214</text><circle cx="140" cy="1030" r="2.2" fill="#172b38"/><text x="135.408" y="1018.913" text-anchor="middle" dominant-baseline="central" font-family="Arial,sans-serif" font-size="11" fill="#394553">215</text><circle cx="130" cy="950" r="2.2" fill="#172b38"/><text x="134.592" y="961.087" text-anchor="middle" dominant-baseline="central" font-family="Arial,sans-serif" font-size="11" fill="#394553">216</text><circle cx="140" cy="850" r="2.2" fill="#172b38"/><text x="144.592" y="861.087" text-anchor="middle" dominant-baseline="central" font-family="Arial,sans-serif" font-size="11" fill="#394553">217</text><circle cx="250" cy="430" r="2.2" fill="#172b38"/><text x="254.592" y="441.087" text-anchor="middle" dominant-baseline="central" font-family="Arial,sans-serif" font-size="11" fill="#394553">218</text><circle cx="260" cy="360" r="2.2" fill="#172b38"/><text x="264.592" y="371.087" text-anchor="middle" dominant-baseline="central" font-family="Arial,sans-serif" font-size="11" fill="#394553">219</text><circle cx="100" cy="130" r="2.2" fill="#172b38"/><text x="104.592" y="141.087" text-anchor="middle" dominant-baseline="central" font-family="Arial,sans-serif" font-size="11" fill="#394553">220</text><circle cx="130" cy="120" r="2.2" fill="#172b38"/><text x="134.592" y="131.087" text-anchor="middle" dominant-baseline="central" font-family="Arial,sans-serif" font-size="11" fill="#394553">221</text><circle cx="890" cy="310" r="2.2" fill="#172b38"/><text x="894.592" y="321.087" text-anchor="middle" dominant-baseline="central" font-family="Arial,sans-serif" font-size="11" fill="#394553">222</text><circle cx="860" cy="760" r="2.2" fill="#172b38"/><text x="864.592" y="771.087" text-anchor="middle" dominant-baseline="central" font-family="Arial,sans-serif" font-size="11" fill="#394553">223</text><circle cx="160" cy="1100" r="2.2" fill="#172b38"/><text x="164.592" y="1111.087" text-anchor="middle" dominant-baseline="central" font-family="Arial,sans-serif" font-size="11" fill="#394553">224</text><circle cx="130" cy="1050" r="2.2" fill="#172b38"/><text x="134.592" y="1061.087" text-anchor="middle" dominant-baseline="central" font-family="Arial,sans-serif" font-size="11" fill="#394553">225</text><circle cx="640" cy="590" r="2.2" fill="#172b38"/><text x="635.408" y="601.087" text-anchor="middle" dominant-baseline="central" font-family="Arial,sans-serif" font-size="11" fill="#394553">226</text><circle cx="850" cy="430" r="2.2" fill="#172b38"/><text x="854.592" y="441.087" text-anchor="middle" dominant-baseline="central" font-family="Arial,sans-serif" font-size="11" fill="#394553">227</text><circle cx="780" cy="440" r="2.2" fill="#172b38"/><text x="775.408" y="451.087" text-anchor="middle" dominant-baseline="central" font-family="Arial,sans-serif" font-size="11" fill="#394553">228</text><circle cx="750" cy="450" r="2.2" fill="#172b38"/><text x="754.592" y="461.087" text-anchor="middle" dominant-baseline="central" font-family="Arial,sans-serif" font-size="11" fill="#394553">229</text><circle cx="720" cy="450" r="2.2" fill="#172b38"/><text x="724.592" y="461.087" text-anchor="middle" dominant-baseline="central" font-family="Arial,sans-serif" font-size="11" fill="#394553">230</text><circle cx="740" cy="420" r="2.2" fill="#172b38"/><text x="744.592" y="431.087" text-anchor="middle" dominant-baseline="central" font-family="Arial,sans-serif" font-size="11" fill="#394553">231</text><circle cx="850" cy="410" r="2.2" fill="#172b38"/><text x="845.408" y="398.913" text-anchor="middle" dominant-baseline="central" font-family="Arial,sans-serif" font-size="11" fill="#394553">232</text><circle cx="930" cy="450" r="2.2" fill="#172b38"/><text x="925.408" y="438.913" text-anchor="middle" dominant-baseline="central" font-family="Arial,sans-serif" font-size="11" fill="#394553">233</text><circle cx="950" cy="450" r="2.2" fill="#172b38"/><text x="945.408" y="438.913" text-anchor="middle" dominant-baseline="central" font-family="Arial,sans-serif" font-size="11" fill="#394553">234</text><circle cx="980" cy="450" r="2.2" fill="#172b38"/><text x="984.592" y="461.087" text-anchor="middle" dominant-baseline="central" font-family="Arial,sans-serif" font-size="11" fill="#394553">235</text><circle cx="970" cy="420" r="2.2" fill="#172b38"/><text x="974.592" y="431.087" text-anchor="middle" dominant-baseline="central" font-family="Arial,sans-serif" font-size="11" fill="#394553">236</text><circle cx="850" cy="120" r="2.2" fill="#172b38"/><text x="833.37" y="126.888" text-anchor="middle" dominant-baseline="central" font-family="Arial,sans-serif" font-size="11" fill="#394553">237</text><circle cx="150" cy="820" r="2.2" fill="#172b38"/><text x="154.592" y="831.087" text-anchor="middle" dominant-baseline="central" font-family="Arial,sans-serif" font-size="11" fill="#394553">238</text><circle cx="160" cy="740" r="2.2" fill="#172b38"/><text x="164.592" y="751.087" text-anchor="middle" dominant-baseline="central" font-family="Arial,sans-serif" font-size="11" fill="#394553">239</text><circle cx="450" cy="710" r="2.2" fill="#172b38"/><text x="445.408" y="721.087" text-anchor="middle" dominant-baseline="central" font-family="Arial,sans-serif" font-size="11" fill="#394553">240</text><circle cx="440" cy="660" r="2.2" fill="#172b38"/><text x="444.592" y="671.087" text-anchor="middle" dominant-baseline="central" font-family="Arial,sans-serif" font-size="11" fill="#394553">241</text><circle cx="410" cy="650" r="2.2" fill="#172b38"/><text x="414.592" y="661.087" text-anchor="middle" dominant-baseline="central" font-family="Arial,sans-serif" font-size="11" fill="#394553">242</text><circle cx="390" cy="620" r="2.2" fill="#172b38"/><text x="394.592" y="631.087" text-anchor="middle" dominant-baseline="central" font-family="Arial,sans-serif" font-size="11" fill="#394553">243</text></svg>