<svg xmlns="http://www.w3.org/2000/svg" width="1200" height="1200" viewBox="0 0 1200 1200"><rect width="1200" height="1200" fill="white"/><line x1="360" y1="800" x2="350" y2="780" stroke="#172b38" stroke-width="2"/><line x1="350" y1="780" x2="340" y2="760" stroke="#172b38" stroke-width="2"/><line x1="340" y1="760" x2="320" y2="760" stroke="#172b38" stroke-width="2"/><line x1="320" y1="760" x2="300" y2="780" stroke="#172b38" stroke-width="2"/><line x1="300" y1="780" x2="300" y2="800" stroke="#172b38" stroke-width="2"/><line x1="300" y1="800" x2="300" y2="820" stroke="#172b38" stroke-width="2"/><line x1="300" y1="820" x2="320" y2="840" stroke="#172b38" stroke-width="2"/><line x1="320" y1="840" x2="340" y2="840" stroke="#172b38" stroke-width="2"/><line x1="340" y1="840" x2="350" y2="820" stroke="#172b38" stroke-width="2"/><line x1="350" y1="820" x2="360" y2="800" stroke="#172b38" stroke-width="2"/><line x1="330" y1="110" x2="340" y2="100" stroke="#172b38" stroke-width="2"/><line x1="340" y1="100" x2="340" y2="120" stroke="#172b38" stroke-width="2"/><line x1="280" y1="900" x2="100" y2="900" stroke="#172b38" stroke-width="2"/><line x1="130" y1="190" x2="130" y2="100" stroke="#172b38" stroke-width="2"/><line x1="100" y1="560" x2="620" y2="560" stroke="#172b38" stroke-width="2"/><line x1="620" y1="560" x2="320" y2="320" stroke="#172b38" stroke-width="2"/><line x1="320" y1="320" x2="100" y2="500" stroke="#172b38" stroke-width="2"/><line x1="100" y1="530" x2="200" y2="400" stroke="#172b38" stroke-width="2"/><line x1="200" y1="400" x2="320" y2="300" stroke="#172b38" stroke-width="2"/><line x1="320" y1="300" x2="450" y2="400" stroke="#172b38" stroke-width="2"/><line x1="450" y1="400" x2="550" y2="530" stroke="#172b38" stroke-width="2"/><line x1="550" y1="530" x2="600" y2="560" stroke="#172b38" stroke-width="2"/><line x1="600" y1="560" x2="620" y2="560" stroke="#172b38" stroke-width="2"/><line x1="1020" y1="870" x2="1020" y2="720" stroke="#172b38" stroke-width="2"/><line x1="250" y1="960" x2="230" y2="990" stroke="#172b38" stroke-width="2"/><line x1="230" y1="990" x2="430" y2="990" stroke="#172b38" stroke-width="2"/><line x1="430" y1="990" x2="410" y2="960" stroke="#172b38" stroke-width="2"/><line x1="410" y1="960" x2="250" y2="960" stroke="#172b38" stroke-width="2"/><line x1="770" y1="1100" x2="610" y2="1000" stroke="#172b38" stroke-width="2"/><line x1="610" y1="1000" x2="460" y2="1100" stroke="#172b38" stroke-width="2"/><line x1="110" y1="700" x2="100" y2="700" stroke="#172b38" stroke-width="2"/><line x1="550" y1="1100" x2="570" y2="1080" stroke="#172b38" stroke-width="2"/><line x1="570" y1="1080" x2="590" y2="1100" stroke="#172b38" stroke-width="2"/><line x1="150" y1="110" x2="140" y2="100" stroke="#172b38" stroke-width="2"/><line x1="360" y1="110" x2="350" y2="100" stroke="#172b38" stroke-width="2"/><line x1="660" y1="160" x2="660" y2="100" stroke="#172b38" stroke-width="2"/><line x1="1100" y1="840" x2="1080" y2="840" stroke="#172b38" stroke-width="2"/><line x1="470" y1="790" x2="470" y2="640" stroke="#172b38" stroke-width="2"/><line x1="390" y1="380" x2="260" y2="380" stroke="#172b38" stroke-width="2"/><line x1="260" y1="380" x2="230" y2="410" stroke="#172b38" stroke-width="2"/><line x1="230" y1="410" x2="260" y2="430" stroke="#172b38" stroke-width="2"/><line x1="260" y1="430" x2="280" y2="410" stroke="#172b38" stroke-width="2"/><line x1="280" y1="410" x2="260" y2="380" stroke="#172b38" stroke-width="2"/><line x1="240" y1="100" x2="260" y2="120" stroke="#172b38" stroke-width="2"/><line x1="260" y1="120" x2="230" y2="150" stroke="#172b38" stroke-width="2"/><line x1="230" y1="150" x2="200" y2="120" stroke="#172b38" stroke-width="2"/><line x1="200" y1="120" x2="220" y2="100" stroke="#172b38" stroke-width="2"/><line x1="580" y1="560" x2="580" y2="950" stroke="#172b38" stroke-width="2"/><line x1="580" y1="950" x2="100" y2="950" stroke="#172b38" stroke-width="2"/><line x1="180" y1="480" x2="160" y2="510" stroke="#172b38" stroke-width="2"/><line x1="160" y1="510" x2="180" y2="530" stroke="#172b38" stroke-width="2"/><line x1="180" y1="530" x2="210" y2="510" stroke="#172b38" stroke-width="2"/><line x1="210" y1="510" x2="180" y2="480" stroke="#172b38" stroke-width="2"/><line x1="120" y1="110" x2="130" y2="100" stroke="#172b38" stroke-width="2"/><line x1="130" y1="100" x2="130" y2="120" stroke="#172b38" stroke-width="2"/><line x1="110" y1="640" x2="100" y2="640" stroke="#172b38" stroke-width="2"/><line x1="1010" y1="120" x2="990" y2="100" stroke="#172b38" stroke-width="2"/><line x1="990" y1="100" x2="980" y2="120" stroke="#172b38" stroke-width="2"/><line x1="530" y1="720" x2="420" y2="720" stroke="#172b38" stroke-width="2"/><line x1="830" y1="800" x2="830" y2="1020" stroke="#172b38" stroke-width="2"/><line x1="830" y1="1020" x2="920" y2="1020" stroke="#172b38" stroke-width="2"/><line x1="920" y1="1020" x2="920" y2="800" stroke="#172b38" stroke-width="2"/><line x1="920" y1="800" x2="830" y2="800" stroke="#172b38" stroke-width="2"/><line x1="770" y1="800" x2="670" y2="800" stroke="#172b38" stroke-width="2"/><line x1="970" y1="720" x2="970" y2="870" stroke="#172b38" stroke-width="2"/><line x1="970" y1="870" x2="1070" y2="870" stroke="#172b38" stroke-width="2"/><line x1="1070" y1="870" x2="1070" y2="720" stroke="#172b38" stroke-width="2"/><line x1="1070" y1="720" x2="970" y2="720" stroke="#172b38" stroke-width="2"/><line x1="670" y1="1100" x2="690" y2="1080" stroke="#172b38" stroke-width="2"/><line x1="690" y1="1080" x2="710" y2="1100" stroke="#172b38" stroke-width="2"/><line x1="690" y1="100" x2="690" y2="110" stroke="#172b38" stroke-width="2"/><line x1="690" y1="110" x2="660" y2="140" stroke="#172b38" stroke-width="2"/><line x1="660" y1="140" x2="630" y2="110" stroke="#172b38" stroke-width="2"/><line x1="630" y1="110" x2="640" y2="100" stroke="#172b38" stroke-width="2"/><line x1="1070" y1="800" x2="970" y2="800" stroke="#172b38" stroke-width="2"/><line x1="290" y1="420" x2="290" y2="510" stroke="#172b38" stroke-width="2"/><line x1="290" y1="510" x2="360" y2="510" stroke="#172b38" stroke-width="2"/><line x1="360" y1="510" x2="360" y2="420" stroke="#172b38" stroke-width="2"/><line x1="360" y1="420" x2="290" y2="420" stroke="#172b38" stroke-width="2"/><line x1="230" y1="170" x2="230" y2="100" stroke="#172b38" stroke-width="2"/><line x1="360" y1="460" x2="290" y2="460" stroke="#172b38" stroke-width="2"/><line x1="970" y1="450" x2="970" y2="550" stroke="#172b38" stroke-width="2"/><line x1="970" y1="550" x2="1030" y2="550" stroke="#172b38" stroke-width="2"/><line x1="1030" y1="550" x2="1030" y2="450" stroke="#172b38" stroke-width="2"/><line x1="1030" y1="450" x2="970" y2="450" stroke="#172b38" stroke-width="2"/><line x1="830" y1="520" x2="830" y2="610" stroke="#172b38" stroke-width="2"/><line x1="830" y1="610" x2="900" y2="610" stroke="#172b38" stroke-width="2"/><line x1="900" y1="610" x2="900" y2="520" stroke="#172b38" stroke-width="2"/><line x1="900" y1="520" x2="830" y2="520" stroke="#172b38" stroke-width="2"/><line x1="720" y1="870" x2="720" y2="720" stroke="#172b38" stroke-width="2"/><line x1="1100" y1="970" x2="920" y2="970" stroke="#172b38" stroke-width="2"/><line x1="1100" y1="720" x2="1080" y2="720" stroke="#172b38" stroke-width="2"/><line x1="420" y1="350" x2="420" y2="450" stroke="#172b38" stroke-width="2"/><line x1="420" y1="450" x2="480" y2="450" stroke="#172b38" stroke-width="2"/><line x1="480" y1="450" x2="480" y2="350" stroke="#172b38" stroke-width="2"/><line x1="480" y1="350" x2="420" y2="350" stroke="#172b38" stroke-width="2"/><line x1="1100" y1="1020" x2="620" y2="1020" stroke="#172b38" stroke-width="2"/><line x1="620" y1="1020" x2="620" y2="650" stroke="#172b38" stroke-width="2"/><line x1="370" y1="530" x2="270" y2="530" stroke="#172b38" stroke-width="2"/><line x1="540" y1="810" x2="410" y2="810" stroke="#172b38" stroke-width="2"/><line x1="1100" y1="650" x2="580" y2="650" stroke="#172b38" stroke-width="2"/><line x1="580" y1="650" x2="870" y2="430" stroke="#172b38" stroke-width="2"/><line x1="870" y1="430" x2="1100" y2="610" stroke="#172b38" stroke-width="2"/><line x1="900" y1="560" x2="830" y2="560" stroke="#172b38" stroke-width="2"/><line x1="990" y1="130" x2="990" y2="100" stroke="#172b38" stroke-width="2"/><line x1="990" y1="100" x2="990" y2="110" stroke="#172b38" stroke-width="2"/><line x1="990" y1="110" x2="1000" y2="100" stroke="#172b38" stroke-width="2"/><line x1="220" y1="430" x2="190" y2="460" stroke="#172b38" stroke-width="2"/><line x1="190" y1="460" x2="220" y2="480" stroke="#172b38" stroke-width="2"/><line x1="220" y1="480" x2="250" y2="460" stroke="#172b38" stroke-width="2"/><line x1="250" y1="460" x2="280" y2="480" stroke="#172b38" stroke-width="2"/><line x1="280" y1="480" x2="310" y2="460" stroke="#172b38" stroke-width="2"/><line x1="310" y1="460" x2="340" y2="480" stroke="#172b38" stroke-width="2"/><line x1="340" y1="480" x2="370" y2="460" stroke="#172b38" stroke-width="2"/><line x1="370" y1="460" x2="400" y2="480" stroke="#172b38" stroke-width="2"/><line x1="400" y1="480" x2="430" y2="460" stroke="#172b38" stroke-width="2"/><line x1="430" y1="460" x2="400" y2="430" stroke="#172b38" stroke-width="2"/><line x1="400" y1="430" x2="370" y2="460" stroke="#172b38" stroke-width="2"/><line x1="370" y1="460" x2="340" y2="430" stroke="#172b38" stroke-width="2"/><line x1="340" y1="430" x2="310" y2="460" stroke="#172b38" stroke-width="2"/><line x1="310" y1="460" x2="280" y2="430" stroke="#172b38" stroke-width="2"/><line x1="280" y1="430" x2="250" y2="460" stroke="#172b38" stroke-width="2"/><line x1="250" y1="460" x2="220" y2="430" stroke="#172b38" stroke-width="2"/><line x1="280" y1="720" x2="280" y2="950" stroke="#172b38" stroke-width="2"/><line x1="280" y1="950" x2="370" y2="950" stroke="#172b38" stroke-width="2"/><line x1="370" y1="950" x2="370" y2="720" stroke="#172b38" stroke-width="2"/><line x1="370" y1="720" x2="280" y2="720" stroke="#172b38" stroke-width="2"/><line x1="110" y1="760" x2="100" y2="760" stroke="#172b38" stroke-width="2"/><line x1="120" y1="640" x2="120" y2="790" stroke="#172b38" stroke-width="2"/><line x1="120" y1="790" x2="220" y2="790" stroke="#172b38" stroke-width="2"/><line x1="220" y1="790" x2="220" y2="640" stroke="#172b38" stroke-width="2"/><line x1="220" y1="640" x2="120" y2="640" stroke="#172b38" stroke-width="2"/><line x1="280" y1="830" x2="100" y2="830" stroke="#172b38" stroke-width="2"/><line x1="1100" y1="910" x2="920" y2="910" stroke="#172b38" stroke-width="2"/><line x1="320" y1="380" x2="290" y2="410" stroke="#172b38" stroke-width="2"/><line x1="290" y1="410" x2="320" y2="430" stroke="#172b38" stroke-width="2"/><line x1="320" y1="430" x2="340" y2="410" stroke="#172b38" stroke-width="2"/><line x1="340" y1="410" x2="320" y2="380" stroke="#172b38" stroke-width="2"/><line x1="490" y1="1100" x2="510" y2="1080" stroke="#172b38" stroke-width="2"/><line x1="510" y1="1080" x2="530" y2="1100" stroke="#172b38" stroke-width="2"/><line x1="1100" y1="780" x2="1080" y2="780" stroke="#172b38" stroke-width="2"/><line x1="180" y1="140" x2="100" y2="140" stroke="#172b38" stroke-width="2"/><line x1="100" y1="140" x2="130" y2="170" stroke="#172b38" stroke-width="2"/><line x1="130" y1="170" x2="160" y2="140" stroke="#172b38" stroke-width="2"/><line x1="160" y1="140" x2="130" y2="110" stroke="#172b38" stroke-width="2"/><line x1="130" y1="110" x2="100" y2="140" stroke="#172b38" stroke-width="2"/><line x1="220" y1="720" x2="120" y2="720" stroke="#172b38" stroke-width="2"/><line x1="150" y1="100" x2="130" y2="110" stroke="#172b38" stroke-width="2"/><line x1="130" y1="110" x2="120" y2="100" stroke="#172b38" stroke-width="2"/><line x1="420" y1="640" x2="420" y2="790" stroke="#172b38" stroke-width="2"/><line x1="420" y1="790" x2="530" y2="790" stroke="#172b38" stroke-width="2"/><line x1="530" y1="790" x2="530" y2="640" stroke="#172b38" stroke-width="2"/><line x1="530" y1="640" x2="420" y2="640" stroke="#172b38" stroke-width="2"/><line x1="380" y1="380" x2="350" y2="410" stroke="#172b38" stroke-width="2"/><line x1="350" y1="410" x2="380" y2="430" stroke="#172b38" stroke-width="2"/><line x1="380" y1="430" x2="400" y2="410" stroke="#172b38" stroke-width="2"/><line x1="400" y1="410" x2="380" y2="380" stroke="#172b38" stroke-width="2"/><line x1="900" y1="190" x2="900" y2="100" stroke="#172b38" stroke-width="2"/><line x1="320" y1="510" x2="320" y2="420" stroke="#172b38" stroke-width="2"/><line x1="900" y1="880" x2="900" y2="860" stroke="#172b38" stroke-width="2"/><line x1="900" y1="860" x2="880" y2="840" stroke="#172b38" stroke-width="2"/><line x1="880" y1="840" x2="860" y2="840" stroke="#172b38" stroke-width="2"/><line x1="860" y1="840" x2="850" y2="860" stroke="#172b38" stroke-width="2"/><line x1="850" y1="860" x2="840" y2="880" stroke="#172b38" stroke-width="2"/><line x1="840" y1="880" x2="850" y2="900" stroke="#172b38" stroke-width="2"/><line x1="850" y1="900" x2="860" y2="910" stroke="#172b38" stroke-width="2"/><line x1="860" y1="910" x2="880" y2="910" stroke="#172b38" stroke-width="2"/><line x1="880" y1="910" x2="900" y2="900" stroke="#172b38" stroke-width="2"/><line x1="900" y1="900" x2="900" y2="880" stroke="#172b38" stroke-width="2"/><line x1="170" y1="790" x2="170" y2="640" stroke="#172b38" stroke-width="2"/><line x1="610" y1="1100" x2="630" y2="1080" stroke="#172b38" stroke-width="2"/><line x1="630" y1="1080" x2="650" y2="1100" stroke="#172b38" stroke-width="2"/><line x1="240" y1="810" x2="100" y2="810" stroke="#172b38" stroke-width="2"/><line x1="830" y1="1100" x2="610" y2="970" stroke="#172b38" stroke-width="2"/><line x1="610" y1="970" x2="410" y2="1100" stroke="#172b38" stroke-width="2"/><line x1="410" y1="1100" x2="400" y2="1100" stroke="#172b38" stroke-width="2"/><line x1="670" y1="720" x2="670" y2="870" stroke="#172b38" stroke-width="2"/><line x1="670" y1="870" x2="770" y2="870" stroke="#172b38" stroke-width="2"/><line x1="770" y1="870" x2="770" y2="720" stroke="#172b38" stroke-width="2"/><line x1="770" y1="720" x2="670" y2="720" stroke="#172b38" stroke-width="2"/><line x1="1100" y1="630" x2="1090" y2="620" stroke="#172b38" stroke-width="2"/><line x1="1090" y1="620" x2="990" y2="500" stroke="#172b38" stroke-width="2"/><line x1="990" y1="500" x2="870" y2="400" stroke="#172b38" stroke-width="2"/><line x1="870" y1="400" x2="750" y2="500" stroke="#172b38" stroke-width="2"/><line x1="750" y1="500" x2="650" y2="620" stroke="#172b38" stroke-width="2"/><line x1="650" y1="620" x2="600" y2="650" stroke="#172b38" stroke-width="2"/><line x1="600" y1="650" x2="580" y2="650" stroke="#172b38" stroke-width="2"/><line x1="780" y1="1100" x2="780" y2="1020" stroke="#172b38" stroke-width="2"/><line x1="780" y1="1020" x2="880" y2="1020" stroke="#172b38" stroke-width="2"/><line x1="880" y1="1020" x2="880" y2="1100" stroke="#172b38" stroke-width="2"/><line x1="870" y1="610" x2="870" y2="520" stroke="#172b38" stroke-width="2"/><line x1="800" y1="1030" x2="780" y2="1060" stroke="#172b38" stroke-width="2"/><line x1="780" y1="1060" x2="980" y2="1060" stroke="#172b38" stroke-width="2"/><line x1="980" y1="1060" x2="960" y2="1030" stroke="#172b38" stroke-width="2"/><line x1="960" y1="1030" x2="800" y2="1030" stroke="#172b38" stroke-width="2"/><line x1="1100" y1="1060" x2="860" y2="1030" stroke="#172b38" stroke-width="2"/><line x1="860" y1="1030" x2="530" y2="1000" stroke="#172b38" stroke-width="2"/><line x1="530" y1="1000" x2="220" y2="980" stroke="#172b38" stroke-width="2"/><line x1="220" y1="980" x2="100" y2="990" stroke="#172b38" stroke-width="2"/><circle cx="360" cy="800" r="2.2" fill="#172b38"/><circle cx="350" cy="780" r="2.2" fill="#172b38"/><circle cx="340" cy="760" r="2.2" fill="#172b38"/><circle cx="320" cy="760" r="2.2" fill="#172b38"/><circle cx="300" cy="780" r="2.2" fill="#172b38"/><circle cx="300" cy="800" r="2.2" fill="#172b38"/><circle cx="300" cy="820" r="2.2" fill="#172b38"/><circle cx="320" cy="840" r="2.2" fill="#172b38"/><circle cx="340" cy="840" r="2.2" fill="#172b38"/><circle cx="350" cy="820" r="2.2" fill="#172b38"/><circle cx="330" cy="110" r="2.2" fill="#172b38"/><circle cx="340" cy="100" r="2.2" fill="#172b38"/><circle cx="340" cy="120" r="2.2" fill="#172b38"/><circle cx="280" cy="900" r="2.2" fill="#172b38"/><circle cx="100" cy="900" r="2.2" fill="#172b38"/><circle cx="130" cy="190" r="2.2" fill="#172b38"/><circle cx="130" cy="100" r="2.2" fill="#172b38"/><circle cx="100" cy="560" r="2.2" fill="#172b38"/><circle cx="620" cy="560" r="2.2" fill="#172b38"/><circle cx="320" cy="320" r="2.2" fill="#172b38"/><circle cx="100" cy="500" r="2.2" fill="#172b38"/><circle cx="100" cy="530" r="2.2" fill="#172b38"/><circle cx="200" cy="400" r="2.2" fill="#172b38"/><circle cx="320" cy="300" r="2.2" fill="#172b38"/><circle cx="450" cy="400" r="2.2" fill="#172b38"/><circle cx="550" cy="530" r="2.2" fill="#172b38"/><circle cx="600" cy="560" r="2.2" fill="#172b38"/><circle cx="1020" cy="870" r="2.2" fill="#172b38"/><circle cx="1020" cy="720" r="2.2" fill="#172b38"/><circle cx="250" cy="960" r="2.2" fill="#172b38"/><circle cx="230" cy="990" r="2.2" fill="#172b38"/><circle cx="430" cy="990" r="2.2" fill="#172b38"/><circle cx="410" cy="960" r="2.2" fill="#172b38"/><circle cx="770" cy="1100" r="2.2" fill="#172b38"/><circle cx="610" cy="1000" r="2.2" fill="#172b38"/><circle cx="460" cy="1100" r="2.2" fill="#172b38"/><circle cx="110" cy="700" r="2.2" fill="#172b38"/><circle cx="100" cy="700" r="2.2" fill="#172b38"/><circle cx="550" cy="1100" r="2.2" fill="#172b38"/><circle cx="570" cy="1080" r="2.2" fill="#172b38"/><circle cx="590" cy="1100" r="2.2" fill="#172b38"/><circle cx="150" cy="110" r="2.2" fill="#172b38"/><circle cx="140" cy="100" r="2.2" fill="#172b38"/><circle cx="360" cy="110" r="2.2" fill="#172b38"/><circle cx="350" cy="100" r="2.2" fill="#172b38"/><circle cx="660" cy="160" r="2.2" fill="#172b38"/><circle cx="660" cy="100" r="2.2" fill="#172b38"/><circle cx="1100" cy="840" r="2.2" fill="#172b38"/><circle cx="1080" cy="840" r="2.2" fill="#172b38"/><circle cx="470" cy="790" r="2.2" fill="#172b38"/><circle cx="470" cy="640" r="2.2" fill="#172b38"/><circle cx="390" cy="380" r="2.2" fill="#172b38"/><circle cx="260" cy="380" r="2.2" fill="#172b38"/><circle cx="230" cy="410" r="2.2" fill="#172b38"/><circle cx="260" cy="430" r="2.2" fill="#172b38"/><circle cx="280" cy="410" r="2.2" fill="#172b38"/><circle cx="240" cy="100" r="2.2" fill="#172b38"/><circle cx="260" cy="120" r="2.2" fill="#172b38"/><circle cx="230" cy="150" r="2.2" fill="#172b38"/><circle cx="200" cy="120" r="2.2" fill="#172b38"/><circle cx="220" cy="100" r="2.2" fill="#172b38"/><circle cx="580" cy="560" r="2.2" fill="#172b38"/><circle cx="580" cy="950" r="2.2" fill="#172b38"/><circle cx="100" cy="950" r="2.2" fill="#172b38"/><circle cx="180" cy="480" r="2.2" fill="#172b38"/><circle cx="160" cy="510" r="2.2" fill="#172b38"/><circle cx="180" cy="530" r="2.2" fill="#172b38"/><circle cx="210" cy="510" r="2.2" fill="#172b38"/><circle cx="120" cy="110" r="2.2" fill="#172b38"/><circle cx="130" cy="120" r="2.2" fill="#172b38"/><circle cx="110" cy="640" r="2.2" fill="#172b38"/><circle cx="100" cy="640" r="2.2" fill="#172b38"/><circle cx="1010" cy="120" r="2.2" fill="#172b38"/><circle cx="990" cy="100" r="2.2" fill="#172b38"/><circle cx="980" cy="120" r="2.2" fill="#172b38"/><circle cx="530" cy="720" r="2.2" fill="#172b38"/><circle cx="420" cy="720" r="2.2" fill="#172b38"/><circle cx="830" cy="800" r="2.2" fill="#172b38"/><circle cx="830" cy="1020" r="2.2" fill="#172b38"/><circle cx="920" cy="1020" r="2.2" fill="#172b38"/><circle cx="920" cy="800" r="2.2" fill="#172b38"/><circle cx="770" cy="800" r="2.2" fill="#172b38"/><circle cx="670" cy="800" r="2.2" fill="#172b38"/><circle cx="970" cy="720" r="2.2" fill="#172b38"/><circle cx="970" cy="870" r="2.2" fill="#172b38"/><circle cx="1070" cy="870" r="2.2" fill="#172b38"/><circle cx="1070" cy="720" r="2.2" fill="#172b38"/><circle cx="670" cy="1100" r="2.2" fill="#172b38"/><circle cx="690" cy="1080" r="2.2" fill="#172b38"/><circle cx="710" cy="1100" r="2.2" fill="#172b38"/><circle cx="690" cy="100" r="2.2" fill="#172b38"/><circle cx="690" cy="110" r="2.2" fill="#172b38"/><circle cx="660" cy="140" r="2.2" fill="#172b38"/><circle cx="630" cy="110" r="2.2" fill="#172b38"/><circle cx="640" cy="100" r="2.2" fill="#172b38"/><circle cx="1070" cy="800" r="2.2" fill="#172b38"/><circle cx="970" cy="800" r="2.2" fill="#172b38"/><circle cx="290" cy="420" r="2.2" fill="#172b38"/><circle cx="290" cy="510" r="2.2" fill="#172b38"/><circle cx="360" cy="510" r="2.2" fill="#172b38"/><circle cx="360" cy="420" r="2.2" fill="#172b38"/><circle cx="230" cy="170" r="2.2" fill="#172b38"/><circle cx="230" cy="100" r="2.2" fill="#172b38"/><circle cx="360" cy="460" r="2.2" fill="#172b38"/><circle cx="290" cy="460" r="2.2" fill="#172b38"/><circle cx="970" cy="450" r="2.2" fill="#172b38"/><circle cx="970" cy="550" r="2.2" fill="#172b38"/><circle cx="1030" cy="550" r="2.2" fill="#172b38"/><circle cx="1030" cy="450" r="2.2" fill="#172b38"/><circle cx="830" cy="520" r="2.2" fill="#172b38"/><circle cx="830" cy="610" r="2.2" fill="#172b38"/><circle cx="900" cy="610" r="2.2" fill="#172b38"/><circle cx="900" cy="520" r="2.2" fill="#172b38"/><circle cx="720" cy="870" r="2.2" fill="#172b38"/><circle cx="720" cy="720" r="2.2" fill="#172b38"/><circle cx="1100" cy="970" r="2.2" fill="#172b38"/><circle cx="920" cy="970" r="2.2" fill="#172b38"/><circle cx="1100" cy="720" r="2.2" fill="#172b38"/><circle cx="1080" cy="720" r="2.2" fill="#172b38"/><circle cx="420" cy="350" r="2.2" fill="#172b38"/><circle cx="420" cy="450" r="2.2" fill="#172b38"/><circle cx="480" cy="450" r="2.2" fill="#172b38"/><circle cx="480" cy="350" r="2.2" fill="#172b38"/><circle cx="1100" cy="1020" r="2.2" fill="#172b38"/><circle cx="620" cy="1020" r="2.2" fill="#172b38"/><circle cx="620" cy="650" r="2.2" fill="#172b38"/><circle cx="370" cy="530" r="2.2" fill="#172b38"/><circle cx="270" cy="530" r="2.2" fill="#172b38"/><circle cx="540" cy="810" r="2.2" fill="#172b38"/><circle cx="410" cy="810" r="2.2" fill="#172b38"/><circle cx="1100" cy="650" r="2.2" fill="#172b38"/><circle cx="580" cy="650" r="2.2" fill="#172b38"/><circle cx="870" cy="430" r="2.2" fill="#172b38"/><circle cx="1100" cy="610" r="2.2" fill="#172b38"/><circle cx="900" cy="560" r="2.2" fill="#172b38"/><circle cx="830" cy="560" r="2.2" fill="#172b38"/><circle cx="990" cy="130" r="2.2" fill="#172b38"/><circle cx="990" cy="110" r="2.2" fill="#172b38"/><circle cx="1000" cy="100" r="2.2" fill="#172b38"/><circle cx="220" cy="430" r="2.2" fill="#172b38"/><circle cx="190" cy="460" r="2.2" fill="#172b38"/><circle cx="220" cy="480" r="2.2" fill="#172b38"/><circle cx="250" cy="460" r="2.2" fill="#172b38"/><circle cx="280" cy="480" r="2.2" fill="#172b38"/><circle cx="310" cy="460" r="2.2" fill="#172b38"/><circle cx="340" cy="480" r="2.2" fill="#172b38"/><circle cx="370" cy="460" r="2.2" fill="#172b38"/><circle cx="400" cy="480" r="2.2" fill="#172b38"/><circle cx="430" cy="460" r="2.2" fill="#172b38"/><circle cx="400" cy="430" r="2.2" fill="#172b38"/><circle cx="340" cy="430" r="2.2" fill="#172b38"/><circle cx="280" cy="430" r="2.2" fill="#172b38"/><circle cx="280" cy="720" r="2.2" fill="#172b38"/><circle cx="280" cy="950" r="2.2" fill="#172b38"/><circle cx="370" cy="950" r="2.2" fill="#172b38"/><circle cx="370" cy="720" r="2.2" fill="#172b38"/><circle cx="110" cy="760" r="2.2" fill="#172b38"/><circle cx="100" cy="760" r="2.2" fill="#172b38"/><circle cx="120" cy="640" r="2.2" fill="#172b38"/><circle cx="120" cy="790" r="2.2" fill="#172b38"/><circle cx="220" cy="790" r="2.2" fill="#172b38"/><circle cx="220" cy="640" r="2.2" fill="#172b38"/><circle cx="280" cy="830" r="2.2" fill="#172b38"/><circle cx="100" cy="830" r="2.2" fill="#172b38"/><circle cx="1100" cy="910" r="2.2" fill="#172b38"/><circle cx="920" cy="910" r="2.2" fill="#172b38"/><circle cx="320" cy="380" r="2.2" fill="#172b38"/><circle cx="290" cy="410" r="2.2" fill="#172b38"/><circle cx="320" cy="430" r="2.2" fill="#172b38"/><circle cx="340" cy="410" r="2.2" fill="#172b38"/><circle cx="490" cy="1100" r="2.2" fill="#172b38"/><circle cx="510" cy="1080" r="2.2" fill="#172b38"/><circle cx="530" cy="1100" r="2.2" fill="#172b38"/><circle cx="1100" cy="780" r="2.2" fill="#172b38"/><circle cx="1080" cy="780" r="2.2" fill="#172b38"/><circle cx="180" cy="140" r="2.2" fill="#172b38"/><circle cx="100" cy="140" r="2.2" fill="#172b38"/><circle cx="130" cy="170" r="2.2" fill="#172b38"/><circle cx="160" cy="140" r="2.2" fill="#172b38"/><circle cx="130" cy="110" r="2.2" fill="#172b38"/><circle cx="220" cy="720" r="2.2" fill="#172b38"/><circle cx="120" cy="720" r="2.2" fill="#172b38"/><circle cx="150" cy="100" r="2.2" fill="#172b38"/><circle cx="120" cy="100" r="2.2" fill="#172b38"/><circle cx="420" cy="640" r="2.2" fill="#172b38"/><circle cx="420" cy="790" r="2.2" fill="#172b38"/><circle cx="530" cy="790" r="2.2" fill="#172b38"/><circle cx="530" cy="640" r="2.2" fill="#172b38"/><circle cx="380" cy="380" r="2.2" fill="#172b38"/><circle cx="350" cy="410" r="2.2" fill="#172b38"/><circle cx="380" cy="430" r="2.2" fill="#172b38"/><circle cx="400" cy="410" r="2.2" fill="#172b38"/><circle cx="900" cy="190" r="2.2" fill="#172b38"/><circle cx="900" cy="100" r="2.2" fill="#172b38"/><circle cx="320" cy="510" r="2.2" fill="#172b38"/><circle cx="320" cy="420" r="2.2" fill="#172b38"/><circle cx="900" cy="880" r="2.2" fill="#172b38"/><circle cx="900" cy="860" r="2.2" fill="#172b38"/><circle cx="880" cy="840" r="2.2" fill="#172b38"/><circle cx="860" cy="840" r="2.2" fill="#172b38"/><circle cx="850" cy="860" r="2.2" fill="#172b38"/><circle cx="840" cy="880" r="2.2" fill="#172b38"/><circle cx="850" cy="900" r="2.2" fill="#172b38"/><circle cx="860" cy="910" r="2.2" fill="#172b38"/><circle cx="880" cy="910" r="2.2" fill="#172b38"/><circle cx="900" cy="900" r="2.2" fill="#172b38"/><circle cx="170" cy="790" r="2.2" fill="#172b38"/><circle cx="170" cy="640" r="2.2" fill="#172b38"/><circle cx="610" cy="1100" r="2.2" fill="#172b38"/><circle cx="630" cy="1080" r="2.2" fill="#172b38"/><circle cx="650" cy="1100" r="2.2" fill="#172b38"/><circle cx="240" cy="810" r="2.2" fill="#172b38"/><circle cx="100" cy="810" r="2.2" fill="#172b38"/><circle cx="830" cy="1100" r="2.2" fill="#172b38"/><circle cx="610" cy="970" r="2.2" fill="#172b38"/><circle cx="410" cy="1100" r="2.2" fill="#172b38"/><circle cx="400" cy="1100" r="2.2" fill="#172b38"/><circle cx="670" cy="720" r="2.2" fill="#172b38"/><circle cx="670" cy="870" r="2.2" fill="#172b38"/><circle cx="770" cy="870" r="2.2" fill="#172b38"/><circle cx="770" cy="720" r="2.2" fill="#172b38"/><circle cx="1100" cy="630" r="2.2" fill="#172b38"/><circle cx="1090" cy="620" r="2.2" fill="#172b38"/><circle cx="990" cy="500" r="2.2" fill="#172b38"/><circle cx="870" cy="400" r="2.2" fill="#172b38"/><circle cx="750" cy="500" r="2.2" fill="#172b38"/><circle cx="650" cy="620" r="2.2" fill="#172b38"/><circle cx="600" cy="650" r="2.2" fill="#172b38"/><circle cx="780" cy="1100" r="2.2" fill="#172b38"/><circle cx="780" cy="1020" r="2.2" fill="#172b38"/><circle cx="880" cy="1020" r="2.2" fill="#172b38"/><circle cx="880" cy="1100" r="2.2" fill="#172b38"/><circle cx="870" cy="610" r="2.2" fill="#172b38"/><circle cx="870" cy="520" r="2.2" fill="#172b38"/><circle cx="800" cy="1030" r="2.2" fill="#172b38"/><circle cx="780" cy="1060" r="2.2" fill="#172b38"/><circle cx="980" cy="1060" r="2.2" fill="#172b38"/><circle cx="960" cy="1030" r="2.2" fill="#172b38"/><circle cx="1100" cy="1060" r="2.2" fill="#172b38"/><circle cx="860" cy="1030" r="2.2" fill="#172b38"/><circle cx="530" cy="1000" r="2.2" fill="#172b38"/><circle cx="220" cy="980" r="2.2" fill="#172b38"/><circle cx="100" cy="990" r="2.2" fill="#172b38"/></svg>