<svg xmlns="http://www.w3.org/2000/svg" width="1200" height="1200" viewBox="0 0 1200 1200"><rect width="1200" height="1200" fill="white"/><circle cx="960" cy="400" r="2.2" fill="#172b38"/><circle cx="990" cy="420" r="2.2" fill="#172b38"/><circle cx="1010" cy="400" r="2.2" fill="#172b38"/><circle cx="990" cy="380" r="2.2" fill="#172b38"/><circle cx="310" cy="920" r="2.2" fill="#172b38"/><circle cx="290" cy="920" r="2.2" fill="#172b38"/><circle cx="270" cy="900" r="2.2" fill="#172b38"/><circle cx="290" cy="880" r="2.2" fill="#172b38"/><circle cx="330" cy="900" r="2.2" fill="#172b38"/><circle cx="310" cy="880" r="2.2" fill="#172b38"/><circle cx="440" cy="210" r="2.2" fill="#172b38"/><circle cx="470" cy="230" r="2.2" fill="#172b38"/><circle cx="500" cy="210" r="2.2" fill="#172b38"/><circle cx="470" cy="190" r="2.2" fill="#172b38"/><circle cx="660" cy="800" r="2.2" fill="#172b38"/><circle cx="600" cy="730" r="2.2" fill="#172b38"/><circle cx="520" cy="630" r="2.2" fill="#172b38"/><circle cx="470" cy="520" r="2.2" fill="#172b38"/><circle cx="480" cy="420" r="2.2" fill="#172b38"/><circle cx="530" cy="300" r="2.2" fill="#172b38"/><circle cx="550" cy="200" r="2.2" fill="#172b38"/><circle cx="510" cy="100" r="2.2" fill="#172b38"/><circle cx="360" cy="320" r="2.2" fill="#172b38"/><circle cx="390" cy="330" r="2.2" fill="#172b38"/><circle cx="420" cy="320" r="2.2" fill="#172b38"/><circle cx="390" cy="290" r="2.2" fill="#172b38"/><circle cx="910" cy="160" r="2.2" fill="#172b38"/><circle cx="940" cy="180" r="2.2" fill="#172b38"/><circle cx="970" cy="160" r="2.2" fill="#172b38"/><circle cx="940" cy="140" r="2.2" fill="#172b38"/><circle cx="970" cy="330" r="2.2" fill="#172b38"/><circle cx="1000" cy="350" r="2.2" fill="#172b38"/><circle cx="1030" cy="330" r="2.2" fill="#172b38"/><circle cx="1000" cy="310" r="2.2" fill="#172b38"/><circle cx="600" cy="1100" r="2.2" fill="#172b38"/><circle cx="590" cy="1090" r="2.2" fill="#172b38"/><circle cx="610" cy="1090" r="2.2" fill="#172b38"/><circle cx="620" cy="1070" r="2.2" fill="#172b38"/><circle cx="630" cy="1090" r="2.2" fill="#172b38"/><circle cx="650" cy="1090" r="2.2" fill="#172b38"/><circle cx="640" cy="1100" r="2.2" fill="#172b38"/><circle cx="760" cy="920" r="2.2" fill="#172b38"/><circle cx="750" cy="910" r="2.2" fill="#172b38"/><circle cx="730" cy="900" r="2.2" fill="#172b38"/><circle cx="710" cy="890" r="2.2" fill="#172b38"/><circle cx="700" cy="900" r="2.2" fill="#172b38"/><circle cx="680" cy="910" r="2.2" fill="#172b38"/><circle cx="670" cy="920" r="2.2" fill="#172b38"/><circle cx="720" cy="140" r="2.2" fill="#172b38"/><circle cx="720" cy="190" r="2.2" fill="#172b38"/><circle cx="1100" cy="950" r="2.2" fill="#172b38"/><circle cx="1030" cy="980" r="2.2" fill="#172b38"/><circle cx="960" cy="1000" r="2.2" fill="#172b38"/><circle cx="890" cy="1030" r="2.2" fill="#172b38"/><circle cx="820" cy="1060" r="2.2" fill="#172b38"/><circle cx="750" cy="1060" r="2.2" fill="#172b38"/><circle cx="680" cy="1050" r="2.2" fill="#172b38"/><circle cx="600" cy="1040" r="2.2" fill="#172b38"/><circle cx="530" cy="1040" r="2.2" fill="#172b38"/><circle cx="450" cy="1020" r="2.2" fill="#172b38"/><circle cx="370" cy="990" r="2.2" fill="#172b38"/><circle cx="290" cy="960" r="2.2" fill="#172b38"/><circle cx="210" cy="940" r="2.2" fill="#172b38"/><circle cx="950" cy="1040" r="2.2" fill="#172b38"/><circle cx="940" cy="1060" r="2.2" fill="#172b38"/><circle cx="920" cy="1060" r="2.2" fill="#172b38"/><circle cx="940" cy="1070" r="2.2" fill="#172b38"/><circle cx="930" cy="1100" r="2.2" fill="#172b38"/><circle cx="950" cy="1080" r="2.2" fill="#172b38"/><circle cx="970" cy="1100" r="2.2" fill="#172b38"/><circle cx="960" cy="1070" r="2.2" fill="#172b38"/><circle cx="980" cy="1060" r="2.2" fill="#172b38"/><circle cx="960" cy="1060" r="2.2" fill="#172b38"/><circle cx="850" cy="170" r="2.2" fill="#172b38"/><circle cx="880" cy="190" r="2.2" fill="#172b38"/><circle cx="910" cy="170" r="2.2" fill="#172b38"/><circle cx="880" cy="150" r="2.2" fill="#172b38"/><circle cx="860" cy="620" r="2.2" fill="#172b38"/><circle cx="890" cy="630" r="2.2" fill="#172b38"/><circle cx="920" cy="620" r="2.2" fill="#172b38"/><circle cx="890" cy="590" r="2.2" fill="#172b38"/><circle cx="870" cy="370" r="2.2" fill="#172b38"/><circle cx="890" cy="390" r="2.2" fill="#172b38"/><circle cx="920" cy="370" r="2.2" fill="#172b38"/><circle cx="890" cy="350" r="2.2" fill="#172b38"/><circle cx="760" cy="290" r="2.2" fill="#172b38"/><circle cx="750" cy="390" r="2.2" fill="#172b38"/><circle cx="710" cy="390" r="2.2" fill="#172b38"/><circle cx="700" cy="290" r="2.2" fill="#172b38"/><circle cx="360" cy="140" r="2.2" fill="#172b38"/><circle cx="400" cy="150" r="2.2" fill="#172b38"/><circle cx="440" cy="140" r="2.2" fill="#172b38"/><circle cx="400" cy="110" r="2.2" fill="#172b38"/><circle cx="360" cy="420" r="2.2" fill="#172b38"/><circle cx="400" cy="440" r="2.2" fill="#172b38"/><circle cx="440" cy="420" r="2.2" fill="#172b38"/><circle cx="400" cy="400" r="2.2" fill="#172b38"/><circle cx="290" cy="990" r="2.2" fill="#172b38"/><circle cx="280" cy="1010" r="2.2" fill="#172b38"/><circle cx="260" cy="1010" r="2.2" fill="#172b38"/><circle cx="280" cy="1030" r="2.2" fill="#172b38"/><circle cx="270" cy="1050" r="2.2" fill="#172b38"/><circle cx="290" cy="1040" r="2.2" fill="#172b38"/><circle cx="310" cy="1050" r="2.2" fill="#172b38"/><circle cx="300" cy="1030" r="2.2" fill="#172b38"/><circle cx="320" cy="1010" r="2.2" fill="#172b38"/><circle cx="300" cy="1010" r="2.2" fill="#172b38"/><circle cx="830" cy="250" r="2.2" fill="#172b38"/><circle cx="870" cy="270" r="2.2" fill="#172b38"/><circle cx="910" cy="250" r="2.2" fill="#172b38"/><circle cx="870" cy="230" r="2.2" fill="#172b38"/><circle cx="640" cy="270" r="2.2" fill="#172b38"/><circle cx="720" cy="270" r="2.2" fill="#172b38"/><circle cx="800" cy="270" r="2.2" fill="#172b38"/><circle cx="790" cy="260" r="2.2" fill="#172b38"/><circle cx="780" cy="240" r="2.2" fill="#172b38"/><circle cx="770" cy="220" r="2.2" fill="#172b38"/><circle cx="750" cy="210" r="2.2" fill="#172b38"/><circle cx="740" cy="190" r="2.2" fill="#172b38"/><circle cx="710" cy="190" r="2.2" fill="#172b38"/><circle cx="700" cy="210" r="2.2" fill="#172b38"/><circle cx="680" cy="220" r="2.2" fill="#172b38"/><circle cx="670" cy="240" r="2.2" fill="#172b38"/><circle cx="650" cy="260" r="2.2" fill="#172b38"/><circle cx="670" cy="340" r="2.2" fill="#172b38"/><circle cx="700" cy="420" r="2.2" fill="#172b38"/><circle cx="730" cy="430" r="2.2" fill="#172b38"/><circle cx="720" cy="550" r="2.2" fill="#172b38"/><circle cx="720" cy="670" r="2.2" fill="#172b38"/><circle cx="720" cy="790" r="2.2" fill="#172b38"/><circle cx="720" cy="910" r="2.2" fill="#172b38"/><circle cx="1100" cy="810" r="2.2" fill="#172b38"/><circle cx="1000" cy="800" r="2.2" fill="#172b38"/><circle cx="900" cy="800" r="2.2" fill="#172b38"/><circle cx="800" cy="800" r="2.2" fill="#172b38"/><circle cx="690" cy="790" r="2.2" fill="#172b38"/><circle cx="600" cy="800" r="2.2" fill="#172b38"/><circle cx="500" cy="800" r="2.2" fill="#172b38"/><circle cx="420" cy="820" r="2.2" fill="#172b38"/><circle cx="350" cy="830" r="2.2" fill="#172b38"/><circle cx="220" cy="870" r="2.2" fill="#172b38"/><circle cx="100" cy="880" r="2.2" fill="#172b38"/><circle cx="760" cy="1100" r="2.2" fill="#172b38"/><circle cx="750" cy="1100" r="2.2" fill="#172b38"/><circle cx="780" cy="1100" r="2.2" fill="#172b38"/><circle cx="790" cy="1070" r="2.2" fill="#172b38"/><circle cx="800" cy="1100" r="2.2" fill="#172b38"/><circle cx="820" cy="1100" r="2.2" fill="#172b38"/><circle cx="810" cy="1100" r="2.2" fill="#172b38"/><circle cx="1070" cy="1100" r="2.2" fill="#172b38"/><circle cx="1050" cy="1100" r="2.2" fill="#172b38"/><circle cx="1070" cy="980" r="2.2" fill="#172b38"/><circle cx="1060" cy="1010" r="2.2" fill="#172b38"/><circle cx="1040" cy="1010" r="2.2" fill="#172b38"/><circle cx="1060" cy="1020" r="2.2" fill="#172b38"/><circle cx="1050" cy="1040" r="2.2" fill="#172b38"/><circle cx="1070" cy="1030" r="2.2" fill="#172b38"/><circle cx="1090" cy="1040" r="2.2" fill="#172b38"/><circle cx="1090" cy="1020" r="2.2" fill="#172b38"/><circle cx="1100" cy="1010" r="2.2" fill="#172b38"/><circle cx="1080" cy="1010" r="2.2" fill="#172b38"/><circle cx="610" cy="880" r="2.2" fill="#172b38"/><circle cx="590" cy="890" r="2.2" fill="#172b38"/><circle cx="570" cy="880" r="2.2" fill="#172b38"/><circle cx="540" cy="900" r="2.2" fill="#172b38"/><circle cx="1010" cy="550" r="2.2" fill="#172b38"/><circle cx="1040" cy="570" r="2.2" fill="#172b38"/><circle cx="1070" cy="550" r="2.2" fill="#172b38"/><circle cx="1040" cy="530" r="2.2" fill="#172b38"/><circle cx="890" cy="240" r="2.2" fill="#172b38"/><circle cx="930" cy="250" r="2.2" fill="#172b38"/><circle cx="970" cy="240" r="2.2" fill="#172b38"/><circle cx="930" cy="210" r="2.2" fill="#172b38"/><circle cx="1100" cy="360" r="2.2" fill="#172b38"/><circle cx="1070" cy="370" r="2.2" fill="#172b38"/><circle cx="1030" cy="350" r="2.2" fill="#172b38"/><circle cx="1070" cy="330" r="2.2" fill="#172b38"/><circle cx="1100" cy="350" r="2.2" fill="#172b38"/><circle cx="450" cy="1030" r="2.2" fill="#172b38"/><circle cx="440" cy="1060" r="2.2" fill="#172b38"/><circle cx="420" cy="1060" r="2.2" fill="#172b38"/><circle cx="440" cy="1070" r="2.2" fill="#172b38"/><circle cx="430" cy="1090" r="2.2" fill="#172b38"/><circle cx="450" cy="1080" r="2.2" fill="#172b38"/><circle cx="470" cy="1090" r="2.2" fill="#172b38"/><circle cx="470" cy="1070" r="2.2" fill="#172b38"/><circle cx="490" cy="1060" r="2.2" fill="#172b38"/><circle cx="460" cy="1060" r="2.2" fill="#172b38"/><circle cx="1080" cy="800" r="2.2" fill="#172b38"/><circle cx="1040" cy="740" r="2.2" fill="#172b38"/><circle cx="990" cy="650" r="2.2" fill="#172b38"/><circle cx="930" cy="560" r="2.2" fill="#172b38"/><circle cx="870" cy="470" r="2.2" fill="#172b38"/><circle cx="800" cy="370" r="2.2" fill="#172b38"/><circle cx="760" cy="280" r="2.2" fill="#172b38"/><circle cx="780" cy="160" r="2.2" fill="#172b38"/><circle cx="800" cy="100" r="2.2" fill="#172b38"/><circle cx="620" cy="960" r="2.2" fill="#172b38"/><circle cx="600" cy="960" r="2.2" fill="#172b38"/><circle cx="580" cy="950" r="2.2" fill="#172b38"/><circle cx="600" cy="930" r="2.2" fill="#172b38"/><circle cx="640" cy="950" r="2.2" fill="#172b38"/><circle cx="620" cy="930" r="2.2" fill="#172b38"/><circle cx="410" cy="930" r="2.2" fill="#172b38"/><circle cx="390" cy="930" r="2.2" fill="#172b38"/><circle cx="360" cy="920" r="2.2" fill="#172b38"/><circle cx="390" cy="900" r="2.2" fill="#172b38"/><circle cx="440" cy="920" r="2.2" fill="#172b38"/><circle cx="410" cy="900" r="2.2" fill="#172b38"/><circle cx="870" cy="930" r="2.2" fill="#172b38"/><circle cx="850" cy="930" r="2.2" fill="#172b38"/><circle cx="820" cy="920" r="2.2" fill="#172b38"/><circle cx="850" cy="900" r="2.2" fill="#172b38"/><circle cx="900" cy="920" r="2.2" fill="#172b38"/><circle cx="870" cy="900" r="2.2" fill="#172b38"/><circle cx="780" cy="340" r="2.2" fill="#172b38"/><circle cx="770" cy="420" r="2.2" fill="#172b38"/><circle cx="1020" cy="230" r="2.2" fill="#172b38"/><circle cx="1050" cy="250" r="2.2" fill="#172b38"/><circle cx="1080" cy="230" r="2.2" fill="#172b38"/><circle cx="1050" cy="210" r="2.2" fill="#172b38"/><circle cx="1010" cy="180" r="2.2" fill="#172b38"/><circle cx="1040" cy="190" r="2.2" fill="#172b38"/><circle cx="1070" cy="180" r="2.2" fill="#172b38"/><circle cx="1040" cy="150" r="2.2" fill="#172b38"/><circle cx="140" cy="1030" r="2.2" fill="#172b38"/><circle cx="120" cy="1030" r="2.2" fill="#172b38"/><circle cx="100" cy="1010" r="2.2" fill="#172b38"/><circle cx="120" cy="990" r="2.2" fill="#172b38"/><circle cx="160" cy="1010" r="2.2" fill="#172b38"/><circle cx="140" cy="990" r="2.2" fill="#172b38"/><circle cx="430" cy="650" r="2.2" fill="#172b38"/><circle cx="450" cy="670" r="2.2" fill="#172b38"/><circle cx="470" cy="650" r="2.2" fill="#172b38"/><circle cx="450" cy="630" r="2.2" fill="#172b38"/><circle cx="510" cy="530" r="2.2" fill="#172b38"/><circle cx="550" cy="550" r="2.2" fill="#172b38"/><circle cx="590" cy="530" r="2.2" fill="#172b38"/><circle cx="550" cy="510" r="2.2" fill="#172b38"/><circle cx="570" cy="490" r="2.2" fill="#172b38"/><circle cx="590" cy="510" r="2.2" fill="#172b38"/><circle cx="620" cy="490" r="2.2" fill="#172b38"/><circle cx="590" cy="470" r="2.2" fill="#172b38"/></svg>