<svg xmlns="http://www.w3.org/2000/svg" width="1200" height="1200" viewBox="0 0 1200 1200"><rect width="1200" height="1200" fill="white"/><circle cx="420" cy="670" r="2.2" fill="#172b38"/><circle cx="410" cy="680" r="2.2" fill="#172b38"/><circle cx="400" cy="680" r="2.2" fill="#172b38"/><circle cx="410" cy="690" r="2.2" fill="#172b38"/><circle cx="400" cy="710" r="2.2" fill="#172b38"/><circle cx="420" cy="700" r="2.2" fill="#172b38"/><circle cx="430" cy="710" r="2.2" fill="#172b38"/><circle cx="430" cy="690" r="2.2" fill="#172b38"/><circle cx="440" cy="680" r="2.2" fill="#172b38"/><circle cx="420" cy="680" r="2.2" fill="#172b38"/><circle cx="600" cy="720" r="2.2" fill="#172b38"/><circle cx="600" cy="730" r="2.2" fill="#172b38"/><circle cx="580" cy="730" r="2.2" fill="#172b38"/><circle cx="590" cy="740" r="2.2" fill="#172b38"/><circle cx="590" cy="760" r="2.2" fill="#172b38"/><circle cx="600" cy="750" r="2.2" fill="#172b38"/><circle cx="620" cy="760" r="2.2" fill="#172b38"/><circle cx="610" cy="740" r="2.2" fill="#172b38"/><circle cx="620" cy="730" r="2.2" fill="#172b38"/><circle cx="610" cy="730" r="2.2" fill="#172b38"/><circle cx="230" cy="900" r="2.2" fill="#172b38"/><circle cx="230" cy="910" r="2.2" fill="#172b38"/><circle cx="210" cy="910" r="2.2" fill="#172b38"/><circle cx="220" cy="920" r="2.2" fill="#172b38"/><circle cx="220" cy="940" r="2.2" fill="#172b38"/><circle cx="230" cy="930" r="2.2" fill="#172b38"/><circle cx="250" cy="940" r="2.2" fill="#172b38"/><circle cx="240" cy="920" r="2.2" fill="#172b38"/><circle cx="250" cy="910" r="2.2" fill="#172b38"/><circle cx="240" cy="910" r="2.2" fill="#172b38"/><circle cx="340" cy="420" r="2.2" fill="#172b38"/><circle cx="330" cy="440" r="2.2" fill="#172b38"/><circle cx="320" cy="440" r="2.2" fill="#172b38"/><circle cx="330" cy="450" r="2.2" fill="#172b38"/><circle cx="320" cy="470" r="2.2" fill="#172b38"/><circle cx="340" cy="460" r="2.2" fill="#172b38"/><circle cx="350" cy="470" r="2.2" fill="#172b38"/><circle cx="350" cy="450" r="2.2" fill="#172b38"/><circle cx="360" cy="440" r="2.2" fill="#172b38"/><circle cx="340" cy="440" r="2.2" fill="#172b38"/><circle cx="1000" cy="720" r="2.2" fill="#172b38"/><circle cx="990" cy="740" r="2.2" fill="#172b38"/><circle cx="980" cy="740" r="2.2" fill="#172b38"/><circle cx="990" cy="750" r="2.2" fill="#172b38"/><circle cx="990" cy="760" r="2.2" fill="#172b38"/><circle cx="1000" cy="750" r="2.2" fill="#172b38"/><circle cx="1010" cy="760" r="2.2" fill="#172b38"/><circle cx="1010" cy="750" r="2.2" fill="#172b38"/><circle cx="1020" cy="740" r="2.2" fill="#172b38"/><circle cx="1000" cy="740" r="2.2" fill="#172b38"/><circle cx="330" cy="640" r="2.2" fill="#172b38"/><circle cx="460" cy="620" r="2.2" fill="#172b38"/><circle cx="430" cy="560" r="2.2" fill="#172b38"/><circle cx="210" cy="610" r="2.2" fill="#172b38"/><circle cx="230" cy="560" r="2.2" fill="#172b38"/><circle cx="680" cy="480" r="2.2" fill="#172b38"/><circle cx="680" cy="990" r="2.2" fill="#172b38"/><circle cx="730" cy="990" r="2.2" fill="#172b38"/><circle cx="730" cy="480" r="2.2" fill="#172b38"/><circle cx="590" cy="100" r="2.2" fill="#172b38"/><circle cx="680" cy="180" r="2.2" fill="#172b38"/><circle cx="790" cy="210" r="2.2" fill="#172b38"/><circle cx="890" cy="180" r="2.2" fill="#172b38"/><circle cx="990" cy="100" r="2.2" fill="#172b38"/><circle cx="600" cy="870" r="2.2" fill="#172b38"/><circle cx="600" cy="880" r="2.2" fill="#172b38"/><circle cx="580" cy="880" r="2.2" fill="#172b38"/><circle cx="590" cy="890" r="2.2" fill="#172b38"/><circle cx="590" cy="910" r="2.2" fill="#172b38"/><circle cx="600" cy="900" r="2.2" fill="#172b38"/><circle cx="620" cy="910" r="2.2" fill="#172b38"/><circle cx="610" cy="890" r="2.2" fill="#172b38"/><circle cx="620" cy="880" r="2.2" fill="#172b38"/><circle cx="610" cy="880" r="2.2" fill="#172b38"/><circle cx="1100" cy="230" r="2.2" fill="#172b38"/><circle cx="1090" cy="230" r="2.2" fill="#172b38"/><circle cx="1100" cy="220" r="2.2" fill="#172b38"/><circle cx="1100" cy="790" r="2.2" fill="#172b38"/><circle cx="920" cy="790" r="2.2" fill="#172b38"/><circle cx="870" cy="640" r="2.2" fill="#172b38"/><circle cx="540" cy="640" r="2.2" fill="#172b38"/><circle cx="1100" cy="380" r="2.2" fill="#172b38"/><circle cx="1070" cy="360" r="2.2" fill="#172b38"/><circle cx="1040" cy="390" r="2.2" fill="#172b38"/><circle cx="420" cy="790" r="2.2" fill="#172b38"/><circle cx="410" cy="810" r="2.2" fill="#172b38"/><circle cx="400" cy="810" r="2.2" fill="#172b38"/><circle cx="410" cy="820" r="2.2" fill="#172b38"/><circle cx="400" cy="830" r="2.2" fill="#172b38"/><circle cx="420" cy="820" r="2.2" fill="#172b38"/><circle cx="430" cy="830" r="2.2" fill="#172b38"/><circle cx="430" cy="820" r="2.2" fill="#172b38"/><circle cx="440" cy="810" r="2.2" fill="#172b38"/><circle cx="420" cy="810" r="2.2" fill="#172b38"/><circle cx="540" cy="480" r="2.2" fill="#172b38"/><circle cx="540" cy="990" r="2.2" fill="#172b38"/><circle cx="870" cy="990" r="2.2" fill="#172b38"/><circle cx="870" cy="480" r="2.2" fill="#172b38"/><circle cx="310" cy="640" r="2.2" fill="#172b38"/><circle cx="310" cy="990" r="2.2" fill="#172b38"/><circle cx="360" cy="990" r="2.2" fill="#172b38"/><circle cx="360" cy="640" r="2.2" fill="#172b38"/><circle cx="1000" cy="830" r="2.2" fill="#172b38"/><circle cx="990" cy="840" r="2.2" fill="#172b38"/><circle cx="980" cy="850" r="2.2" fill="#172b38"/><circle cx="990" cy="850" r="2.2" fill="#172b38"/><circle cx="990" cy="870" r="2.2" fill="#172b38"/><circle cx="1000" cy="860" r="2.2" fill="#172b38"/><circle cx="1010" cy="870" r="2.2" fill="#172b38"/><circle cx="1010" cy="850" r="2.2" fill="#172b38"/><circle cx="1020" cy="850" r="2.2" fill="#172b38"/><circle cx="1000" cy="840" r="2.2" fill="#172b38"/><circle cx="780" cy="570" r="2.2" fill="#172b38"/><circle cx="790" cy="560" r="2.2" fill="#172b38"/><circle cx="770" cy="550" r="2.2" fill="#172b38"/><circle cx="790" cy="550" r="2.2" fill="#172b38"/><circle cx="790" cy="530" r="2.2" fill="#172b38"/><circle cx="800" cy="550" r="2.2" fill="#172b38"/><circle cx="820" cy="550" r="2.2" fill="#172b38"/><circle cx="800" cy="560" r="2.2" fill="#172b38"/><circle cx="810" cy="570" r="2.2" fill="#172b38"/><circle cx="1100" cy="690" r="2.2" fill="#172b38"/><circle cx="990" cy="620" r="2.2" fill="#172b38"/><circle cx="970" cy="670" r="2.2" fill="#172b38"/><circle cx="1100" cy="700" r="2.2" fill="#172b38"/><circle cx="1100" cy="1000" r="2.2" fill="#172b38"/><circle cx="920" cy="1000" r="2.2" fill="#172b38"/><circle cx="920" cy="700" r="2.2" fill="#172b38"/><circle cx="790" cy="870" r="2.2" fill="#172b38"/><circle cx="790" cy="880" r="2.2" fill="#172b38"/><circle cx="770" cy="880" r="2.2" fill="#172b38"/><circle cx="790" cy="890" r="2.2" fill="#172b38"/><circle cx="780" cy="910" r="2.2" fill="#172b38"/><circle cx="790" cy="900" r="2.2" fill="#172b38"/><circle cx="810" cy="910" r="2.2" fill="#172b38"/><circle cx="800" cy="890" r="2.2" fill="#172b38"/><circle cx="820" cy="880" r="2.2" fill="#172b38"/><circle cx="800" cy="880" r="2.2" fill="#172b38"/><circle cx="490" cy="740" r="2.2" fill="#172b38"/><circle cx="170" cy="740" r="2.2" fill="#172b38"/><circle cx="440" cy="280" r="2.2" fill="#172b38"/><circle cx="580" cy="250" r="2.2" fill="#172b38"/><circle cx="550" cy="200" r="2.2" fill="#172b38"/><circle cx="310" cy="250" r="2.2" fill="#172b38"/><circle cx="330" cy="200" r="2.2" fill="#172b38"/><circle cx="340" cy="300" r="2.2" fill="#172b38"/><circle cx="330" cy="320" r="2.2" fill="#172b38"/><circle cx="320" cy="320" r="2.2" fill="#172b38"/><circle cx="330" cy="330" r="2.2" fill="#172b38"/><circle cx="320" cy="340" r="2.2" fill="#172b38"/><circle cx="340" cy="330" r="2.2" fill="#172b38"/><circle cx="350" cy="340" r="2.2" fill="#172b38"/><circle cx="350" cy="330" r="2.2" fill="#172b38"/><circle cx="360" cy="320" r="2.2" fill="#172b38"/><circle cx="340" cy="320" r="2.2" fill="#172b38"/><circle cx="420" cy="900" r="2.2" fill="#172b38"/><circle cx="410" cy="910" r="2.2" fill="#172b38"/><circle cx="400" cy="910" r="2.2" fill="#172b38"/><circle cx="410" cy="920" r="2.2" fill="#172b38"/><circle cx="400" cy="940" r="2.2" fill="#172b38"/><circle cx="420" cy="930" r="2.2" fill="#172b38"/><circle cx="430" cy="940" r="2.2" fill="#172b38"/><circle cx="430" cy="920" r="2.2" fill="#172b38"/><circle cx="440" cy="910" r="2.2" fill="#172b38"/><circle cx="420" cy="910" r="2.2" fill="#172b38"/><circle cx="230" cy="790" r="2.2" fill="#172b38"/><circle cx="230" cy="810" r="2.2" fill="#172b38"/><circle cx="210" cy="810" r="2.2" fill="#172b38"/><circle cx="220" cy="820" r="2.2" fill="#172b38"/><circle cx="220" cy="830" r="2.2" fill="#172b38"/><circle cx="230" cy="820" r="2.2" fill="#172b38"/><circle cx="250" cy="830" r="2.2" fill="#172b38"/><circle cx="240" cy="820" r="2.2" fill="#172b38"/><circle cx="250" cy="810" r="2.2" fill="#172b38"/><circle cx="240" cy="810" r="2.2" fill="#172b38"/><circle cx="620" cy="380" r="2.2" fill="#172b38"/><circle cx="270" cy="380" r="2.2" fill="#172b38"/><circle cx="1100" cy="590" r="2.2" fill="#172b38"/><circle cx="1090" cy="600" r="2.2" fill="#172b38"/><circle cx="1070" cy="570" r="2.2" fill="#172b38"/><circle cx="1090" cy="570" r="2.2" fill="#172b38"/><circle cx="1100" cy="580" r="2.2" fill="#172b38"/><circle cx="1000" cy="920" r="2.2" fill="#172b38"/><circle cx="990" cy="940" r="2.2" fill="#172b38"/><circle cx="980" cy="940" r="2.2" fill="#172b38"/><circle cx="990" cy="950" r="2.2" fill="#172b38"/><circle cx="990" cy="960" r="2.2" fill="#172b38"/><circle cx="1000" cy="950" r="2.2" fill="#172b38"/><circle cx="1010" cy="960" r="2.2" fill="#172b38"/><circle cx="1010" cy="950" r="2.2" fill="#172b38"/><circle cx="1020" cy="940" r="2.2" fill="#172b38"/><circle cx="1000" cy="940" r="2.2" fill="#172b38"/><circle cx="270" cy="280" r="2.2" fill="#172b38"/><circle cx="270" cy="620" r="2.2" fill="#172b38"/><circle cx="620" cy="620" r="2.2" fill="#172b38"/><circle cx="620" cy="280" r="2.2" fill="#172b38"/><circle cx="170" cy="640" r="2.2" fill="#172b38"/><circle cx="170" cy="990" r="2.2" fill="#172b38"/><circle cx="490" cy="990" r="2.2" fill="#172b38"/><circle cx="490" cy="640" r="2.2" fill="#172b38"/><circle cx="700" cy="480" r="2.2" fill="#172b38"/><circle cx="830" cy="460" r="2.2" fill="#172b38"/><circle cx="810" cy="400" r="2.2" fill="#172b38"/><circle cx="580" cy="460" r="2.2" fill="#172b38"/><circle cx="600" cy="400" r="2.2" fill="#172b38"/><circle cx="790" cy="720" r="2.2" fill="#172b38"/><circle cx="790" cy="730" r="2.2" fill="#172b38"/><circle cx="770" cy="730" r="2.2" fill="#172b38"/><circle cx="790" cy="740" r="2.2" fill="#172b38"/><circle cx="780" cy="760" r="2.2" fill="#172b38"/><circle cx="790" cy="750" r="2.2" fill="#172b38"/><circle cx="810" cy="760" r="2.2" fill="#172b38"/><circle cx="800" cy="740" r="2.2" fill="#172b38"/><circle cx="820" cy="730" r="2.2" fill="#172b38"/><circle cx="800" cy="730" r="2.2" fill="#172b38"/><circle cx="230" cy="670" r="2.2" fill="#172b38"/><circle cx="230" cy="680" r="2.2" fill="#172b38"/><circle cx="210" cy="680" r="2.2" fill="#172b38"/><circle cx="220" cy="690" r="2.2" fill="#172b38"/><circle cx="220" cy="710" r="2.2" fill="#172b38"/><circle cx="230" cy="700" r="2.2" fill="#172b38"/><circle cx="250" cy="710" r="2.2" fill="#172b38"/><circle cx="240" cy="690" r="2.2" fill="#172b38"/><circle cx="250" cy="680" r="2.2" fill="#172b38"/><circle cx="240" cy="680" r="2.2" fill="#172b38"/><circle cx="1070" cy="600" r="2.2" fill="#172b38"/><circle cx="1060" cy="580" r="2.2" fill="#172b38"/><circle cx="420" cy="280" r="2.2" fill="#172b38"/><circle cx="420" cy="620" r="2.2" fill="#172b38"/><circle cx="470" cy="620" r="2.2" fill="#172b38"/><circle cx="470" cy="280" r="2.2" fill="#172b38"/><circle cx="600" cy="530" r="2.2" fill="#172b38"/><circle cx="600" cy="550" r="2.2" fill="#172b38"/><circle cx="580" cy="550" r="2.2" fill="#172b38"/><circle cx="590" cy="560" r="2.2" fill="#172b38"/><circle cx="590" cy="570" r="2.2" fill="#172b38"/><circle cx="600" cy="560" r="2.2" fill="#172b38"/><circle cx="620" cy="570" r="2.2" fill="#172b38"/><circle cx="610" cy="560" r="2.2" fill="#172b38"/><circle cx="620" cy="550" r="2.2" fill="#172b38"/><circle cx="610" cy="550" r="2.2" fill="#172b38"/><circle cx="120" cy="100" r="2.2" fill="#172b38"/><circle cx="120" cy="110" r="2.2" fill="#172b38"/></svg>