<svg xmlns="http://www.w3.org/2000/svg" width="1200" height="1200" viewBox="0 0 1200 1200"><rect width="1200" height="1200" fill="white"/><circle cx="230" cy="1100" r="2.2" fill="#172b38"/><circle cx="230" cy="1070" r="2.2" fill="#172b38"/><circle cx="520" cy="280" r="2.2" fill="#172b38"/><circle cx="430" cy="350" r="2.2" fill="#172b38"/><circle cx="530" cy="290" r="2.2" fill="#172b38"/><circle cx="520" cy="460" r="2.2" fill="#172b38"/><circle cx="590" cy="320" r="2.2" fill="#172b38"/><circle cx="620" cy="400" r="2.2" fill="#172b38"/><circle cx="710" cy="280" r="2.2" fill="#172b38"/><circle cx="990" cy="520" r="2.2" fill="#172b38"/><circle cx="900" cy="520" r="2.2" fill="#172b38"/><circle cx="1070" cy="400" r="2.2" fill="#172b38"/><circle cx="980" cy="400" r="2.2" fill="#172b38"/><circle cx="520" cy="1060" r="2.2" fill="#172b38"/><circle cx="420" cy="820" r="2.2" fill="#172b38"/><circle cx="650" cy="230" r="2.2" fill="#172b38"/><circle cx="560" cy="300" r="2.2" fill="#172b38"/><circle cx="660" cy="240" r="2.2" fill="#172b38"/><circle cx="650" cy="410" r="2.2" fill="#172b38"/><circle cx="720" cy="270" r="2.2" fill="#172b38"/><circle cx="750" cy="350" r="2.2" fill="#172b38"/><circle cx="840" cy="230" r="2.2" fill="#172b38"/><circle cx="1040" cy="430" r="2.2" fill="#172b38"/><circle cx="1020" cy="420" r="2.2" fill="#172b38"/><circle cx="1010" cy="430" r="2.2" fill="#172b38"/><circle cx="710" cy="610" r="2.2" fill="#172b38"/><circle cx="680" cy="620" r="2.2" fill="#172b38"/><circle cx="650" cy="640" r="2.2" fill="#172b38"/><circle cx="630" cy="650" r="2.2" fill="#172b38"/><circle cx="610" cy="660" r="2.2" fill="#172b38"/><circle cx="590" cy="650" r="2.2" fill="#172b38"/><circle cx="580" cy="630" r="2.2" fill="#172b38"/><circle cx="540" cy="620" r="2.2" fill="#172b38"/><circle cx="510" cy="610" r="2.2" fill="#172b38"/><circle cx="520" cy="100" r="2.2" fill="#172b38"/><circle cx="530" cy="260" r="2.2" fill="#172b38"/><circle cx="430" cy="200" r="2.2" fill="#172b38"/><circle cx="620" cy="150" r="2.2" fill="#172b38"/><circle cx="590" cy="230" r="2.2" fill="#172b38"/><circle cx="530" cy="100" r="2.2" fill="#172b38"/><circle cx="240" cy="1100" r="2.2" fill="#172b38"/><circle cx="230" cy="1090" r="2.2" fill="#172b38"/><circle cx="220" cy="1100" r="2.2" fill="#172b38"/><circle cx="130" cy="1090" r="2.2" fill="#172b38"/><circle cx="130" cy="1100" r="2.2" fill="#172b38"/><circle cx="1030" cy="640" r="2.2" fill="#172b38"/><circle cx="1030" cy="540" r="2.2" fill="#172b38"/><circle cx="100" cy="400" r="2.2" fill="#172b38"/><circle cx="130" cy="430" r="2.2" fill="#172b38"/><circle cx="310" cy="430" r="2.2" fill="#172b38"/><circle cx="220" cy="300" r="2.2" fill="#172b38"/><circle cx="200" cy="380" r="2.2" fill="#172b38"/><circle cx="130" cy="240" r="2.2" fill="#172b38"/><circle cx="140" cy="410" r="2.2" fill="#172b38"/><circle cx="100" cy="390" r="2.2" fill="#172b38"/><circle cx="990" cy="1040" r="2.2" fill="#172b38"/><circle cx="990" cy="1100" r="2.2" fill="#172b38"/><circle cx="970" cy="1080" r="2.2" fill="#172b38"/><circle cx="990" cy="1060" r="2.2" fill="#172b38"/><circle cx="1020" cy="1080" r="2.2" fill="#172b38"/><circle cx="1000" cy="1100" r="2.2" fill="#172b38"/><circle cx="140" cy="1100" r="2.2" fill="#172b38"/><circle cx="130" cy="1000" r="2.2" fill="#172b38"/><circle cx="690" cy="1100" r="2.2" fill="#172b38"/><circle cx="660" cy="1080" r="2.2" fill="#172b38"/><circle cx="640" cy="1100" r="2.2" fill="#172b38"/><circle cx="1020" cy="440" r="2.2" fill="#172b38"/><circle cx="1020" cy="360" r="2.2" fill="#172b38"/><circle cx="920" cy="130" r="2.2" fill="#172b38"/><circle cx="820" cy="200" r="2.2" fill="#172b38"/><circle cx="930" cy="140" r="2.2" fill="#172b38"/><circle cx="920" cy="310" r="2.2" fill="#172b38"/><circle cx="980" cy="170" r="2.2" fill="#172b38"/><circle cx="1010" cy="260" r="2.2" fill="#172b38"/><circle cx="1100" cy="130" r="2.2" fill="#172b38"/><circle cx="880" cy="100" r="2.2" fill="#172b38"/><circle cx="960" cy="480" r="2.2" fill="#172b38"/><circle cx="940" cy="500" r="2.2" fill="#172b38"/><circle cx="930" cy="480" r="2.2" fill="#172b38"/><circle cx="100" cy="470" r="2.2" fill="#172b38"/><circle cx="140" cy="440" r="2.2" fill="#172b38"/><circle cx="170" cy="440" r="2.2" fill="#172b38"/><circle cx="150" cy="460" r="2.2" fill="#172b38"/><circle cx="160" cy="480" r="2.2" fill="#172b38"/><circle cx="130" cy="470" r="2.2" fill="#172b38"/><circle cx="110" cy="480" r="2.2" fill="#172b38"/><circle cx="120" cy="460" r="2.2" fill="#172b38"/><circle cx="100" cy="440" r="2.2" fill="#172b38"/><circle cx="120" cy="440" r="2.2" fill="#172b38"/><circle cx="130" cy="410" r="2.2" fill="#172b38"/><circle cx="130" cy="610" r="2.2" fill="#172b38"/><circle cx="200" cy="470" r="2.2" fill="#172b38"/><circle cx="220" cy="550" r="2.2" fill="#172b38"/><circle cx="390" cy="330" r="2.2" fill="#172b38"/><circle cx="300" cy="400" r="2.2" fill="#172b38"/><circle cx="400" cy="340" r="2.2" fill="#172b38"/><circle cx="390" cy="510" r="2.2" fill="#172b38"/><circle cx="460" cy="370" r="2.2" fill="#172b38"/><circle cx="480" cy="450" r="2.2" fill="#172b38"/><circle cx="580" cy="330" r="2.2" fill="#172b38"/><circle cx="300" cy="250" r="2.2" fill="#172b38"/><circle cx="400" cy="310" r="2.2" fill="#172b38"/><circle cx="390" cy="140" r="2.2" fill="#172b38"/><circle cx="460" cy="280" r="2.2" fill="#172b38"/><circle cx="480" cy="200" r="2.2" fill="#172b38"/><circle cx="940" cy="560" r="2.2" fill="#172b38"/><circle cx="940" cy="470" r="2.2" fill="#172b38"/><circle cx="840" cy="100" r="2.2" fill="#172b38"/><circle cx="850" cy="130" r="2.2" fill="#172b38"/><circle cx="860" cy="100" r="2.2" fill="#172b38"/><circle cx="190" cy="1060" r="2.2" fill="#172b38"/><circle cx="100" cy="1060" r="2.2" fill="#172b38"/><circle cx="790" cy="100" r="2.2" fill="#172b38"/><circle cx="790" cy="160" r="2.2" fill="#172b38"/><circle cx="690" cy="100" r="2.2" fill="#172b38"/><circle cx="790" cy="180" r="2.2" fill="#172b38"/><circle cx="970" cy="180" r="2.2" fill="#172b38"/><circle cx="910" cy="100" r="2.2" fill="#172b38"/><circle cx="930" cy="110" r="2.2" fill="#172b38"/><circle cx="930" cy="100" r="2.2" fill="#172b38"/><circle cx="350" cy="1100" r="2.2" fill="#172b38"/><circle cx="340" cy="1090" r="2.2" fill="#172b38"/><circle cx="340" cy="1100" r="2.2" fill="#172b38"/><circle cx="380" cy="1060" r="2.2" fill="#172b38"/><circle cx="340" cy="1020" r="2.2" fill="#172b38"/><circle cx="300" cy="1060" r="2.2" fill="#172b38"/><circle cx="340" cy="1000" r="2.2" fill="#172b38"/><circle cx="960" cy="550" r="2.2" fill="#172b38"/><circle cx="940" cy="540" r="2.2" fill="#172b38"/><circle cx="970" cy="520" r="2.2" fill="#172b38"/><circle cx="940" cy="490" r="2.2" fill="#172b38"/><circle cx="920" cy="520" r="2.2" fill="#172b38"/><circle cx="930" cy="550" r="2.2" fill="#172b38"/><circle cx="100" cy="1070" r="2.2" fill="#172b38"/><circle cx="170" cy="1060" r="2.2" fill="#172b38"/><circle cx="130" cy="1020" r="2.2" fill="#172b38"/><circle cx="100" cy="1050" r="2.2" fill="#172b38"/><circle cx="660" cy="100" r="2.2" fill="#172b38"/><circle cx="660" cy="210" r="2.2" fill="#172b38"/><circle cx="560" cy="150" r="2.2" fill="#172b38"/><circle cx="750" cy="100" r="2.2" fill="#172b38"/><circle cx="720" cy="180" r="2.2" fill="#172b38"/><circle cx="680" cy="100" r="2.2" fill="#172b38"/><circle cx="100" cy="450" r="2.2" fill="#172b38"/><circle cx="520" cy="730" r="2.2" fill="#172b38"/><circle cx="350" cy="570" r="2.2" fill="#172b38"/><circle cx="290" cy="780" r="2.2" fill="#172b38"/><circle cx="130" cy="850" r="2.2" fill="#172b38"/><circle cx="260" cy="380" r="2.2" fill="#172b38"/><circle cx="170" cy="450" r="2.2" fill="#172b38"/><circle cx="270" cy="390" r="2.2" fill="#172b38"/><circle cx="260" cy="560" r="2.2" fill="#172b38"/><circle cx="330" cy="420" r="2.2" fill="#172b38"/><circle cx="350" cy="500" r="2.2" fill="#172b38"/><circle cx="450" cy="380" r="2.2" fill="#172b38"/><circle cx="170" cy="300" r="2.2" fill="#172b38"/><circle cx="270" cy="360" r="2.2" fill="#172b38"/><circle cx="260" cy="190" r="2.2" fill="#172b38"/><circle cx="330" cy="330" r="2.2" fill="#172b38"/><circle cx="350" cy="250" r="2.2" fill="#172b38"/><circle cx="1080" cy="100" r="2.2" fill="#172b38"/><circle cx="690" cy="260" r="2.2" fill="#172b38"/><circle cx="180" cy="480" r="2.2" fill="#172b38"/><circle cx="690" cy="250" r="2.2" fill="#172b38"/><circle cx="790" cy="190" r="2.2" fill="#172b38"/><circle cx="790" cy="360" r="2.2" fill="#172b38"/><circle cx="850" cy="220" r="2.2" fill="#172b38"/><circle cx="880" cy="300" r="2.2" fill="#172b38"/><circle cx="780" cy="390" r="2.2" fill="#172b38"/><circle cx="760" cy="440" r="2.2" fill="#172b38"/><circle cx="710" cy="440" r="2.2" fill="#172b38"/><circle cx="750" cy="480" r="2.2" fill="#172b38"/><circle cx="740" cy="530" r="2.2" fill="#172b38"/><circle cx="780" cy="500" r="2.2" fill="#172b38"/><circle cx="830" cy="530" r="2.2" fill="#172b38"/><circle cx="810" cy="480" r="2.2" fill="#172b38"/><circle cx="860" cy="440" r="2.2" fill="#172b38"/><circle cx="800" cy="440" r="2.2" fill="#172b38"/><circle cx="1040" cy="370" r="2.2" fill="#172b38"/><circle cx="1020" cy="380" r="2.2" fill="#172b38"/><circle cx="1050" cy="400" r="2.2" fill="#172b38"/><circle cx="1000" cy="400" r="2.2" fill="#172b38"/><circle cx="1010" cy="370" r="2.2" fill="#172b38"/><circle cx="700" cy="680" r="2.2" fill="#172b38"/><circle cx="680" cy="690" r="2.2" fill="#172b38"/><circle cx="650" cy="700" r="2.2" fill="#172b38"/><circle cx="630" cy="720" r="2.2" fill="#172b38"/><circle cx="610" cy="730" r="2.2" fill="#172b38"/><circle cx="590" cy="720" r="2.2" fill="#172b38"/><circle cx="580" cy="700" r="2.2" fill="#172b38"/><circle cx="540" cy="690" r="2.2" fill="#172b38"/><circle cx="520" cy="680" r="2.2" fill="#172b38"/><circle cx="1100" cy="840" r="2.2" fill="#172b38"/><circle cx="830" cy="1030" r="2.2" fill="#172b38"/><circle cx="100" cy="830" r="2.2" fill="#172b38"/><circle cx="660" cy="1100" r="2.2" fill="#172b38"/><circle cx="660" cy="1060" r="2.2" fill="#172b38"/><circle cx="680" cy="740" r="2.2" fill="#172b38"/><circle cx="670" cy="760" r="2.2" fill="#172b38"/><circle cx="650" cy="770" r="2.2" fill="#172b38"/><circle cx="630" cy="780" r="2.2" fill="#172b38"/><circle cx="610" cy="790" r="2.2" fill="#172b38"/><circle cx="590" cy="780" r="2.2" fill="#172b38"/><circle cx="580" cy="770" r="2.2" fill="#172b38"/><circle cx="560" cy="750" r="2.2" fill="#172b38"/><circle cx="540" cy="740" r="2.2" fill="#172b38"/><circle cx="610" cy="470" r="2.2" fill="#172b38"/><circle cx="670" cy="500" r="2.2" fill="#172b38"/><circle cx="720" cy="540" r="2.2" fill="#172b38"/><circle cx="730" cy="590" r="2.2" fill="#172b38"/><circle cx="730" cy="650" r="2.2" fill="#172b38"/><circle cx="720" cy="710" r="2.2" fill="#172b38"/><circle cx="700" cy="760" r="2.2" fill="#172b38"/><circle cx="660" cy="820" r="2.2" fill="#172b38"/><circle cx="620" cy="860" r="2.2" fill="#172b38"/><circle cx="590" cy="860" r="2.2" fill="#172b38"/><circle cx="570" cy="830" r="2.2" fill="#172b38"/><circle cx="530" cy="780" r="2.2" fill="#172b38"/><circle cx="500" cy="720" r="2.2" fill="#172b38"/><circle cx="480" cy="660" r="2.2" fill="#172b38"/><circle cx="480" cy="600" r="2.2" fill="#172b38"/><circle cx="500" cy="550" r="2.2" fill="#172b38"/><circle cx="520" cy="510" r="2.2" fill="#172b38"/><circle cx="560" cy="480" r="2.2" fill="#172b38"/><circle cx="620" cy="450" r="2.2" fill="#172b38"/><circle cx="620" cy="430" r="2.2" fill="#172b38"/><circle cx="630" cy="390" r="2.2" fill="#172b38"/><circle cx="630" cy="350" r="2.2" fill="#172b38"/><circle cx="640" cy="300" r="2.2" fill="#172b38"/><circle cx="640" cy="260" r="2.2" fill="#172b38"/><circle cx="680" cy="550" r="2.2" fill="#172b38"/><circle cx="670" cy="560" r="2.2" fill="#172b38"/><circle cx="650" cy="570" r="2.2" fill="#172b38"/><circle cx="630" cy="590" r="2.2" fill="#172b38"/><circle cx="610" cy="600" r="2.2" fill="#172b38"/><circle cx="590" cy="590" r="2.2" fill="#172b38"/><circle cx="580" cy="570" r="2.2" fill="#172b38"/><circle cx="560" cy="560" r="2.2" fill="#172b38"/><circle cx="540" cy="550" r="2.2" fill="#172b38"/><circle cx="1000" cy="590" r="2.2" fill="#172b38"/><circle cx="1030" cy="620" r="2.2" fill="#172b38"/><circle cx="1060" cy="590" r="2.2" fill="#172b38"/><circle cx="1030" cy="560" r="2.2" fill="#172b38"/></svg>